%TF.GenerationSoftware,KiCad,Pcbnew,(7.0.0-0)*%
%TF.CreationDate,2023-06-27T20:57:36+01:00*%
%TF.ProjectId,ArdynoMon,41726479-6e6f-44d6-9f6e-2e6b69636164,Rev 3.5*%
%TF.SameCoordinates,Original*%
%TF.FileFunction,Drillmap*%
%TF.FilePolarity,Positive*%
%FSLAX45Y45*%
G04 Gerber Fmt 4.5, Leading zero omitted, Abs format (unit mm)*
G04 Created by KiCad (PCBNEW (7.0.0-0)) date 2023-06-27 20:57:36*
%MOMM*%
%LPD*%
G01*
G04 APERTURE LIST*
%ADD10C,0.150000*%
%ADD11C,0.200000*%
%ADD12C,0.040000*%
%ADD13C,0.075000*%
%ADD14C,0.080000*%
%ADD15C,0.100000*%
%ADD16C,0.320000*%
G04 APERTURE END LIST*
D10*
X11938000Y-12890500D02*
X11938000Y-7683500D01*
X11874500Y-7626000D02*
X6096000Y-7626000D01*
X6032500Y-7683500D02*
X6096000Y-7626000D01*
X6096000Y-12960000D02*
X11874500Y-12954000D01*
X6032500Y-7683500D02*
X6032500Y-12890500D01*
X6032500Y-12890500D02*
X6096000Y-12960000D01*
X11874500Y-7626000D02*
X11938000Y-7683500D01*
X11874500Y-12954000D02*
X11938000Y-12890500D01*
D11*
D12*
X6091240Y-9926640D02*
X6131240Y-9966640D01*
X6131240Y-9926640D02*
X6091240Y-9966640D01*
X6355400Y-9606600D02*
X6395400Y-9646600D01*
X6395400Y-9606600D02*
X6355400Y-9646600D01*
X6486180Y-8517700D02*
X6526180Y-8557700D01*
X6526180Y-8517700D02*
X6486180Y-8557700D01*
X6486180Y-8705660D02*
X6526180Y-8745660D01*
X6526180Y-8705660D02*
X6486180Y-8745660D01*
X6711000Y-8069900D02*
X6751000Y-8109900D01*
X6751000Y-8069900D02*
X6711000Y-8109900D01*
X6711000Y-8997000D02*
X6751000Y-9037000D01*
X6751000Y-8997000D02*
X6711000Y-9037000D01*
X6711000Y-9276400D02*
X6751000Y-9316400D01*
X6751000Y-9276400D02*
X6711000Y-9316400D01*
X6863400Y-8806500D02*
X6903400Y-8846500D01*
X6903400Y-8806500D02*
X6863400Y-8846500D01*
X6939600Y-9896160D02*
X6979600Y-9936160D01*
X6979600Y-9896160D02*
X6939600Y-9936160D01*
X7050060Y-9010460D02*
X7090060Y-9050460D01*
X7090060Y-9010460D02*
X7050060Y-9050460D01*
X7050060Y-9620060D02*
X7090060Y-9660060D01*
X7090060Y-9620060D02*
X7050060Y-9660060D01*
X7066600Y-10038400D02*
X7106600Y-10078400D01*
X7106600Y-10038400D02*
X7066600Y-10078400D01*
X7206560Y-8263320D02*
X7246560Y-8303320D01*
X7246560Y-8263320D02*
X7206560Y-8303320D01*
X7309140Y-8370000D02*
X7349140Y-8410000D01*
X7349140Y-8370000D02*
X7309140Y-8410000D01*
X7338640Y-9370760D02*
X7378640Y-9410760D01*
X7378640Y-9370760D02*
X7338640Y-9410760D01*
X7338640Y-9894000D02*
X7378640Y-9934000D01*
X7378640Y-9894000D02*
X7338640Y-9934000D01*
X7343720Y-9187880D02*
X7383720Y-9227880D01*
X7383720Y-9187880D02*
X7343720Y-9227880D01*
X7343720Y-9274240D02*
X7383720Y-9314240D01*
X7383720Y-9274240D02*
X7343720Y-9314240D01*
X7409500Y-10267000D02*
X7449500Y-10307000D01*
X7449500Y-10267000D02*
X7409500Y-10307000D01*
X7473000Y-10140000D02*
X7513000Y-10180000D01*
X7513000Y-10140000D02*
X7473000Y-10180000D01*
X7533960Y-9352600D02*
X7573960Y-9392600D01*
X7573960Y-9352600D02*
X7533960Y-9392600D01*
X7536500Y-10203500D02*
X7576500Y-10243500D01*
X7576500Y-10203500D02*
X7536500Y-10243500D01*
X7541840Y-9894000D02*
X7581840Y-9934000D01*
X7581840Y-9894000D02*
X7541840Y-9934000D01*
X7574600Y-9489760D02*
X7614600Y-9529760D01*
X7614600Y-9489760D02*
X7574600Y-9529760D01*
X7600000Y-10076500D02*
X7640000Y-10116500D01*
X7640000Y-10076500D02*
X7600000Y-10116500D01*
X7643440Y-9894000D02*
X7683440Y-9934000D01*
X7683440Y-9894000D02*
X7643440Y-9934000D01*
X7694240Y-9253920D02*
X7734240Y-9293920D01*
X7734240Y-9253920D02*
X7694240Y-9293920D01*
X7694240Y-9391080D02*
X7734240Y-9431080D01*
X7734240Y-9391080D02*
X7694240Y-9431080D01*
X7750120Y-9894000D02*
X7790120Y-9934000D01*
X7790120Y-9894000D02*
X7750120Y-9934000D01*
X7762560Y-9474520D02*
X7802560Y-9514520D01*
X7802560Y-9474520D02*
X7762560Y-9514520D01*
X7765360Y-9192960D02*
X7805360Y-9232960D01*
X7805360Y-9192960D02*
X7765360Y-9232960D01*
X7765360Y-9325040D02*
X7805360Y-9365040D01*
X7805360Y-9325040D02*
X7765360Y-9365040D01*
X7766340Y-8684960D02*
X7806340Y-8724960D01*
X7806340Y-8684960D02*
X7766340Y-8724960D01*
X7766340Y-8786560D02*
X7806340Y-8826560D01*
X7806340Y-8786560D02*
X7766340Y-8826560D01*
X7770440Y-8583360D02*
X7810440Y-8623360D01*
X7810440Y-8583360D02*
X7770440Y-8623360D01*
X7770440Y-8888160D02*
X7810440Y-8928160D01*
X7810440Y-8888160D02*
X7770440Y-8928160D01*
X7917500Y-8044500D02*
X7957500Y-8084500D01*
X7957500Y-8044500D02*
X7917500Y-8084500D01*
X7955600Y-10267000D02*
X7995600Y-10307000D01*
X7995600Y-10267000D02*
X7955600Y-10307000D01*
X8209600Y-9251000D02*
X8249600Y-9291000D01*
X8249600Y-9251000D02*
X8209600Y-9291000D01*
X8311200Y-8336600D02*
X8351200Y-8376600D01*
X8351200Y-8336600D02*
X8311200Y-8376600D01*
X8387400Y-9124000D02*
X8427400Y-9164000D01*
X8427400Y-9124000D02*
X8387400Y-9164000D01*
X8390300Y-9755980D02*
X8430300Y-9795980D01*
X8430300Y-9755980D02*
X8390300Y-9795980D01*
X8390300Y-10213180D02*
X8430300Y-10253180D01*
X8430300Y-10213180D02*
X8390300Y-10253180D01*
X8666800Y-12400600D02*
X8706800Y-12440600D01*
X8706800Y-12400600D02*
X8666800Y-12440600D01*
X8931200Y-10230880D02*
X8971200Y-10270880D01*
X8971200Y-10230880D02*
X8931200Y-10270880D01*
X8949100Y-9197180D02*
X8989100Y-9237180D01*
X8989100Y-9197180D02*
X8949100Y-9237180D01*
X9073200Y-9301800D02*
X9113200Y-9341800D01*
X9113200Y-9301800D02*
X9073200Y-9341800D01*
X9187500Y-9708200D02*
X9227500Y-9748200D01*
X9227500Y-9708200D02*
X9187500Y-9748200D01*
X9301800Y-10470200D02*
X9341800Y-10510200D01*
X9341800Y-10470200D02*
X9301800Y-10510200D01*
X9304700Y-10238580D02*
X9344700Y-10278580D01*
X9344700Y-10238580D02*
X9304700Y-10278580D01*
X9558700Y-10238580D02*
X9598700Y-10278580D01*
X9598700Y-10238580D02*
X9558700Y-10278580D01*
X9812700Y-10238580D02*
X9852700Y-10278580D01*
X9852700Y-10238580D02*
X9812700Y-10278580D01*
X9987600Y-8641400D02*
X10027600Y-8681400D01*
X10027600Y-8641400D02*
X9987600Y-8681400D01*
X10190800Y-8108000D02*
X10230800Y-8148000D01*
X10230800Y-8108000D02*
X10190800Y-8148000D01*
X10374445Y-8397985D02*
X10414445Y-8437985D01*
X10414445Y-8397985D02*
X10374445Y-8437985D01*
X10374445Y-9096485D02*
X10414445Y-9136485D01*
X10414445Y-9096485D02*
X10374445Y-9136485D01*
X10381300Y-9479600D02*
X10421300Y-9519600D01*
X10421300Y-9479600D02*
X10381300Y-9519600D01*
X10749600Y-8400100D02*
X10789600Y-8440100D01*
X10789600Y-8400100D02*
X10749600Y-8440100D01*
X10749600Y-9479600D02*
X10789600Y-9519600D01*
X10789600Y-9479600D02*
X10749600Y-9519600D01*
X10755445Y-8778985D02*
X10795445Y-8818985D01*
X10795445Y-8778985D02*
X10755445Y-8818985D01*
X11587800Y-12527600D02*
X11627800Y-12567600D01*
X11627800Y-12527600D02*
X11587800Y-12567600D01*
X11587800Y-12832400D02*
X11627800Y-12872400D01*
X11627800Y-12832400D02*
X11587800Y-12872400D01*
D13*
X8165500Y-10912500D02*
G75*
G03*
X8165500Y-10912500I-37500J0D01*
G01*
X8165500Y-11112500D02*
G75*
G03*
X8165500Y-11112500I-37500J0D01*
G01*
X8165500Y-11312500D02*
G75*
G03*
X8165500Y-11312500I-37500J0D01*
G01*
X8165500Y-11512500D02*
G75*
G03*
X8165500Y-11512500I-37500J0D01*
G01*
D14*
X8633700Y-8434380D02*
X8633700Y-8514380D01*
X8593700Y-8474380D02*
X8673700Y-8474380D01*
X8633700Y-8688380D02*
X8633700Y-8768380D01*
X8593700Y-8728380D02*
X8673700Y-8728380D01*
X8633700Y-8942380D02*
X8633700Y-9022380D01*
X8593700Y-8982380D02*
X8673700Y-8982380D01*
X9268700Y-8434380D02*
X9268700Y-8514380D01*
X9228700Y-8474380D02*
X9308700Y-8474380D01*
X9268700Y-9196380D02*
X9268700Y-9276380D01*
X9228700Y-9236380D02*
X9308700Y-9236380D01*
X9325600Y-10760000D02*
X9325600Y-10840000D01*
X9285600Y-10800000D02*
X9365600Y-10800000D01*
X9325600Y-11522000D02*
X9325600Y-11602000D01*
X9285600Y-11562000D02*
X9365600Y-11562000D01*
X9522700Y-8434380D02*
X9522700Y-8514380D01*
X9482700Y-8474380D02*
X9562700Y-8474380D01*
X9522700Y-9196380D02*
X9522700Y-9276380D01*
X9482700Y-9236380D02*
X9562700Y-9236380D01*
X9579600Y-10760000D02*
X9579600Y-10840000D01*
X9539600Y-10800000D02*
X9619600Y-10800000D01*
X9579600Y-11522000D02*
X9579600Y-11602000D01*
X9539600Y-11562000D02*
X9619600Y-11562000D01*
X9776700Y-8434380D02*
X9776700Y-8514380D01*
X9736700Y-8474380D02*
X9816700Y-8474380D01*
X9776700Y-9196380D02*
X9776700Y-9276380D01*
X9736700Y-9236380D02*
X9816700Y-9236380D01*
X9833600Y-10760000D02*
X9833600Y-10840000D01*
X9793600Y-10800000D02*
X9873600Y-10800000D01*
X9833600Y-11522000D02*
X9833600Y-11602000D01*
X9793600Y-11562000D02*
X9873600Y-11562000D01*
X10030700Y-8434380D02*
X10030700Y-8514380D01*
X9990700Y-8474380D02*
X10070700Y-8474380D01*
X10030700Y-9196380D02*
X10030700Y-9276380D01*
X9990700Y-9236380D02*
X10070700Y-9236380D01*
X10087600Y-10760000D02*
X10087600Y-10840000D01*
X10047600Y-10800000D02*
X10127600Y-10800000D01*
X10087600Y-11522000D02*
X10087600Y-11602000D01*
X10047600Y-11562000D02*
X10127600Y-11562000D01*
D15*
X6258356Y-10449356D02*
X6258356Y-10378644D01*
X6187644Y-10378644D01*
X6187644Y-10449356D01*
X6258356Y-10449356D01*
X6258356Y-11211356D02*
X6258356Y-11140644D01*
X6187644Y-11140644D01*
X6187644Y-11211356D01*
X6258356Y-11211356D01*
X6258356Y-11465356D02*
X6258356Y-11394644D01*
X6187644Y-11394644D01*
X6187644Y-11465356D01*
X6258356Y-11465356D01*
X6258356Y-12227356D02*
X6258356Y-12156644D01*
X6187644Y-12156644D01*
X6187644Y-12227356D01*
X6258356Y-12227356D01*
X6259856Y-10195356D02*
X6259856Y-10124644D01*
X6189144Y-10124644D01*
X6189144Y-10195356D01*
X6259856Y-10195356D01*
X6259856Y-10703356D02*
X6259856Y-10632644D01*
X6189144Y-10632644D01*
X6189144Y-10703356D01*
X6259856Y-10703356D01*
X6259856Y-10957356D02*
X6259856Y-10886644D01*
X6189144Y-10886644D01*
X6189144Y-10957356D01*
X6259856Y-10957356D01*
X6259856Y-11719356D02*
X6259856Y-11648644D01*
X6189144Y-11648644D01*
X6189144Y-11719356D01*
X6259856Y-11719356D01*
X6259856Y-11973356D02*
X6259856Y-11902644D01*
X6189144Y-11902644D01*
X6189144Y-11973356D01*
X6259856Y-11973356D01*
X6512356Y-10449356D02*
X6512356Y-10378644D01*
X6441644Y-10378644D01*
X6441644Y-10449356D01*
X6512356Y-10449356D01*
X6512356Y-11211356D02*
X6512356Y-11140644D01*
X6441644Y-11140644D01*
X6441644Y-11211356D01*
X6512356Y-11211356D01*
X6512356Y-11465356D02*
X6512356Y-11394644D01*
X6441644Y-11394644D01*
X6441644Y-11465356D01*
X6512356Y-11465356D01*
X6512356Y-12227356D02*
X6512356Y-12156644D01*
X6441644Y-12156644D01*
X6441644Y-12227356D01*
X6512356Y-12227356D01*
X6513856Y-10195356D02*
X6513856Y-10124644D01*
X6443144Y-10124644D01*
X6443144Y-10195356D01*
X6513856Y-10195356D01*
X6513856Y-10703356D02*
X6513856Y-10632644D01*
X6443144Y-10632644D01*
X6443144Y-10703356D01*
X6513856Y-10703356D01*
X6513856Y-10957356D02*
X6513856Y-10886644D01*
X6443144Y-10886644D01*
X6443144Y-10957356D01*
X6513856Y-10957356D01*
X6513856Y-11719356D02*
X6513856Y-11648644D01*
X6443144Y-11648644D01*
X6443144Y-11719356D01*
X6513856Y-11719356D01*
X6513856Y-11973356D02*
X6513856Y-11902644D01*
X6443144Y-11902644D01*
X6443144Y-11973356D01*
X6513856Y-11973356D01*
X6766356Y-10449356D02*
X6766356Y-10378644D01*
X6695644Y-10378644D01*
X6695644Y-10449356D01*
X6766356Y-10449356D01*
X6766356Y-11211356D02*
X6766356Y-11140644D01*
X6695644Y-11140644D01*
X6695644Y-11211356D01*
X6766356Y-11211356D01*
X6766356Y-11465356D02*
X6766356Y-11394644D01*
X6695644Y-11394644D01*
X6695644Y-11465356D01*
X6766356Y-11465356D01*
X6766356Y-12227356D02*
X6766356Y-12156644D01*
X6695644Y-12156644D01*
X6695644Y-12227356D01*
X6766356Y-12227356D01*
X6767856Y-10195356D02*
X6767856Y-10124644D01*
X6697144Y-10124644D01*
X6697144Y-10195356D01*
X6767856Y-10195356D01*
X6767856Y-10703356D02*
X6767856Y-10632644D01*
X6697144Y-10632644D01*
X6697144Y-10703356D01*
X6767856Y-10703356D01*
X6767856Y-10957356D02*
X6767856Y-10886644D01*
X6697144Y-10886644D01*
X6697144Y-10957356D01*
X6767856Y-10957356D01*
X6767856Y-11719356D02*
X6767856Y-11648644D01*
X6697144Y-11648644D01*
X6697144Y-11719356D01*
X6767856Y-11719356D01*
X6767856Y-11973356D02*
X6767856Y-11902644D01*
X6697144Y-11902644D01*
X6697144Y-11973356D01*
X6767856Y-11973356D01*
X6981656Y-12741356D02*
X6981656Y-12670644D01*
X6910944Y-12670644D01*
X6910944Y-12741356D01*
X6981656Y-12741356D01*
X6994956Y-7909356D02*
X6994956Y-7838644D01*
X6924244Y-7838644D01*
X6924244Y-7909356D01*
X6994956Y-7909356D01*
X7235656Y-12741356D02*
X7235656Y-12670644D01*
X7164944Y-12670644D01*
X7164944Y-12741356D01*
X7235656Y-12741356D01*
X7248956Y-7909356D02*
X7248956Y-7838644D01*
X7178244Y-7838644D01*
X7178244Y-7909356D01*
X7248956Y-7909356D01*
X7489656Y-12741356D02*
X7489656Y-12670644D01*
X7418944Y-12670644D01*
X7418944Y-12741356D01*
X7489656Y-12741356D01*
X7502956Y-7909356D02*
X7502956Y-7838644D01*
X7432244Y-7838644D01*
X7432244Y-7909356D01*
X7502956Y-7909356D01*
X7756956Y-7909356D02*
X7756956Y-7838644D01*
X7686244Y-7838644D01*
X7686244Y-7909356D01*
X7756956Y-7909356D01*
X7909356Y-12735356D02*
X7909356Y-12664644D01*
X7838644Y-12664644D01*
X7838644Y-12735356D01*
X7909356Y-12735356D01*
X8010956Y-7909356D02*
X8010956Y-7838644D01*
X7940244Y-7838644D01*
X7940244Y-7909356D01*
X8010956Y-7909356D01*
X8163356Y-12735356D02*
X8163356Y-12664644D01*
X8092644Y-12664644D01*
X8092644Y-12735356D01*
X8163356Y-12735356D01*
X8264956Y-7909356D02*
X8264956Y-7838644D01*
X8194244Y-7838644D01*
X8194244Y-7909356D01*
X8264956Y-7909356D01*
X8417356Y-12735356D02*
X8417356Y-12664644D01*
X8346644Y-12664644D01*
X8346644Y-12735356D01*
X8417356Y-12735356D01*
X8518956Y-7909356D02*
X8518956Y-7838644D01*
X8448244Y-7838644D01*
X8448244Y-7909356D01*
X8518956Y-7909356D01*
X8671356Y-12735356D02*
X8671356Y-12664644D01*
X8600644Y-12664644D01*
X8600644Y-12735356D01*
X8671356Y-12735356D01*
X8772956Y-7909356D02*
X8772956Y-7838644D01*
X8702244Y-7838644D01*
X8702244Y-7909356D01*
X8772956Y-7909356D01*
X8925356Y-12735356D02*
X8925356Y-12664644D01*
X8854644Y-12664644D01*
X8854644Y-12735356D01*
X8925356Y-12735356D01*
X9026956Y-7909356D02*
X9026956Y-7838644D01*
X8956244Y-7838644D01*
X8956244Y-7909356D01*
X9026956Y-7909356D01*
X9179356Y-12735356D02*
X9179356Y-12664644D01*
X9108644Y-12664644D01*
X9108644Y-12735356D01*
X9179356Y-12735356D01*
X9280956Y-7909356D02*
X9280956Y-7838644D01*
X9210244Y-7838644D01*
X9210244Y-7909356D01*
X9280956Y-7909356D01*
X9433356Y-12735356D02*
X9433356Y-12664644D01*
X9362644Y-12664644D01*
X9362644Y-12735356D01*
X9433356Y-12735356D01*
X9687356Y-7909356D02*
X9687356Y-7838644D01*
X9616644Y-7838644D01*
X9616644Y-7909356D01*
X9687356Y-7909356D01*
X9687356Y-12735356D02*
X9687356Y-12664644D01*
X9616644Y-12664644D01*
X9616644Y-12735356D01*
X9687356Y-12735356D01*
X9941356Y-7909356D02*
X9941356Y-7838644D01*
X9870644Y-7838644D01*
X9870644Y-7909356D01*
X9941356Y-7909356D01*
X10195356Y-7909356D02*
X10195356Y-7838644D01*
X10124644Y-7838644D01*
X10124644Y-7909356D01*
X10195356Y-7909356D01*
X10195356Y-12735356D02*
X10195356Y-12664644D01*
X10124644Y-12664644D01*
X10124644Y-12735356D01*
X10195356Y-12735356D01*
X10449356Y-7909356D02*
X10449356Y-7838644D01*
X10378644Y-7838644D01*
X10378644Y-7909356D01*
X10449356Y-7909356D01*
X10449356Y-12735356D02*
X10449356Y-12664644D01*
X10378644Y-12664644D01*
X10378644Y-12735356D01*
X10449356Y-12735356D01*
X10703356Y-7909356D02*
X10703356Y-7838644D01*
X10632644Y-7838644D01*
X10632644Y-7909356D01*
X10703356Y-7909356D01*
X10703356Y-12735356D02*
X10703356Y-12664644D01*
X10632644Y-12664644D01*
X10632644Y-12735356D01*
X10703356Y-12735356D01*
X10957356Y-7909356D02*
X10957356Y-7838644D01*
X10886644Y-7838644D01*
X10886644Y-7909356D01*
X10957356Y-7909356D01*
X10957356Y-12735356D02*
X10957356Y-12664644D01*
X10886644Y-12664644D01*
X10886644Y-12735356D01*
X10957356Y-12735356D01*
X11211356Y-7909356D02*
X11211356Y-7838644D01*
X11140644Y-7838644D01*
X11140644Y-7909356D01*
X11211356Y-7909356D01*
X11211356Y-12735356D02*
X11211356Y-12664644D01*
X11140644Y-12664644D01*
X11140644Y-12735356D01*
X11211356Y-12735356D01*
X11214156Y-8423356D02*
X11214156Y-8352644D01*
X11143444Y-8352644D01*
X11143444Y-8423356D01*
X11214156Y-8423356D01*
X11214156Y-8677356D02*
X11214156Y-8606644D01*
X11143444Y-8606644D01*
X11143444Y-8677356D01*
X11214156Y-8677356D01*
X11214156Y-8931356D02*
X11214156Y-8860644D01*
X11143444Y-8860644D01*
X11143444Y-8931356D01*
X11214156Y-8931356D01*
X11214156Y-9947356D02*
X11214156Y-9876644D01*
X11143444Y-9876644D01*
X11143444Y-9947356D01*
X11214156Y-9947356D01*
X11214156Y-10201356D02*
X11214156Y-10130644D01*
X11143444Y-10130644D01*
X11143444Y-10201356D01*
X11214156Y-10201356D01*
X11214156Y-10455356D02*
X11214156Y-10384644D01*
X11143444Y-10384644D01*
X11143444Y-10455356D01*
X11214156Y-10455356D01*
X11214156Y-10709356D02*
X11214156Y-10638644D01*
X11143444Y-10638644D01*
X11143444Y-10709356D01*
X11214156Y-10709356D01*
X11214156Y-10963356D02*
X11214156Y-10892644D01*
X11143444Y-10892644D01*
X11143444Y-10963356D01*
X11214156Y-10963356D01*
X11214156Y-11217356D02*
X11214156Y-11146644D01*
X11143444Y-11146644D01*
X11143444Y-11217356D01*
X11214156Y-11217356D01*
X11214156Y-11471356D02*
X11214156Y-11400644D01*
X11143444Y-11400644D01*
X11143444Y-11471356D01*
X11214156Y-11471356D01*
X11214156Y-11725356D02*
X11214156Y-11654644D01*
X11143444Y-11654644D01*
X11143444Y-11725356D01*
X11214156Y-11725356D01*
X11465356Y-7909356D02*
X11465356Y-7838644D01*
X11394644Y-7838644D01*
X11394644Y-7909356D01*
X11465356Y-7909356D01*
X11465356Y-12735356D02*
X11465356Y-12664644D01*
X11394644Y-12664644D01*
X11394644Y-12735356D01*
X11465356Y-12735356D01*
X11468156Y-8423356D02*
X11468156Y-8352644D01*
X11397444Y-8352644D01*
X11397444Y-8423356D01*
X11468156Y-8423356D01*
X11468156Y-8677356D02*
X11468156Y-8606644D01*
X11397444Y-8606644D01*
X11397444Y-8677356D01*
X11468156Y-8677356D01*
X11468156Y-8931356D02*
X11468156Y-8860644D01*
X11397444Y-8860644D01*
X11397444Y-8931356D01*
X11468156Y-8931356D01*
X11468156Y-9947356D02*
X11468156Y-9876644D01*
X11397444Y-9876644D01*
X11397444Y-9947356D01*
X11468156Y-9947356D01*
X11468156Y-10201356D02*
X11468156Y-10130644D01*
X11397444Y-10130644D01*
X11397444Y-10201356D01*
X11468156Y-10201356D01*
X11468156Y-10455356D02*
X11468156Y-10384644D01*
X11397444Y-10384644D01*
X11397444Y-10455356D01*
X11468156Y-10455356D01*
X11468156Y-10709356D02*
X11468156Y-10638644D01*
X11397444Y-10638644D01*
X11397444Y-10709356D01*
X11468156Y-10709356D01*
X11468156Y-10963356D02*
X11468156Y-10892644D01*
X11397444Y-10892644D01*
X11397444Y-10963356D01*
X11468156Y-10963356D01*
X11468156Y-11217356D02*
X11468156Y-11146644D01*
X11397444Y-11146644D01*
X11397444Y-11217356D01*
X11468156Y-11217356D01*
X11468156Y-11471356D02*
X11468156Y-11400644D01*
X11397444Y-11400644D01*
X11397444Y-11471356D01*
X11468156Y-11471356D01*
X11468156Y-11725356D02*
X11468156Y-11654644D01*
X11397444Y-11654644D01*
X11397444Y-11725356D01*
X11468156Y-11725356D01*
X11722156Y-8423356D02*
X11722156Y-8352644D01*
X11651444Y-8352644D01*
X11651444Y-8423356D01*
X11722156Y-8423356D01*
X11722156Y-8677356D02*
X11722156Y-8606644D01*
X11651444Y-8606644D01*
X11651444Y-8677356D01*
X11722156Y-8677356D01*
X11722156Y-8931356D02*
X11722156Y-8860644D01*
X11651444Y-8860644D01*
X11651444Y-8931356D01*
X11722156Y-8931356D01*
X11722156Y-9947356D02*
X11722156Y-9876644D01*
X11651444Y-9876644D01*
X11651444Y-9947356D01*
X11722156Y-9947356D01*
X11722156Y-10201356D02*
X11722156Y-10130644D01*
X11651444Y-10130644D01*
X11651444Y-10201356D01*
X11722156Y-10201356D01*
X11722156Y-10455356D02*
X11722156Y-10384644D01*
X11651444Y-10384644D01*
X11651444Y-10455356D01*
X11722156Y-10455356D01*
X11722156Y-10709356D02*
X11722156Y-10638644D01*
X11651444Y-10638644D01*
X11651444Y-10709356D01*
X11722156Y-10709356D01*
X11722156Y-10963356D02*
X11722156Y-10892644D01*
X11651444Y-10892644D01*
X11651444Y-10963356D01*
X11722156Y-10963356D01*
X11722156Y-11217356D02*
X11722156Y-11146644D01*
X11651444Y-11146644D01*
X11651444Y-11217356D01*
X11722156Y-11217356D01*
X11722156Y-11471356D02*
X11722156Y-11400644D01*
X11651444Y-11400644D01*
X11651444Y-11471356D01*
X11722156Y-11471356D01*
X11722156Y-11725356D02*
X11722156Y-11654644D01*
X11651444Y-11654644D01*
X11651444Y-11725356D01*
X11722156Y-11725356D01*
D16*
X6477000Y-12860000D02*
X6637000Y-12700000D01*
X6477000Y-12540000D01*
X6317000Y-12700000D01*
X6477000Y-12860000D01*
X6604000Y-8034000D02*
X6764000Y-7874000D01*
X6604000Y-7714000D01*
X6444000Y-7874000D01*
X6604000Y-8034000D01*
X11684000Y-9558000D02*
X11844000Y-9398000D01*
X11684000Y-9238000D01*
X11524000Y-9398000D01*
X11684000Y-9558000D01*
X11684000Y-12352000D02*
X11844000Y-12192000D01*
X11684000Y-12032000D01*
X11524000Y-12192000D01*
X11684000Y-12352000D01*
D11*
X6272619Y-13260976D02*
X6272619Y-13060976D01*
X6272619Y-13060976D02*
X6320238Y-13060976D01*
X6320238Y-13060976D02*
X6348809Y-13070500D01*
X6348809Y-13070500D02*
X6367857Y-13089548D01*
X6367857Y-13089548D02*
X6377381Y-13108595D01*
X6377381Y-13108595D02*
X6386905Y-13146690D01*
X6386905Y-13146690D02*
X6386905Y-13175262D01*
X6386905Y-13175262D02*
X6377381Y-13213357D01*
X6377381Y-13213357D02*
X6367857Y-13232405D01*
X6367857Y-13232405D02*
X6348809Y-13251452D01*
X6348809Y-13251452D02*
X6320238Y-13260976D01*
X6320238Y-13260976D02*
X6272619Y-13260976D01*
X6472619Y-13260976D02*
X6472619Y-13127643D01*
X6472619Y-13165738D02*
X6482143Y-13146690D01*
X6482143Y-13146690D02*
X6491667Y-13137167D01*
X6491667Y-13137167D02*
X6510714Y-13127643D01*
X6510714Y-13127643D02*
X6529762Y-13127643D01*
X6596428Y-13260976D02*
X6596428Y-13127643D01*
X6596428Y-13060976D02*
X6586905Y-13070500D01*
X6586905Y-13070500D02*
X6596428Y-13080024D01*
X6596428Y-13080024D02*
X6605952Y-13070500D01*
X6605952Y-13070500D02*
X6596428Y-13060976D01*
X6596428Y-13060976D02*
X6596428Y-13080024D01*
X6720238Y-13260976D02*
X6701190Y-13251452D01*
X6701190Y-13251452D02*
X6691667Y-13232405D01*
X6691667Y-13232405D02*
X6691667Y-13060976D01*
X6825000Y-13260976D02*
X6805952Y-13251452D01*
X6805952Y-13251452D02*
X6796428Y-13232405D01*
X6796428Y-13232405D02*
X6796428Y-13060976D01*
X7021190Y-13260976D02*
X7021190Y-13060976D01*
X7021190Y-13060976D02*
X7087857Y-13203833D01*
X7087857Y-13203833D02*
X7154524Y-13060976D01*
X7154524Y-13060976D02*
X7154524Y-13260976D01*
X7335476Y-13260976D02*
X7335476Y-13156214D01*
X7335476Y-13156214D02*
X7325952Y-13137167D01*
X7325952Y-13137167D02*
X7306905Y-13127643D01*
X7306905Y-13127643D02*
X7268809Y-13127643D01*
X7268809Y-13127643D02*
X7249762Y-13137167D01*
X7335476Y-13251452D02*
X7316428Y-13260976D01*
X7316428Y-13260976D02*
X7268809Y-13260976D01*
X7268809Y-13260976D02*
X7249762Y-13251452D01*
X7249762Y-13251452D02*
X7240238Y-13232405D01*
X7240238Y-13232405D02*
X7240238Y-13213357D01*
X7240238Y-13213357D02*
X7249762Y-13194309D01*
X7249762Y-13194309D02*
X7268809Y-13184786D01*
X7268809Y-13184786D02*
X7316428Y-13184786D01*
X7316428Y-13184786D02*
X7335476Y-13175262D01*
X7430714Y-13127643D02*
X7430714Y-13327643D01*
X7430714Y-13137167D02*
X7449762Y-13127643D01*
X7449762Y-13127643D02*
X7487857Y-13127643D01*
X7487857Y-13127643D02*
X7506905Y-13137167D01*
X7506905Y-13137167D02*
X7516428Y-13146690D01*
X7516428Y-13146690D02*
X7525952Y-13165738D01*
X7525952Y-13165738D02*
X7525952Y-13222881D01*
X7525952Y-13222881D02*
X7516428Y-13241928D01*
X7516428Y-13241928D02*
X7506905Y-13251452D01*
X7506905Y-13251452D02*
X7487857Y-13260976D01*
X7487857Y-13260976D02*
X7449762Y-13260976D01*
X7449762Y-13260976D02*
X7430714Y-13251452D01*
X7611667Y-13241928D02*
X7621190Y-13251452D01*
X7621190Y-13251452D02*
X7611667Y-13260976D01*
X7611667Y-13260976D02*
X7602143Y-13251452D01*
X7602143Y-13251452D02*
X7611667Y-13241928D01*
X7611667Y-13241928D02*
X7611667Y-13260976D01*
X7611667Y-13137167D02*
X7621190Y-13146690D01*
X7621190Y-13146690D02*
X7611667Y-13156214D01*
X7611667Y-13156214D02*
X7602143Y-13146690D01*
X7602143Y-13146690D02*
X7611667Y-13137167D01*
X7611667Y-13137167D02*
X7611667Y-13156214D01*
D12*
X5985000Y-13587500D02*
X6025000Y-13627500D01*
X6025000Y-13587500D02*
X5985000Y-13627500D01*
D11*
X6310714Y-13480976D02*
X6329762Y-13480976D01*
X6329762Y-13480976D02*
X6348809Y-13490500D01*
X6348809Y-13490500D02*
X6358333Y-13500024D01*
X6358333Y-13500024D02*
X6367857Y-13519071D01*
X6367857Y-13519071D02*
X6377381Y-13557167D01*
X6377381Y-13557167D02*
X6377381Y-13604786D01*
X6377381Y-13604786D02*
X6367857Y-13642881D01*
X6367857Y-13642881D02*
X6358333Y-13661928D01*
X6358333Y-13661928D02*
X6348809Y-13671452D01*
X6348809Y-13671452D02*
X6329762Y-13680976D01*
X6329762Y-13680976D02*
X6310714Y-13680976D01*
X6310714Y-13680976D02*
X6291667Y-13671452D01*
X6291667Y-13671452D02*
X6282143Y-13661928D01*
X6282143Y-13661928D02*
X6272619Y-13642881D01*
X6272619Y-13642881D02*
X6263095Y-13604786D01*
X6263095Y-13604786D02*
X6263095Y-13557167D01*
X6263095Y-13557167D02*
X6272619Y-13519071D01*
X6272619Y-13519071D02*
X6282143Y-13500024D01*
X6282143Y-13500024D02*
X6291667Y-13490500D01*
X6291667Y-13490500D02*
X6310714Y-13480976D01*
X6463095Y-13661928D02*
X6472619Y-13671452D01*
X6472619Y-13671452D02*
X6463095Y-13680976D01*
X6463095Y-13680976D02*
X6453571Y-13671452D01*
X6453571Y-13671452D02*
X6463095Y-13661928D01*
X6463095Y-13661928D02*
X6463095Y-13680976D01*
X6644048Y-13547643D02*
X6644048Y-13680976D01*
X6596428Y-13471452D02*
X6548809Y-13614309D01*
X6548809Y-13614309D02*
X6672619Y-13614309D01*
X6786905Y-13480976D02*
X6805952Y-13480976D01*
X6805952Y-13480976D02*
X6825000Y-13490500D01*
X6825000Y-13490500D02*
X6834524Y-13500024D01*
X6834524Y-13500024D02*
X6844048Y-13519071D01*
X6844048Y-13519071D02*
X6853571Y-13557167D01*
X6853571Y-13557167D02*
X6853571Y-13604786D01*
X6853571Y-13604786D02*
X6844048Y-13642881D01*
X6844048Y-13642881D02*
X6834524Y-13661928D01*
X6834524Y-13661928D02*
X6825000Y-13671452D01*
X6825000Y-13671452D02*
X6805952Y-13680976D01*
X6805952Y-13680976D02*
X6786905Y-13680976D01*
X6786905Y-13680976D02*
X6767857Y-13671452D01*
X6767857Y-13671452D02*
X6758333Y-13661928D01*
X6758333Y-13661928D02*
X6748809Y-13642881D01*
X6748809Y-13642881D02*
X6739286Y-13604786D01*
X6739286Y-13604786D02*
X6739286Y-13557167D01*
X6739286Y-13557167D02*
X6748809Y-13519071D01*
X6748809Y-13519071D02*
X6758333Y-13500024D01*
X6758333Y-13500024D02*
X6767857Y-13490500D01*
X6767857Y-13490500D02*
X6786905Y-13480976D01*
X6977381Y-13480976D02*
X6996429Y-13480976D01*
X6996429Y-13480976D02*
X7015476Y-13490500D01*
X7015476Y-13490500D02*
X7025000Y-13500024D01*
X7025000Y-13500024D02*
X7034524Y-13519071D01*
X7034524Y-13519071D02*
X7044048Y-13557167D01*
X7044048Y-13557167D02*
X7044048Y-13604786D01*
X7044048Y-13604786D02*
X7034524Y-13642881D01*
X7034524Y-13642881D02*
X7025000Y-13661928D01*
X7025000Y-13661928D02*
X7015476Y-13671452D01*
X7015476Y-13671452D02*
X6996429Y-13680976D01*
X6996429Y-13680976D02*
X6977381Y-13680976D01*
X6977381Y-13680976D02*
X6958333Y-13671452D01*
X6958333Y-13671452D02*
X6948809Y-13661928D01*
X6948809Y-13661928D02*
X6939286Y-13642881D01*
X6939286Y-13642881D02*
X6929762Y-13604786D01*
X6929762Y-13604786D02*
X6929762Y-13557167D01*
X6929762Y-13557167D02*
X6939286Y-13519071D01*
X6939286Y-13519071D02*
X6948809Y-13500024D01*
X6948809Y-13500024D02*
X6958333Y-13490500D01*
X6958333Y-13490500D02*
X6977381Y-13480976D01*
X7129762Y-13680976D02*
X7129762Y-13547643D01*
X7129762Y-13566690D02*
X7139286Y-13557167D01*
X7139286Y-13557167D02*
X7158333Y-13547643D01*
X7158333Y-13547643D02*
X7186905Y-13547643D01*
X7186905Y-13547643D02*
X7205952Y-13557167D01*
X7205952Y-13557167D02*
X7215476Y-13576214D01*
X7215476Y-13576214D02*
X7215476Y-13680976D01*
X7215476Y-13576214D02*
X7225000Y-13557167D01*
X7225000Y-13557167D02*
X7244048Y-13547643D01*
X7244048Y-13547643D02*
X7272619Y-13547643D01*
X7272619Y-13547643D02*
X7291667Y-13557167D01*
X7291667Y-13557167D02*
X7301190Y-13576214D01*
X7301190Y-13576214D02*
X7301190Y-13680976D01*
X7396429Y-13680976D02*
X7396429Y-13547643D01*
X7396429Y-13566690D02*
X7405952Y-13557167D01*
X7405952Y-13557167D02*
X7425000Y-13547643D01*
X7425000Y-13547643D02*
X7453571Y-13547643D01*
X7453571Y-13547643D02*
X7472619Y-13557167D01*
X7472619Y-13557167D02*
X7482143Y-13576214D01*
X7482143Y-13576214D02*
X7482143Y-13680976D01*
X7482143Y-13576214D02*
X7491667Y-13557167D01*
X7491667Y-13557167D02*
X7510714Y-13547643D01*
X7510714Y-13547643D02*
X7539286Y-13547643D01*
X7539286Y-13547643D02*
X7558333Y-13557167D01*
X7558333Y-13557167D02*
X7567857Y-13576214D01*
X7567857Y-13576214D02*
X7567857Y-13680976D01*
X7925952Y-13471452D02*
X7754524Y-13728595D01*
X8150714Y-13480976D02*
X8169762Y-13480976D01*
X8169762Y-13480976D02*
X8188810Y-13490500D01*
X8188810Y-13490500D02*
X8198333Y-13500024D01*
X8198333Y-13500024D02*
X8207857Y-13519071D01*
X8207857Y-13519071D02*
X8217381Y-13557167D01*
X8217381Y-13557167D02*
X8217381Y-13604786D01*
X8217381Y-13604786D02*
X8207857Y-13642881D01*
X8207857Y-13642881D02*
X8198333Y-13661928D01*
X8198333Y-13661928D02*
X8188810Y-13671452D01*
X8188810Y-13671452D02*
X8169762Y-13680976D01*
X8169762Y-13680976D02*
X8150714Y-13680976D01*
X8150714Y-13680976D02*
X8131667Y-13671452D01*
X8131667Y-13671452D02*
X8122143Y-13661928D01*
X8122143Y-13661928D02*
X8112619Y-13642881D01*
X8112619Y-13642881D02*
X8103095Y-13604786D01*
X8103095Y-13604786D02*
X8103095Y-13557167D01*
X8103095Y-13557167D02*
X8112619Y-13519071D01*
X8112619Y-13519071D02*
X8122143Y-13500024D01*
X8122143Y-13500024D02*
X8131667Y-13490500D01*
X8131667Y-13490500D02*
X8150714Y-13480976D01*
X8303095Y-13661928D02*
X8312619Y-13671452D01*
X8312619Y-13671452D02*
X8303095Y-13680976D01*
X8303095Y-13680976D02*
X8293571Y-13671452D01*
X8293571Y-13671452D02*
X8303095Y-13661928D01*
X8303095Y-13661928D02*
X8303095Y-13680976D01*
X8436429Y-13480976D02*
X8455476Y-13480976D01*
X8455476Y-13480976D02*
X8474524Y-13490500D01*
X8474524Y-13490500D02*
X8484048Y-13500024D01*
X8484048Y-13500024D02*
X8493572Y-13519071D01*
X8493572Y-13519071D02*
X8503095Y-13557167D01*
X8503095Y-13557167D02*
X8503095Y-13604786D01*
X8503095Y-13604786D02*
X8493572Y-13642881D01*
X8493572Y-13642881D02*
X8484048Y-13661928D01*
X8484048Y-13661928D02*
X8474524Y-13671452D01*
X8474524Y-13671452D02*
X8455476Y-13680976D01*
X8455476Y-13680976D02*
X8436429Y-13680976D01*
X8436429Y-13680976D02*
X8417381Y-13671452D01*
X8417381Y-13671452D02*
X8407857Y-13661928D01*
X8407857Y-13661928D02*
X8398333Y-13642881D01*
X8398333Y-13642881D02*
X8388810Y-13604786D01*
X8388810Y-13604786D02*
X8388810Y-13557167D01*
X8388810Y-13557167D02*
X8398333Y-13519071D01*
X8398333Y-13519071D02*
X8407857Y-13500024D01*
X8407857Y-13500024D02*
X8417381Y-13490500D01*
X8417381Y-13490500D02*
X8436429Y-13480976D01*
X8693572Y-13680976D02*
X8579286Y-13680976D01*
X8636429Y-13680976D02*
X8636429Y-13480976D01*
X8636429Y-13480976D02*
X8617381Y-13509548D01*
X8617381Y-13509548D02*
X8598333Y-13528595D01*
X8598333Y-13528595D02*
X8579286Y-13538119D01*
X8874524Y-13480976D02*
X8779286Y-13480976D01*
X8779286Y-13480976D02*
X8769762Y-13576214D01*
X8769762Y-13576214D02*
X8779286Y-13566690D01*
X8779286Y-13566690D02*
X8798333Y-13557167D01*
X8798333Y-13557167D02*
X8845953Y-13557167D01*
X8845953Y-13557167D02*
X8865000Y-13566690D01*
X8865000Y-13566690D02*
X8874524Y-13576214D01*
X8874524Y-13576214D02*
X8884048Y-13595262D01*
X8884048Y-13595262D02*
X8884048Y-13642881D01*
X8884048Y-13642881D02*
X8874524Y-13661928D01*
X8874524Y-13661928D02*
X8865000Y-13671452D01*
X8865000Y-13671452D02*
X8845953Y-13680976D01*
X8845953Y-13680976D02*
X8798333Y-13680976D01*
X8798333Y-13680976D02*
X8779286Y-13671452D01*
X8779286Y-13671452D02*
X8769762Y-13661928D01*
X8950714Y-13480976D02*
X9084048Y-13480976D01*
X9084048Y-13480976D02*
X8998333Y-13680976D01*
X9150714Y-13480976D02*
X9150714Y-13519071D01*
X9226905Y-13480976D02*
X9226905Y-13519071D01*
X9489762Y-13757167D02*
X9480238Y-13747643D01*
X9480238Y-13747643D02*
X9461191Y-13719071D01*
X9461191Y-13719071D02*
X9451667Y-13700024D01*
X9451667Y-13700024D02*
X9442143Y-13671452D01*
X9442143Y-13671452D02*
X9432619Y-13623833D01*
X9432619Y-13623833D02*
X9432619Y-13585738D01*
X9432619Y-13585738D02*
X9442143Y-13538119D01*
X9442143Y-13538119D02*
X9451667Y-13509548D01*
X9451667Y-13509548D02*
X9461191Y-13490500D01*
X9461191Y-13490500D02*
X9480238Y-13461928D01*
X9480238Y-13461928D02*
X9489762Y-13452405D01*
X9651667Y-13480976D02*
X9613572Y-13480976D01*
X9613572Y-13480976D02*
X9594524Y-13490500D01*
X9594524Y-13490500D02*
X9585000Y-13500024D01*
X9585000Y-13500024D02*
X9565953Y-13528595D01*
X9565953Y-13528595D02*
X9556429Y-13566690D01*
X9556429Y-13566690D02*
X9556429Y-13642881D01*
X9556429Y-13642881D02*
X9565953Y-13661928D01*
X9565953Y-13661928D02*
X9575476Y-13671452D01*
X9575476Y-13671452D02*
X9594524Y-13680976D01*
X9594524Y-13680976D02*
X9632619Y-13680976D01*
X9632619Y-13680976D02*
X9651667Y-13671452D01*
X9651667Y-13671452D02*
X9661191Y-13661928D01*
X9661191Y-13661928D02*
X9670714Y-13642881D01*
X9670714Y-13642881D02*
X9670714Y-13595262D01*
X9670714Y-13595262D02*
X9661191Y-13576214D01*
X9661191Y-13576214D02*
X9651667Y-13566690D01*
X9651667Y-13566690D02*
X9632619Y-13557167D01*
X9632619Y-13557167D02*
X9594524Y-13557167D01*
X9594524Y-13557167D02*
X9575476Y-13566690D01*
X9575476Y-13566690D02*
X9565953Y-13576214D01*
X9565953Y-13576214D02*
X9556429Y-13595262D01*
X9746905Y-13500024D02*
X9756429Y-13490500D01*
X9756429Y-13490500D02*
X9775476Y-13480976D01*
X9775476Y-13480976D02*
X9823095Y-13480976D01*
X9823095Y-13480976D02*
X9842143Y-13490500D01*
X9842143Y-13490500D02*
X9851667Y-13500024D01*
X9851667Y-13500024D02*
X9861191Y-13519071D01*
X9861191Y-13519071D02*
X9861191Y-13538119D01*
X9861191Y-13538119D02*
X9851667Y-13566690D01*
X9851667Y-13566690D02*
X9737381Y-13680976D01*
X9737381Y-13680976D02*
X9861191Y-13680976D01*
X10066905Y-13680976D02*
X10066905Y-13480976D01*
X10152619Y-13680976D02*
X10152619Y-13576214D01*
X10152619Y-13576214D02*
X10143095Y-13557167D01*
X10143095Y-13557167D02*
X10124048Y-13547643D01*
X10124048Y-13547643D02*
X10095476Y-13547643D01*
X10095476Y-13547643D02*
X10076429Y-13557167D01*
X10076429Y-13557167D02*
X10066905Y-13566690D01*
X10276429Y-13680976D02*
X10257381Y-13671452D01*
X10257381Y-13671452D02*
X10247857Y-13661928D01*
X10247857Y-13661928D02*
X10238334Y-13642881D01*
X10238334Y-13642881D02*
X10238334Y-13585738D01*
X10238334Y-13585738D02*
X10247857Y-13566690D01*
X10247857Y-13566690D02*
X10257381Y-13557167D01*
X10257381Y-13557167D02*
X10276429Y-13547643D01*
X10276429Y-13547643D02*
X10305000Y-13547643D01*
X10305000Y-13547643D02*
X10324048Y-13557167D01*
X10324048Y-13557167D02*
X10333572Y-13566690D01*
X10333572Y-13566690D02*
X10343095Y-13585738D01*
X10343095Y-13585738D02*
X10343095Y-13642881D01*
X10343095Y-13642881D02*
X10333572Y-13661928D01*
X10333572Y-13661928D02*
X10324048Y-13671452D01*
X10324048Y-13671452D02*
X10305000Y-13680976D01*
X10305000Y-13680976D02*
X10276429Y-13680976D01*
X10457381Y-13680976D02*
X10438334Y-13671452D01*
X10438334Y-13671452D02*
X10428810Y-13652405D01*
X10428810Y-13652405D02*
X10428810Y-13480976D01*
X10609762Y-13671452D02*
X10590715Y-13680976D01*
X10590715Y-13680976D02*
X10552619Y-13680976D01*
X10552619Y-13680976D02*
X10533572Y-13671452D01*
X10533572Y-13671452D02*
X10524048Y-13652405D01*
X10524048Y-13652405D02*
X10524048Y-13576214D01*
X10524048Y-13576214D02*
X10533572Y-13557167D01*
X10533572Y-13557167D02*
X10552619Y-13547643D01*
X10552619Y-13547643D02*
X10590715Y-13547643D01*
X10590715Y-13547643D02*
X10609762Y-13557167D01*
X10609762Y-13557167D02*
X10619286Y-13576214D01*
X10619286Y-13576214D02*
X10619286Y-13595262D01*
X10619286Y-13595262D02*
X10524048Y-13614309D01*
X10695476Y-13671452D02*
X10714524Y-13680976D01*
X10714524Y-13680976D02*
X10752619Y-13680976D01*
X10752619Y-13680976D02*
X10771667Y-13671452D01*
X10771667Y-13671452D02*
X10781191Y-13652405D01*
X10781191Y-13652405D02*
X10781191Y-13642881D01*
X10781191Y-13642881D02*
X10771667Y-13623833D01*
X10771667Y-13623833D02*
X10752619Y-13614309D01*
X10752619Y-13614309D02*
X10724048Y-13614309D01*
X10724048Y-13614309D02*
X10705000Y-13604786D01*
X10705000Y-13604786D02*
X10695476Y-13585738D01*
X10695476Y-13585738D02*
X10695476Y-13576214D01*
X10695476Y-13576214D02*
X10705000Y-13557167D01*
X10705000Y-13557167D02*
X10724048Y-13547643D01*
X10724048Y-13547643D02*
X10752619Y-13547643D01*
X10752619Y-13547643D02*
X10771667Y-13557167D01*
X10847857Y-13757167D02*
X10857381Y-13747643D01*
X10857381Y-13747643D02*
X10876429Y-13719071D01*
X10876429Y-13719071D02*
X10885953Y-13700024D01*
X10885953Y-13700024D02*
X10895476Y-13671452D01*
X10895476Y-13671452D02*
X10905000Y-13623833D01*
X10905000Y-13623833D02*
X10905000Y-13585738D01*
X10905000Y-13585738D02*
X10895476Y-13538119D01*
X10895476Y-13538119D02*
X10885953Y-13509548D01*
X10885953Y-13509548D02*
X10876429Y-13490500D01*
X10876429Y-13490500D02*
X10857381Y-13461928D01*
X10857381Y-13461928D02*
X10847857Y-13452405D01*
D13*
X6025000Y-13871500D02*
G75*
G03*
X6025000Y-13871500I-37500J0D01*
G01*
D11*
X6310714Y-13744976D02*
X6329762Y-13744976D01*
X6329762Y-13744976D02*
X6348809Y-13754500D01*
X6348809Y-13754500D02*
X6358333Y-13764024D01*
X6358333Y-13764024D02*
X6367857Y-13783071D01*
X6367857Y-13783071D02*
X6377381Y-13821167D01*
X6377381Y-13821167D02*
X6377381Y-13868786D01*
X6377381Y-13868786D02*
X6367857Y-13906881D01*
X6367857Y-13906881D02*
X6358333Y-13925928D01*
X6358333Y-13925928D02*
X6348809Y-13935452D01*
X6348809Y-13935452D02*
X6329762Y-13944976D01*
X6329762Y-13944976D02*
X6310714Y-13944976D01*
X6310714Y-13944976D02*
X6291667Y-13935452D01*
X6291667Y-13935452D02*
X6282143Y-13925928D01*
X6282143Y-13925928D02*
X6272619Y-13906881D01*
X6272619Y-13906881D02*
X6263095Y-13868786D01*
X6263095Y-13868786D02*
X6263095Y-13821167D01*
X6263095Y-13821167D02*
X6272619Y-13783071D01*
X6272619Y-13783071D02*
X6282143Y-13764024D01*
X6282143Y-13764024D02*
X6291667Y-13754500D01*
X6291667Y-13754500D02*
X6310714Y-13744976D01*
X6463095Y-13925928D02*
X6472619Y-13935452D01*
X6472619Y-13935452D02*
X6463095Y-13944976D01*
X6463095Y-13944976D02*
X6453571Y-13935452D01*
X6453571Y-13935452D02*
X6463095Y-13925928D01*
X6463095Y-13925928D02*
X6463095Y-13944976D01*
X6539286Y-13744976D02*
X6672619Y-13744976D01*
X6672619Y-13744976D02*
X6586905Y-13944976D01*
X6844048Y-13744976D02*
X6748809Y-13744976D01*
X6748809Y-13744976D02*
X6739286Y-13840214D01*
X6739286Y-13840214D02*
X6748809Y-13830690D01*
X6748809Y-13830690D02*
X6767857Y-13821167D01*
X6767857Y-13821167D02*
X6815476Y-13821167D01*
X6815476Y-13821167D02*
X6834524Y-13830690D01*
X6834524Y-13830690D02*
X6844048Y-13840214D01*
X6844048Y-13840214D02*
X6853571Y-13859262D01*
X6853571Y-13859262D02*
X6853571Y-13906881D01*
X6853571Y-13906881D02*
X6844048Y-13925928D01*
X6844048Y-13925928D02*
X6834524Y-13935452D01*
X6834524Y-13935452D02*
X6815476Y-13944976D01*
X6815476Y-13944976D02*
X6767857Y-13944976D01*
X6767857Y-13944976D02*
X6748809Y-13935452D01*
X6748809Y-13935452D02*
X6739286Y-13925928D01*
X6977381Y-13744976D02*
X6996429Y-13744976D01*
X6996429Y-13744976D02*
X7015476Y-13754500D01*
X7015476Y-13754500D02*
X7025000Y-13764024D01*
X7025000Y-13764024D02*
X7034524Y-13783071D01*
X7034524Y-13783071D02*
X7044048Y-13821167D01*
X7044048Y-13821167D02*
X7044048Y-13868786D01*
X7044048Y-13868786D02*
X7034524Y-13906881D01*
X7034524Y-13906881D02*
X7025000Y-13925928D01*
X7025000Y-13925928D02*
X7015476Y-13935452D01*
X7015476Y-13935452D02*
X6996429Y-13944976D01*
X6996429Y-13944976D02*
X6977381Y-13944976D01*
X6977381Y-13944976D02*
X6958333Y-13935452D01*
X6958333Y-13935452D02*
X6948809Y-13925928D01*
X6948809Y-13925928D02*
X6939286Y-13906881D01*
X6939286Y-13906881D02*
X6929762Y-13868786D01*
X6929762Y-13868786D02*
X6929762Y-13821167D01*
X6929762Y-13821167D02*
X6939286Y-13783071D01*
X6939286Y-13783071D02*
X6948809Y-13764024D01*
X6948809Y-13764024D02*
X6958333Y-13754500D01*
X6958333Y-13754500D02*
X6977381Y-13744976D01*
X7129762Y-13944976D02*
X7129762Y-13811643D01*
X7129762Y-13830690D02*
X7139286Y-13821167D01*
X7139286Y-13821167D02*
X7158333Y-13811643D01*
X7158333Y-13811643D02*
X7186905Y-13811643D01*
X7186905Y-13811643D02*
X7205952Y-13821167D01*
X7205952Y-13821167D02*
X7215476Y-13840214D01*
X7215476Y-13840214D02*
X7215476Y-13944976D01*
X7215476Y-13840214D02*
X7225000Y-13821167D01*
X7225000Y-13821167D02*
X7244048Y-13811643D01*
X7244048Y-13811643D02*
X7272619Y-13811643D01*
X7272619Y-13811643D02*
X7291667Y-13821167D01*
X7291667Y-13821167D02*
X7301190Y-13840214D01*
X7301190Y-13840214D02*
X7301190Y-13944976D01*
X7396429Y-13944976D02*
X7396429Y-13811643D01*
X7396429Y-13830690D02*
X7405952Y-13821167D01*
X7405952Y-13821167D02*
X7425000Y-13811643D01*
X7425000Y-13811643D02*
X7453571Y-13811643D01*
X7453571Y-13811643D02*
X7472619Y-13821167D01*
X7472619Y-13821167D02*
X7482143Y-13840214D01*
X7482143Y-13840214D02*
X7482143Y-13944976D01*
X7482143Y-13840214D02*
X7491667Y-13821167D01*
X7491667Y-13821167D02*
X7510714Y-13811643D01*
X7510714Y-13811643D02*
X7539286Y-13811643D01*
X7539286Y-13811643D02*
X7558333Y-13821167D01*
X7558333Y-13821167D02*
X7567857Y-13840214D01*
X7567857Y-13840214D02*
X7567857Y-13944976D01*
X7925952Y-13735452D02*
X7754524Y-13992595D01*
X8150714Y-13744976D02*
X8169762Y-13744976D01*
X8169762Y-13744976D02*
X8188810Y-13754500D01*
X8188810Y-13754500D02*
X8198333Y-13764024D01*
X8198333Y-13764024D02*
X8207857Y-13783071D01*
X8207857Y-13783071D02*
X8217381Y-13821167D01*
X8217381Y-13821167D02*
X8217381Y-13868786D01*
X8217381Y-13868786D02*
X8207857Y-13906881D01*
X8207857Y-13906881D02*
X8198333Y-13925928D01*
X8198333Y-13925928D02*
X8188810Y-13935452D01*
X8188810Y-13935452D02*
X8169762Y-13944976D01*
X8169762Y-13944976D02*
X8150714Y-13944976D01*
X8150714Y-13944976D02*
X8131667Y-13935452D01*
X8131667Y-13935452D02*
X8122143Y-13925928D01*
X8122143Y-13925928D02*
X8112619Y-13906881D01*
X8112619Y-13906881D02*
X8103095Y-13868786D01*
X8103095Y-13868786D02*
X8103095Y-13821167D01*
X8103095Y-13821167D02*
X8112619Y-13783071D01*
X8112619Y-13783071D02*
X8122143Y-13764024D01*
X8122143Y-13764024D02*
X8131667Y-13754500D01*
X8131667Y-13754500D02*
X8150714Y-13744976D01*
X8303095Y-13925928D02*
X8312619Y-13935452D01*
X8312619Y-13935452D02*
X8303095Y-13944976D01*
X8303095Y-13944976D02*
X8293571Y-13935452D01*
X8293571Y-13935452D02*
X8303095Y-13925928D01*
X8303095Y-13925928D02*
X8303095Y-13944976D01*
X8436429Y-13744976D02*
X8455476Y-13744976D01*
X8455476Y-13744976D02*
X8474524Y-13754500D01*
X8474524Y-13754500D02*
X8484048Y-13764024D01*
X8484048Y-13764024D02*
X8493572Y-13783071D01*
X8493572Y-13783071D02*
X8503095Y-13821167D01*
X8503095Y-13821167D02*
X8503095Y-13868786D01*
X8503095Y-13868786D02*
X8493572Y-13906881D01*
X8493572Y-13906881D02*
X8484048Y-13925928D01*
X8484048Y-13925928D02*
X8474524Y-13935452D01*
X8474524Y-13935452D02*
X8455476Y-13944976D01*
X8455476Y-13944976D02*
X8436429Y-13944976D01*
X8436429Y-13944976D02*
X8417381Y-13935452D01*
X8417381Y-13935452D02*
X8407857Y-13925928D01*
X8407857Y-13925928D02*
X8398333Y-13906881D01*
X8398333Y-13906881D02*
X8388810Y-13868786D01*
X8388810Y-13868786D02*
X8388810Y-13821167D01*
X8388810Y-13821167D02*
X8398333Y-13783071D01*
X8398333Y-13783071D02*
X8407857Y-13764024D01*
X8407857Y-13764024D02*
X8417381Y-13754500D01*
X8417381Y-13754500D02*
X8436429Y-13744976D01*
X8579286Y-13764024D02*
X8588810Y-13754500D01*
X8588810Y-13754500D02*
X8607857Y-13744976D01*
X8607857Y-13744976D02*
X8655476Y-13744976D01*
X8655476Y-13744976D02*
X8674524Y-13754500D01*
X8674524Y-13754500D02*
X8684048Y-13764024D01*
X8684048Y-13764024D02*
X8693572Y-13783071D01*
X8693572Y-13783071D02*
X8693572Y-13802119D01*
X8693572Y-13802119D02*
X8684048Y-13830690D01*
X8684048Y-13830690D02*
X8569762Y-13944976D01*
X8569762Y-13944976D02*
X8693572Y-13944976D01*
X8788810Y-13944976D02*
X8826905Y-13944976D01*
X8826905Y-13944976D02*
X8845953Y-13935452D01*
X8845953Y-13935452D02*
X8855476Y-13925928D01*
X8855476Y-13925928D02*
X8874524Y-13897357D01*
X8874524Y-13897357D02*
X8884048Y-13859262D01*
X8884048Y-13859262D02*
X8884048Y-13783071D01*
X8884048Y-13783071D02*
X8874524Y-13764024D01*
X8874524Y-13764024D02*
X8865000Y-13754500D01*
X8865000Y-13754500D02*
X8845953Y-13744976D01*
X8845953Y-13744976D02*
X8807857Y-13744976D01*
X8807857Y-13744976D02*
X8788810Y-13754500D01*
X8788810Y-13754500D02*
X8779286Y-13764024D01*
X8779286Y-13764024D02*
X8769762Y-13783071D01*
X8769762Y-13783071D02*
X8769762Y-13830690D01*
X8769762Y-13830690D02*
X8779286Y-13849738D01*
X8779286Y-13849738D02*
X8788810Y-13859262D01*
X8788810Y-13859262D02*
X8807857Y-13868786D01*
X8807857Y-13868786D02*
X8845953Y-13868786D01*
X8845953Y-13868786D02*
X8865000Y-13859262D01*
X8865000Y-13859262D02*
X8874524Y-13849738D01*
X8874524Y-13849738D02*
X8884048Y-13830690D01*
X9065000Y-13744976D02*
X8969762Y-13744976D01*
X8969762Y-13744976D02*
X8960238Y-13840214D01*
X8960238Y-13840214D02*
X8969762Y-13830690D01*
X8969762Y-13830690D02*
X8988810Y-13821167D01*
X8988810Y-13821167D02*
X9036429Y-13821167D01*
X9036429Y-13821167D02*
X9055476Y-13830690D01*
X9055476Y-13830690D02*
X9065000Y-13840214D01*
X9065000Y-13840214D02*
X9074524Y-13859262D01*
X9074524Y-13859262D02*
X9074524Y-13906881D01*
X9074524Y-13906881D02*
X9065000Y-13925928D01*
X9065000Y-13925928D02*
X9055476Y-13935452D01*
X9055476Y-13935452D02*
X9036429Y-13944976D01*
X9036429Y-13944976D02*
X8988810Y-13944976D01*
X8988810Y-13944976D02*
X8969762Y-13935452D01*
X8969762Y-13935452D02*
X8960238Y-13925928D01*
X9150714Y-13744976D02*
X9150714Y-13783071D01*
X9226905Y-13744976D02*
X9226905Y-13783071D01*
X9489762Y-14021167D02*
X9480238Y-14011643D01*
X9480238Y-14011643D02*
X9461191Y-13983071D01*
X9461191Y-13983071D02*
X9451667Y-13964024D01*
X9451667Y-13964024D02*
X9442143Y-13935452D01*
X9442143Y-13935452D02*
X9432619Y-13887833D01*
X9432619Y-13887833D02*
X9432619Y-13849738D01*
X9432619Y-13849738D02*
X9442143Y-13802119D01*
X9442143Y-13802119D02*
X9451667Y-13773548D01*
X9451667Y-13773548D02*
X9461191Y-13754500D01*
X9461191Y-13754500D02*
X9480238Y-13725928D01*
X9480238Y-13725928D02*
X9489762Y-13716405D01*
X9651667Y-13811643D02*
X9651667Y-13944976D01*
X9604048Y-13735452D02*
X9556429Y-13878309D01*
X9556429Y-13878309D02*
X9680238Y-13878309D01*
X9876429Y-13944976D02*
X9876429Y-13744976D01*
X9962143Y-13944976D02*
X9962143Y-13840214D01*
X9962143Y-13840214D02*
X9952619Y-13821167D01*
X9952619Y-13821167D02*
X9933572Y-13811643D01*
X9933572Y-13811643D02*
X9905000Y-13811643D01*
X9905000Y-13811643D02*
X9885953Y-13821167D01*
X9885953Y-13821167D02*
X9876429Y-13830690D01*
X10085953Y-13944976D02*
X10066905Y-13935452D01*
X10066905Y-13935452D02*
X10057381Y-13925928D01*
X10057381Y-13925928D02*
X10047857Y-13906881D01*
X10047857Y-13906881D02*
X10047857Y-13849738D01*
X10047857Y-13849738D02*
X10057381Y-13830690D01*
X10057381Y-13830690D02*
X10066905Y-13821167D01*
X10066905Y-13821167D02*
X10085953Y-13811643D01*
X10085953Y-13811643D02*
X10114524Y-13811643D01*
X10114524Y-13811643D02*
X10133572Y-13821167D01*
X10133572Y-13821167D02*
X10143095Y-13830690D01*
X10143095Y-13830690D02*
X10152619Y-13849738D01*
X10152619Y-13849738D02*
X10152619Y-13906881D01*
X10152619Y-13906881D02*
X10143095Y-13925928D01*
X10143095Y-13925928D02*
X10133572Y-13935452D01*
X10133572Y-13935452D02*
X10114524Y-13944976D01*
X10114524Y-13944976D02*
X10085953Y-13944976D01*
X10266905Y-13944976D02*
X10247857Y-13935452D01*
X10247857Y-13935452D02*
X10238334Y-13916405D01*
X10238334Y-13916405D02*
X10238334Y-13744976D01*
X10419286Y-13935452D02*
X10400238Y-13944976D01*
X10400238Y-13944976D02*
X10362143Y-13944976D01*
X10362143Y-13944976D02*
X10343095Y-13935452D01*
X10343095Y-13935452D02*
X10333572Y-13916405D01*
X10333572Y-13916405D02*
X10333572Y-13840214D01*
X10333572Y-13840214D02*
X10343095Y-13821167D01*
X10343095Y-13821167D02*
X10362143Y-13811643D01*
X10362143Y-13811643D02*
X10400238Y-13811643D01*
X10400238Y-13811643D02*
X10419286Y-13821167D01*
X10419286Y-13821167D02*
X10428810Y-13840214D01*
X10428810Y-13840214D02*
X10428810Y-13859262D01*
X10428810Y-13859262D02*
X10333572Y-13878309D01*
X10505000Y-13935452D02*
X10524048Y-13944976D01*
X10524048Y-13944976D02*
X10562143Y-13944976D01*
X10562143Y-13944976D02*
X10581191Y-13935452D01*
X10581191Y-13935452D02*
X10590715Y-13916405D01*
X10590715Y-13916405D02*
X10590715Y-13906881D01*
X10590715Y-13906881D02*
X10581191Y-13887833D01*
X10581191Y-13887833D02*
X10562143Y-13878309D01*
X10562143Y-13878309D02*
X10533572Y-13878309D01*
X10533572Y-13878309D02*
X10514524Y-13868786D01*
X10514524Y-13868786D02*
X10505000Y-13849738D01*
X10505000Y-13849738D02*
X10505000Y-13840214D01*
X10505000Y-13840214D02*
X10514524Y-13821167D01*
X10514524Y-13821167D02*
X10533572Y-13811643D01*
X10533572Y-13811643D02*
X10562143Y-13811643D01*
X10562143Y-13811643D02*
X10581191Y-13821167D01*
X10657381Y-14021167D02*
X10666905Y-14011643D01*
X10666905Y-14011643D02*
X10685953Y-13983071D01*
X10685953Y-13983071D02*
X10695476Y-13964024D01*
X10695476Y-13964024D02*
X10705000Y-13935452D01*
X10705000Y-13935452D02*
X10714524Y-13887833D01*
X10714524Y-13887833D02*
X10714524Y-13849738D01*
X10714524Y-13849738D02*
X10705000Y-13802119D01*
X10705000Y-13802119D02*
X10695476Y-13773548D01*
X10695476Y-13773548D02*
X10685953Y-13754500D01*
X10685953Y-13754500D02*
X10666905Y-13725928D01*
X10666905Y-13725928D02*
X10657381Y-13716405D01*
D14*
X5985000Y-14095500D02*
X5985000Y-14175500D01*
X5945000Y-14135500D02*
X6025000Y-14135500D01*
D11*
X6310714Y-14008976D02*
X6329762Y-14008976D01*
X6329762Y-14008976D02*
X6348809Y-14018500D01*
X6348809Y-14018500D02*
X6358333Y-14028024D01*
X6358333Y-14028024D02*
X6367857Y-14047071D01*
X6367857Y-14047071D02*
X6377381Y-14085167D01*
X6377381Y-14085167D02*
X6377381Y-14132786D01*
X6377381Y-14132786D02*
X6367857Y-14170881D01*
X6367857Y-14170881D02*
X6358333Y-14189928D01*
X6358333Y-14189928D02*
X6348809Y-14199452D01*
X6348809Y-14199452D02*
X6329762Y-14208976D01*
X6329762Y-14208976D02*
X6310714Y-14208976D01*
X6310714Y-14208976D02*
X6291667Y-14199452D01*
X6291667Y-14199452D02*
X6282143Y-14189928D01*
X6282143Y-14189928D02*
X6272619Y-14170881D01*
X6272619Y-14170881D02*
X6263095Y-14132786D01*
X6263095Y-14132786D02*
X6263095Y-14085167D01*
X6263095Y-14085167D02*
X6272619Y-14047071D01*
X6272619Y-14047071D02*
X6282143Y-14028024D01*
X6282143Y-14028024D02*
X6291667Y-14018500D01*
X6291667Y-14018500D02*
X6310714Y-14008976D01*
X6463095Y-14189928D02*
X6472619Y-14199452D01*
X6472619Y-14199452D02*
X6463095Y-14208976D01*
X6463095Y-14208976D02*
X6453571Y-14199452D01*
X6453571Y-14199452D02*
X6463095Y-14189928D01*
X6463095Y-14189928D02*
X6463095Y-14208976D01*
X6586905Y-14094690D02*
X6567857Y-14085167D01*
X6567857Y-14085167D02*
X6558333Y-14075643D01*
X6558333Y-14075643D02*
X6548809Y-14056595D01*
X6548809Y-14056595D02*
X6548809Y-14047071D01*
X6548809Y-14047071D02*
X6558333Y-14028024D01*
X6558333Y-14028024D02*
X6567857Y-14018500D01*
X6567857Y-14018500D02*
X6586905Y-14008976D01*
X6586905Y-14008976D02*
X6625000Y-14008976D01*
X6625000Y-14008976D02*
X6644048Y-14018500D01*
X6644048Y-14018500D02*
X6653571Y-14028024D01*
X6653571Y-14028024D02*
X6663095Y-14047071D01*
X6663095Y-14047071D02*
X6663095Y-14056595D01*
X6663095Y-14056595D02*
X6653571Y-14075643D01*
X6653571Y-14075643D02*
X6644048Y-14085167D01*
X6644048Y-14085167D02*
X6625000Y-14094690D01*
X6625000Y-14094690D02*
X6586905Y-14094690D01*
X6586905Y-14094690D02*
X6567857Y-14104214D01*
X6567857Y-14104214D02*
X6558333Y-14113738D01*
X6558333Y-14113738D02*
X6548809Y-14132786D01*
X6548809Y-14132786D02*
X6548809Y-14170881D01*
X6548809Y-14170881D02*
X6558333Y-14189928D01*
X6558333Y-14189928D02*
X6567857Y-14199452D01*
X6567857Y-14199452D02*
X6586905Y-14208976D01*
X6586905Y-14208976D02*
X6625000Y-14208976D01*
X6625000Y-14208976D02*
X6644048Y-14199452D01*
X6644048Y-14199452D02*
X6653571Y-14189928D01*
X6653571Y-14189928D02*
X6663095Y-14170881D01*
X6663095Y-14170881D02*
X6663095Y-14132786D01*
X6663095Y-14132786D02*
X6653571Y-14113738D01*
X6653571Y-14113738D02*
X6644048Y-14104214D01*
X6644048Y-14104214D02*
X6625000Y-14094690D01*
X6786905Y-14008976D02*
X6805952Y-14008976D01*
X6805952Y-14008976D02*
X6825000Y-14018500D01*
X6825000Y-14018500D02*
X6834524Y-14028024D01*
X6834524Y-14028024D02*
X6844048Y-14047071D01*
X6844048Y-14047071D02*
X6853571Y-14085167D01*
X6853571Y-14085167D02*
X6853571Y-14132786D01*
X6853571Y-14132786D02*
X6844048Y-14170881D01*
X6844048Y-14170881D02*
X6834524Y-14189928D01*
X6834524Y-14189928D02*
X6825000Y-14199452D01*
X6825000Y-14199452D02*
X6805952Y-14208976D01*
X6805952Y-14208976D02*
X6786905Y-14208976D01*
X6786905Y-14208976D02*
X6767857Y-14199452D01*
X6767857Y-14199452D02*
X6758333Y-14189928D01*
X6758333Y-14189928D02*
X6748809Y-14170881D01*
X6748809Y-14170881D02*
X6739286Y-14132786D01*
X6739286Y-14132786D02*
X6739286Y-14085167D01*
X6739286Y-14085167D02*
X6748809Y-14047071D01*
X6748809Y-14047071D02*
X6758333Y-14028024D01*
X6758333Y-14028024D02*
X6767857Y-14018500D01*
X6767857Y-14018500D02*
X6786905Y-14008976D01*
X6977381Y-14008976D02*
X6996429Y-14008976D01*
X6996429Y-14008976D02*
X7015476Y-14018500D01*
X7015476Y-14018500D02*
X7025000Y-14028024D01*
X7025000Y-14028024D02*
X7034524Y-14047071D01*
X7034524Y-14047071D02*
X7044048Y-14085167D01*
X7044048Y-14085167D02*
X7044048Y-14132786D01*
X7044048Y-14132786D02*
X7034524Y-14170881D01*
X7034524Y-14170881D02*
X7025000Y-14189928D01*
X7025000Y-14189928D02*
X7015476Y-14199452D01*
X7015476Y-14199452D02*
X6996429Y-14208976D01*
X6996429Y-14208976D02*
X6977381Y-14208976D01*
X6977381Y-14208976D02*
X6958333Y-14199452D01*
X6958333Y-14199452D02*
X6948809Y-14189928D01*
X6948809Y-14189928D02*
X6939286Y-14170881D01*
X6939286Y-14170881D02*
X6929762Y-14132786D01*
X6929762Y-14132786D02*
X6929762Y-14085167D01*
X6929762Y-14085167D02*
X6939286Y-14047071D01*
X6939286Y-14047071D02*
X6948809Y-14028024D01*
X6948809Y-14028024D02*
X6958333Y-14018500D01*
X6958333Y-14018500D02*
X6977381Y-14008976D01*
X7129762Y-14208976D02*
X7129762Y-14075643D01*
X7129762Y-14094690D02*
X7139286Y-14085167D01*
X7139286Y-14085167D02*
X7158333Y-14075643D01*
X7158333Y-14075643D02*
X7186905Y-14075643D01*
X7186905Y-14075643D02*
X7205952Y-14085167D01*
X7205952Y-14085167D02*
X7215476Y-14104214D01*
X7215476Y-14104214D02*
X7215476Y-14208976D01*
X7215476Y-14104214D02*
X7225000Y-14085167D01*
X7225000Y-14085167D02*
X7244048Y-14075643D01*
X7244048Y-14075643D02*
X7272619Y-14075643D01*
X7272619Y-14075643D02*
X7291667Y-14085167D01*
X7291667Y-14085167D02*
X7301190Y-14104214D01*
X7301190Y-14104214D02*
X7301190Y-14208976D01*
X7396429Y-14208976D02*
X7396429Y-14075643D01*
X7396429Y-14094690D02*
X7405952Y-14085167D01*
X7405952Y-14085167D02*
X7425000Y-14075643D01*
X7425000Y-14075643D02*
X7453571Y-14075643D01*
X7453571Y-14075643D02*
X7472619Y-14085167D01*
X7472619Y-14085167D02*
X7482143Y-14104214D01*
X7482143Y-14104214D02*
X7482143Y-14208976D01*
X7482143Y-14104214D02*
X7491667Y-14085167D01*
X7491667Y-14085167D02*
X7510714Y-14075643D01*
X7510714Y-14075643D02*
X7539286Y-14075643D01*
X7539286Y-14075643D02*
X7558333Y-14085167D01*
X7558333Y-14085167D02*
X7567857Y-14104214D01*
X7567857Y-14104214D02*
X7567857Y-14208976D01*
X7925952Y-13999452D02*
X7754524Y-14256595D01*
X8150714Y-14008976D02*
X8169762Y-14008976D01*
X8169762Y-14008976D02*
X8188810Y-14018500D01*
X8188810Y-14018500D02*
X8198333Y-14028024D01*
X8198333Y-14028024D02*
X8207857Y-14047071D01*
X8207857Y-14047071D02*
X8217381Y-14085167D01*
X8217381Y-14085167D02*
X8217381Y-14132786D01*
X8217381Y-14132786D02*
X8207857Y-14170881D01*
X8207857Y-14170881D02*
X8198333Y-14189928D01*
X8198333Y-14189928D02*
X8188810Y-14199452D01*
X8188810Y-14199452D02*
X8169762Y-14208976D01*
X8169762Y-14208976D02*
X8150714Y-14208976D01*
X8150714Y-14208976D02*
X8131667Y-14199452D01*
X8131667Y-14199452D02*
X8122143Y-14189928D01*
X8122143Y-14189928D02*
X8112619Y-14170881D01*
X8112619Y-14170881D02*
X8103095Y-14132786D01*
X8103095Y-14132786D02*
X8103095Y-14085167D01*
X8103095Y-14085167D02*
X8112619Y-14047071D01*
X8112619Y-14047071D02*
X8122143Y-14028024D01*
X8122143Y-14028024D02*
X8131667Y-14018500D01*
X8131667Y-14018500D02*
X8150714Y-14008976D01*
X8303095Y-14189928D02*
X8312619Y-14199452D01*
X8312619Y-14199452D02*
X8303095Y-14208976D01*
X8303095Y-14208976D02*
X8293571Y-14199452D01*
X8293571Y-14199452D02*
X8303095Y-14189928D01*
X8303095Y-14189928D02*
X8303095Y-14208976D01*
X8436429Y-14008976D02*
X8455476Y-14008976D01*
X8455476Y-14008976D02*
X8474524Y-14018500D01*
X8474524Y-14018500D02*
X8484048Y-14028024D01*
X8484048Y-14028024D02*
X8493572Y-14047071D01*
X8493572Y-14047071D02*
X8503095Y-14085167D01*
X8503095Y-14085167D02*
X8503095Y-14132786D01*
X8503095Y-14132786D02*
X8493572Y-14170881D01*
X8493572Y-14170881D02*
X8484048Y-14189928D01*
X8484048Y-14189928D02*
X8474524Y-14199452D01*
X8474524Y-14199452D02*
X8455476Y-14208976D01*
X8455476Y-14208976D02*
X8436429Y-14208976D01*
X8436429Y-14208976D02*
X8417381Y-14199452D01*
X8417381Y-14199452D02*
X8407857Y-14189928D01*
X8407857Y-14189928D02*
X8398333Y-14170881D01*
X8398333Y-14170881D02*
X8388810Y-14132786D01*
X8388810Y-14132786D02*
X8388810Y-14085167D01*
X8388810Y-14085167D02*
X8398333Y-14047071D01*
X8398333Y-14047071D02*
X8407857Y-14028024D01*
X8407857Y-14028024D02*
X8417381Y-14018500D01*
X8417381Y-14018500D02*
X8436429Y-14008976D01*
X8569762Y-14008976D02*
X8693572Y-14008976D01*
X8693572Y-14008976D02*
X8626905Y-14085167D01*
X8626905Y-14085167D02*
X8655476Y-14085167D01*
X8655476Y-14085167D02*
X8674524Y-14094690D01*
X8674524Y-14094690D02*
X8684048Y-14104214D01*
X8684048Y-14104214D02*
X8693572Y-14123262D01*
X8693572Y-14123262D02*
X8693572Y-14170881D01*
X8693572Y-14170881D02*
X8684048Y-14189928D01*
X8684048Y-14189928D02*
X8674524Y-14199452D01*
X8674524Y-14199452D02*
X8655476Y-14208976D01*
X8655476Y-14208976D02*
X8598333Y-14208976D01*
X8598333Y-14208976D02*
X8579286Y-14199452D01*
X8579286Y-14199452D02*
X8569762Y-14189928D01*
X8884048Y-14208976D02*
X8769762Y-14208976D01*
X8826905Y-14208976D02*
X8826905Y-14008976D01*
X8826905Y-14008976D02*
X8807857Y-14037548D01*
X8807857Y-14037548D02*
X8788810Y-14056595D01*
X8788810Y-14056595D02*
X8769762Y-14066119D01*
X9065000Y-14008976D02*
X8969762Y-14008976D01*
X8969762Y-14008976D02*
X8960238Y-14104214D01*
X8960238Y-14104214D02*
X8969762Y-14094690D01*
X8969762Y-14094690D02*
X8988810Y-14085167D01*
X8988810Y-14085167D02*
X9036429Y-14085167D01*
X9036429Y-14085167D02*
X9055476Y-14094690D01*
X9055476Y-14094690D02*
X9065000Y-14104214D01*
X9065000Y-14104214D02*
X9074524Y-14123262D01*
X9074524Y-14123262D02*
X9074524Y-14170881D01*
X9074524Y-14170881D02*
X9065000Y-14189928D01*
X9065000Y-14189928D02*
X9055476Y-14199452D01*
X9055476Y-14199452D02*
X9036429Y-14208976D01*
X9036429Y-14208976D02*
X8988810Y-14208976D01*
X8988810Y-14208976D02*
X8969762Y-14199452D01*
X8969762Y-14199452D02*
X8960238Y-14189928D01*
X9150714Y-14008976D02*
X9150714Y-14047071D01*
X9226905Y-14008976D02*
X9226905Y-14047071D01*
X9489762Y-14285167D02*
X9480238Y-14275643D01*
X9480238Y-14275643D02*
X9461191Y-14247071D01*
X9461191Y-14247071D02*
X9451667Y-14228024D01*
X9451667Y-14228024D02*
X9442143Y-14199452D01*
X9442143Y-14199452D02*
X9432619Y-14151833D01*
X9432619Y-14151833D02*
X9432619Y-14113738D01*
X9432619Y-14113738D02*
X9442143Y-14066119D01*
X9442143Y-14066119D02*
X9451667Y-14037548D01*
X9451667Y-14037548D02*
X9461191Y-14018500D01*
X9461191Y-14018500D02*
X9480238Y-13989928D01*
X9480238Y-13989928D02*
X9489762Y-13980405D01*
X9670714Y-14208976D02*
X9556429Y-14208976D01*
X9613572Y-14208976D02*
X9613572Y-14008976D01*
X9613572Y-14008976D02*
X9594524Y-14037548D01*
X9594524Y-14037548D02*
X9575476Y-14056595D01*
X9575476Y-14056595D02*
X9556429Y-14066119D01*
X9765953Y-14208976D02*
X9804048Y-14208976D01*
X9804048Y-14208976D02*
X9823095Y-14199452D01*
X9823095Y-14199452D02*
X9832619Y-14189928D01*
X9832619Y-14189928D02*
X9851667Y-14161357D01*
X9851667Y-14161357D02*
X9861191Y-14123262D01*
X9861191Y-14123262D02*
X9861191Y-14047071D01*
X9861191Y-14047071D02*
X9851667Y-14028024D01*
X9851667Y-14028024D02*
X9842143Y-14018500D01*
X9842143Y-14018500D02*
X9823095Y-14008976D01*
X9823095Y-14008976D02*
X9785000Y-14008976D01*
X9785000Y-14008976D02*
X9765953Y-14018500D01*
X9765953Y-14018500D02*
X9756429Y-14028024D01*
X9756429Y-14028024D02*
X9746905Y-14047071D01*
X9746905Y-14047071D02*
X9746905Y-14094690D01*
X9746905Y-14094690D02*
X9756429Y-14113738D01*
X9756429Y-14113738D02*
X9765953Y-14123262D01*
X9765953Y-14123262D02*
X9785000Y-14132786D01*
X9785000Y-14132786D02*
X9823095Y-14132786D01*
X9823095Y-14132786D02*
X9842143Y-14123262D01*
X9842143Y-14123262D02*
X9851667Y-14113738D01*
X9851667Y-14113738D02*
X9861191Y-14094690D01*
X10066905Y-14208976D02*
X10066905Y-14008976D01*
X10152619Y-14208976D02*
X10152619Y-14104214D01*
X10152619Y-14104214D02*
X10143095Y-14085167D01*
X10143095Y-14085167D02*
X10124048Y-14075643D01*
X10124048Y-14075643D02*
X10095476Y-14075643D01*
X10095476Y-14075643D02*
X10076429Y-14085167D01*
X10076429Y-14085167D02*
X10066905Y-14094690D01*
X10276429Y-14208976D02*
X10257381Y-14199452D01*
X10257381Y-14199452D02*
X10247857Y-14189928D01*
X10247857Y-14189928D02*
X10238334Y-14170881D01*
X10238334Y-14170881D02*
X10238334Y-14113738D01*
X10238334Y-14113738D02*
X10247857Y-14094690D01*
X10247857Y-14094690D02*
X10257381Y-14085167D01*
X10257381Y-14085167D02*
X10276429Y-14075643D01*
X10276429Y-14075643D02*
X10305000Y-14075643D01*
X10305000Y-14075643D02*
X10324048Y-14085167D01*
X10324048Y-14085167D02*
X10333572Y-14094690D01*
X10333572Y-14094690D02*
X10343095Y-14113738D01*
X10343095Y-14113738D02*
X10343095Y-14170881D01*
X10343095Y-14170881D02*
X10333572Y-14189928D01*
X10333572Y-14189928D02*
X10324048Y-14199452D01*
X10324048Y-14199452D02*
X10305000Y-14208976D01*
X10305000Y-14208976D02*
X10276429Y-14208976D01*
X10457381Y-14208976D02*
X10438334Y-14199452D01*
X10438334Y-14199452D02*
X10428810Y-14180405D01*
X10428810Y-14180405D02*
X10428810Y-14008976D01*
X10609762Y-14199452D02*
X10590715Y-14208976D01*
X10590715Y-14208976D02*
X10552619Y-14208976D01*
X10552619Y-14208976D02*
X10533572Y-14199452D01*
X10533572Y-14199452D02*
X10524048Y-14180405D01*
X10524048Y-14180405D02*
X10524048Y-14104214D01*
X10524048Y-14104214D02*
X10533572Y-14085167D01*
X10533572Y-14085167D02*
X10552619Y-14075643D01*
X10552619Y-14075643D02*
X10590715Y-14075643D01*
X10590715Y-14075643D02*
X10609762Y-14085167D01*
X10609762Y-14085167D02*
X10619286Y-14104214D01*
X10619286Y-14104214D02*
X10619286Y-14123262D01*
X10619286Y-14123262D02*
X10524048Y-14142309D01*
X10695476Y-14199452D02*
X10714524Y-14208976D01*
X10714524Y-14208976D02*
X10752619Y-14208976D01*
X10752619Y-14208976D02*
X10771667Y-14199452D01*
X10771667Y-14199452D02*
X10781191Y-14180405D01*
X10781191Y-14180405D02*
X10781191Y-14170881D01*
X10781191Y-14170881D02*
X10771667Y-14151833D01*
X10771667Y-14151833D02*
X10752619Y-14142309D01*
X10752619Y-14142309D02*
X10724048Y-14142309D01*
X10724048Y-14142309D02*
X10705000Y-14132786D01*
X10705000Y-14132786D02*
X10695476Y-14113738D01*
X10695476Y-14113738D02*
X10695476Y-14104214D01*
X10695476Y-14104214D02*
X10705000Y-14085167D01*
X10705000Y-14085167D02*
X10724048Y-14075643D01*
X10724048Y-14075643D02*
X10752619Y-14075643D01*
X10752619Y-14075643D02*
X10771667Y-14085167D01*
X10847857Y-14285167D02*
X10857381Y-14275643D01*
X10857381Y-14275643D02*
X10876429Y-14247071D01*
X10876429Y-14247071D02*
X10885953Y-14228024D01*
X10885953Y-14228024D02*
X10895476Y-14199452D01*
X10895476Y-14199452D02*
X10905000Y-14151833D01*
X10905000Y-14151833D02*
X10905000Y-14113738D01*
X10905000Y-14113738D02*
X10895476Y-14066119D01*
X10895476Y-14066119D02*
X10885953Y-14037548D01*
X10885953Y-14037548D02*
X10876429Y-14018500D01*
X10876429Y-14018500D02*
X10857381Y-13989928D01*
X10857381Y-13989928D02*
X10847857Y-13980405D01*
D15*
X6010356Y-14434856D02*
X6010356Y-14364144D01*
X5939644Y-14364144D01*
X5939644Y-14434856D01*
X6010356Y-14434856D01*
D11*
X6377381Y-14472976D02*
X6263095Y-14472976D01*
X6320238Y-14472976D02*
X6320238Y-14272976D01*
X6320238Y-14272976D02*
X6301190Y-14301548D01*
X6301190Y-14301548D02*
X6282143Y-14320595D01*
X6282143Y-14320595D02*
X6263095Y-14330119D01*
X6463095Y-14453928D02*
X6472619Y-14463452D01*
X6472619Y-14463452D02*
X6463095Y-14472976D01*
X6463095Y-14472976D02*
X6453571Y-14463452D01*
X6453571Y-14463452D02*
X6463095Y-14453928D01*
X6463095Y-14453928D02*
X6463095Y-14472976D01*
X6596428Y-14272976D02*
X6615476Y-14272976D01*
X6615476Y-14272976D02*
X6634524Y-14282500D01*
X6634524Y-14282500D02*
X6644048Y-14292024D01*
X6644048Y-14292024D02*
X6653571Y-14311071D01*
X6653571Y-14311071D02*
X6663095Y-14349167D01*
X6663095Y-14349167D02*
X6663095Y-14396786D01*
X6663095Y-14396786D02*
X6653571Y-14434881D01*
X6653571Y-14434881D02*
X6644048Y-14453928D01*
X6644048Y-14453928D02*
X6634524Y-14463452D01*
X6634524Y-14463452D02*
X6615476Y-14472976D01*
X6615476Y-14472976D02*
X6596428Y-14472976D01*
X6596428Y-14472976D02*
X6577381Y-14463452D01*
X6577381Y-14463452D02*
X6567857Y-14453928D01*
X6567857Y-14453928D02*
X6558333Y-14434881D01*
X6558333Y-14434881D02*
X6548809Y-14396786D01*
X6548809Y-14396786D02*
X6548809Y-14349167D01*
X6548809Y-14349167D02*
X6558333Y-14311071D01*
X6558333Y-14311071D02*
X6567857Y-14292024D01*
X6567857Y-14292024D02*
X6577381Y-14282500D01*
X6577381Y-14282500D02*
X6596428Y-14272976D01*
X6786905Y-14272976D02*
X6805952Y-14272976D01*
X6805952Y-14272976D02*
X6825000Y-14282500D01*
X6825000Y-14282500D02*
X6834524Y-14292024D01*
X6834524Y-14292024D02*
X6844048Y-14311071D01*
X6844048Y-14311071D02*
X6853571Y-14349167D01*
X6853571Y-14349167D02*
X6853571Y-14396786D01*
X6853571Y-14396786D02*
X6844048Y-14434881D01*
X6844048Y-14434881D02*
X6834524Y-14453928D01*
X6834524Y-14453928D02*
X6825000Y-14463452D01*
X6825000Y-14463452D02*
X6805952Y-14472976D01*
X6805952Y-14472976D02*
X6786905Y-14472976D01*
X6786905Y-14472976D02*
X6767857Y-14463452D01*
X6767857Y-14463452D02*
X6758333Y-14453928D01*
X6758333Y-14453928D02*
X6748809Y-14434881D01*
X6748809Y-14434881D02*
X6739286Y-14396786D01*
X6739286Y-14396786D02*
X6739286Y-14349167D01*
X6739286Y-14349167D02*
X6748809Y-14311071D01*
X6748809Y-14311071D02*
X6758333Y-14292024D01*
X6758333Y-14292024D02*
X6767857Y-14282500D01*
X6767857Y-14282500D02*
X6786905Y-14272976D01*
X6977381Y-14272976D02*
X6996429Y-14272976D01*
X6996429Y-14272976D02*
X7015476Y-14282500D01*
X7015476Y-14282500D02*
X7025000Y-14292024D01*
X7025000Y-14292024D02*
X7034524Y-14311071D01*
X7034524Y-14311071D02*
X7044048Y-14349167D01*
X7044048Y-14349167D02*
X7044048Y-14396786D01*
X7044048Y-14396786D02*
X7034524Y-14434881D01*
X7034524Y-14434881D02*
X7025000Y-14453928D01*
X7025000Y-14453928D02*
X7015476Y-14463452D01*
X7015476Y-14463452D02*
X6996429Y-14472976D01*
X6996429Y-14472976D02*
X6977381Y-14472976D01*
X6977381Y-14472976D02*
X6958333Y-14463452D01*
X6958333Y-14463452D02*
X6948809Y-14453928D01*
X6948809Y-14453928D02*
X6939286Y-14434881D01*
X6939286Y-14434881D02*
X6929762Y-14396786D01*
X6929762Y-14396786D02*
X6929762Y-14349167D01*
X6929762Y-14349167D02*
X6939286Y-14311071D01*
X6939286Y-14311071D02*
X6948809Y-14292024D01*
X6948809Y-14292024D02*
X6958333Y-14282500D01*
X6958333Y-14282500D02*
X6977381Y-14272976D01*
X7129762Y-14472976D02*
X7129762Y-14339643D01*
X7129762Y-14358690D02*
X7139286Y-14349167D01*
X7139286Y-14349167D02*
X7158333Y-14339643D01*
X7158333Y-14339643D02*
X7186905Y-14339643D01*
X7186905Y-14339643D02*
X7205952Y-14349167D01*
X7205952Y-14349167D02*
X7215476Y-14368214D01*
X7215476Y-14368214D02*
X7215476Y-14472976D01*
X7215476Y-14368214D02*
X7225000Y-14349167D01*
X7225000Y-14349167D02*
X7244048Y-14339643D01*
X7244048Y-14339643D02*
X7272619Y-14339643D01*
X7272619Y-14339643D02*
X7291667Y-14349167D01*
X7291667Y-14349167D02*
X7301190Y-14368214D01*
X7301190Y-14368214D02*
X7301190Y-14472976D01*
X7396429Y-14472976D02*
X7396429Y-14339643D01*
X7396429Y-14358690D02*
X7405952Y-14349167D01*
X7405952Y-14349167D02*
X7425000Y-14339643D01*
X7425000Y-14339643D02*
X7453571Y-14339643D01*
X7453571Y-14339643D02*
X7472619Y-14349167D01*
X7472619Y-14349167D02*
X7482143Y-14368214D01*
X7482143Y-14368214D02*
X7482143Y-14472976D01*
X7482143Y-14368214D02*
X7491667Y-14349167D01*
X7491667Y-14349167D02*
X7510714Y-14339643D01*
X7510714Y-14339643D02*
X7539286Y-14339643D01*
X7539286Y-14339643D02*
X7558333Y-14349167D01*
X7558333Y-14349167D02*
X7567857Y-14368214D01*
X7567857Y-14368214D02*
X7567857Y-14472976D01*
X7925952Y-14263452D02*
X7754524Y-14520595D01*
X8150714Y-14272976D02*
X8169762Y-14272976D01*
X8169762Y-14272976D02*
X8188810Y-14282500D01*
X8188810Y-14282500D02*
X8198333Y-14292024D01*
X8198333Y-14292024D02*
X8207857Y-14311071D01*
X8207857Y-14311071D02*
X8217381Y-14349167D01*
X8217381Y-14349167D02*
X8217381Y-14396786D01*
X8217381Y-14396786D02*
X8207857Y-14434881D01*
X8207857Y-14434881D02*
X8198333Y-14453928D01*
X8198333Y-14453928D02*
X8188810Y-14463452D01*
X8188810Y-14463452D02*
X8169762Y-14472976D01*
X8169762Y-14472976D02*
X8150714Y-14472976D01*
X8150714Y-14472976D02*
X8131667Y-14463452D01*
X8131667Y-14463452D02*
X8122143Y-14453928D01*
X8122143Y-14453928D02*
X8112619Y-14434881D01*
X8112619Y-14434881D02*
X8103095Y-14396786D01*
X8103095Y-14396786D02*
X8103095Y-14349167D01*
X8103095Y-14349167D02*
X8112619Y-14311071D01*
X8112619Y-14311071D02*
X8122143Y-14292024D01*
X8122143Y-14292024D02*
X8131667Y-14282500D01*
X8131667Y-14282500D02*
X8150714Y-14272976D01*
X8303095Y-14453928D02*
X8312619Y-14463452D01*
X8312619Y-14463452D02*
X8303095Y-14472976D01*
X8303095Y-14472976D02*
X8293571Y-14463452D01*
X8293571Y-14463452D02*
X8303095Y-14453928D01*
X8303095Y-14453928D02*
X8303095Y-14472976D01*
X8436429Y-14272976D02*
X8455476Y-14272976D01*
X8455476Y-14272976D02*
X8474524Y-14282500D01*
X8474524Y-14282500D02*
X8484048Y-14292024D01*
X8484048Y-14292024D02*
X8493572Y-14311071D01*
X8493572Y-14311071D02*
X8503095Y-14349167D01*
X8503095Y-14349167D02*
X8503095Y-14396786D01*
X8503095Y-14396786D02*
X8493572Y-14434881D01*
X8493572Y-14434881D02*
X8484048Y-14453928D01*
X8484048Y-14453928D02*
X8474524Y-14463452D01*
X8474524Y-14463452D02*
X8455476Y-14472976D01*
X8455476Y-14472976D02*
X8436429Y-14472976D01*
X8436429Y-14472976D02*
X8417381Y-14463452D01*
X8417381Y-14463452D02*
X8407857Y-14453928D01*
X8407857Y-14453928D02*
X8398333Y-14434881D01*
X8398333Y-14434881D02*
X8388810Y-14396786D01*
X8388810Y-14396786D02*
X8388810Y-14349167D01*
X8388810Y-14349167D02*
X8398333Y-14311071D01*
X8398333Y-14311071D02*
X8407857Y-14292024D01*
X8407857Y-14292024D02*
X8417381Y-14282500D01*
X8417381Y-14282500D02*
X8436429Y-14272976D01*
X8569762Y-14272976D02*
X8693572Y-14272976D01*
X8693572Y-14272976D02*
X8626905Y-14349167D01*
X8626905Y-14349167D02*
X8655476Y-14349167D01*
X8655476Y-14349167D02*
X8674524Y-14358690D01*
X8674524Y-14358690D02*
X8684048Y-14368214D01*
X8684048Y-14368214D02*
X8693572Y-14387262D01*
X8693572Y-14387262D02*
X8693572Y-14434881D01*
X8693572Y-14434881D02*
X8684048Y-14453928D01*
X8684048Y-14453928D02*
X8674524Y-14463452D01*
X8674524Y-14463452D02*
X8655476Y-14472976D01*
X8655476Y-14472976D02*
X8598333Y-14472976D01*
X8598333Y-14472976D02*
X8579286Y-14463452D01*
X8579286Y-14463452D02*
X8569762Y-14453928D01*
X8788810Y-14472976D02*
X8826905Y-14472976D01*
X8826905Y-14472976D02*
X8845953Y-14463452D01*
X8845953Y-14463452D02*
X8855476Y-14453928D01*
X8855476Y-14453928D02*
X8874524Y-14425357D01*
X8874524Y-14425357D02*
X8884048Y-14387262D01*
X8884048Y-14387262D02*
X8884048Y-14311071D01*
X8884048Y-14311071D02*
X8874524Y-14292024D01*
X8874524Y-14292024D02*
X8865000Y-14282500D01*
X8865000Y-14282500D02*
X8845953Y-14272976D01*
X8845953Y-14272976D02*
X8807857Y-14272976D01*
X8807857Y-14272976D02*
X8788810Y-14282500D01*
X8788810Y-14282500D02*
X8779286Y-14292024D01*
X8779286Y-14292024D02*
X8769762Y-14311071D01*
X8769762Y-14311071D02*
X8769762Y-14358690D01*
X8769762Y-14358690D02*
X8779286Y-14377738D01*
X8779286Y-14377738D02*
X8788810Y-14387262D01*
X8788810Y-14387262D02*
X8807857Y-14396786D01*
X8807857Y-14396786D02*
X8845953Y-14396786D01*
X8845953Y-14396786D02*
X8865000Y-14387262D01*
X8865000Y-14387262D02*
X8874524Y-14377738D01*
X8874524Y-14377738D02*
X8884048Y-14358690D01*
X9055476Y-14339643D02*
X9055476Y-14472976D01*
X9007857Y-14263452D02*
X8960238Y-14406309D01*
X8960238Y-14406309D02*
X9084048Y-14406309D01*
X9150714Y-14272976D02*
X9150714Y-14311071D01*
X9226905Y-14272976D02*
X9226905Y-14311071D01*
X9489762Y-14549167D02*
X9480238Y-14539643D01*
X9480238Y-14539643D02*
X9461191Y-14511071D01*
X9461191Y-14511071D02*
X9451667Y-14492024D01*
X9451667Y-14492024D02*
X9442143Y-14463452D01*
X9442143Y-14463452D02*
X9432619Y-14415833D01*
X9432619Y-14415833D02*
X9432619Y-14377738D01*
X9432619Y-14377738D02*
X9442143Y-14330119D01*
X9442143Y-14330119D02*
X9451667Y-14301548D01*
X9451667Y-14301548D02*
X9461191Y-14282500D01*
X9461191Y-14282500D02*
X9480238Y-14253928D01*
X9480238Y-14253928D02*
X9489762Y-14244405D01*
X9575476Y-14472976D02*
X9613572Y-14472976D01*
X9613572Y-14472976D02*
X9632619Y-14463452D01*
X9632619Y-14463452D02*
X9642143Y-14453928D01*
X9642143Y-14453928D02*
X9661191Y-14425357D01*
X9661191Y-14425357D02*
X9670714Y-14387262D01*
X9670714Y-14387262D02*
X9670714Y-14311071D01*
X9670714Y-14311071D02*
X9661191Y-14292024D01*
X9661191Y-14292024D02*
X9651667Y-14282500D01*
X9651667Y-14282500D02*
X9632619Y-14272976D01*
X9632619Y-14272976D02*
X9594524Y-14272976D01*
X9594524Y-14272976D02*
X9575476Y-14282500D01*
X9575476Y-14282500D02*
X9565953Y-14292024D01*
X9565953Y-14292024D02*
X9556429Y-14311071D01*
X9556429Y-14311071D02*
X9556429Y-14358690D01*
X9556429Y-14358690D02*
X9565953Y-14377738D01*
X9565953Y-14377738D02*
X9575476Y-14387262D01*
X9575476Y-14387262D02*
X9594524Y-14396786D01*
X9594524Y-14396786D02*
X9632619Y-14396786D01*
X9632619Y-14396786D02*
X9651667Y-14387262D01*
X9651667Y-14387262D02*
X9661191Y-14377738D01*
X9661191Y-14377738D02*
X9670714Y-14358690D01*
X9851667Y-14272976D02*
X9756429Y-14272976D01*
X9756429Y-14272976D02*
X9746905Y-14368214D01*
X9746905Y-14368214D02*
X9756429Y-14358690D01*
X9756429Y-14358690D02*
X9775476Y-14349167D01*
X9775476Y-14349167D02*
X9823095Y-14349167D01*
X9823095Y-14349167D02*
X9842143Y-14358690D01*
X9842143Y-14358690D02*
X9851667Y-14368214D01*
X9851667Y-14368214D02*
X9861191Y-14387262D01*
X9861191Y-14387262D02*
X9861191Y-14434881D01*
X9861191Y-14434881D02*
X9851667Y-14453928D01*
X9851667Y-14453928D02*
X9842143Y-14463452D01*
X9842143Y-14463452D02*
X9823095Y-14472976D01*
X9823095Y-14472976D02*
X9775476Y-14472976D01*
X9775476Y-14472976D02*
X9756429Y-14463452D01*
X9756429Y-14463452D02*
X9746905Y-14453928D01*
X10066905Y-14472976D02*
X10066905Y-14272976D01*
X10152619Y-14472976D02*
X10152619Y-14368214D01*
X10152619Y-14368214D02*
X10143095Y-14349167D01*
X10143095Y-14349167D02*
X10124048Y-14339643D01*
X10124048Y-14339643D02*
X10095476Y-14339643D01*
X10095476Y-14339643D02*
X10076429Y-14349167D01*
X10076429Y-14349167D02*
X10066905Y-14358690D01*
X10276429Y-14472976D02*
X10257381Y-14463452D01*
X10257381Y-14463452D02*
X10247857Y-14453928D01*
X10247857Y-14453928D02*
X10238334Y-14434881D01*
X10238334Y-14434881D02*
X10238334Y-14377738D01*
X10238334Y-14377738D02*
X10247857Y-14358690D01*
X10247857Y-14358690D02*
X10257381Y-14349167D01*
X10257381Y-14349167D02*
X10276429Y-14339643D01*
X10276429Y-14339643D02*
X10305000Y-14339643D01*
X10305000Y-14339643D02*
X10324048Y-14349167D01*
X10324048Y-14349167D02*
X10333572Y-14358690D01*
X10333572Y-14358690D02*
X10343095Y-14377738D01*
X10343095Y-14377738D02*
X10343095Y-14434881D01*
X10343095Y-14434881D02*
X10333572Y-14453928D01*
X10333572Y-14453928D02*
X10324048Y-14463452D01*
X10324048Y-14463452D02*
X10305000Y-14472976D01*
X10305000Y-14472976D02*
X10276429Y-14472976D01*
X10457381Y-14472976D02*
X10438334Y-14463452D01*
X10438334Y-14463452D02*
X10428810Y-14444405D01*
X10428810Y-14444405D02*
X10428810Y-14272976D01*
X10609762Y-14463452D02*
X10590715Y-14472976D01*
X10590715Y-14472976D02*
X10552619Y-14472976D01*
X10552619Y-14472976D02*
X10533572Y-14463452D01*
X10533572Y-14463452D02*
X10524048Y-14444405D01*
X10524048Y-14444405D02*
X10524048Y-14368214D01*
X10524048Y-14368214D02*
X10533572Y-14349167D01*
X10533572Y-14349167D02*
X10552619Y-14339643D01*
X10552619Y-14339643D02*
X10590715Y-14339643D01*
X10590715Y-14339643D02*
X10609762Y-14349167D01*
X10609762Y-14349167D02*
X10619286Y-14368214D01*
X10619286Y-14368214D02*
X10619286Y-14387262D01*
X10619286Y-14387262D02*
X10524048Y-14406309D01*
X10695476Y-14463452D02*
X10714524Y-14472976D01*
X10714524Y-14472976D02*
X10752619Y-14472976D01*
X10752619Y-14472976D02*
X10771667Y-14463452D01*
X10771667Y-14463452D02*
X10781191Y-14444405D01*
X10781191Y-14444405D02*
X10781191Y-14434881D01*
X10781191Y-14434881D02*
X10771667Y-14415833D01*
X10771667Y-14415833D02*
X10752619Y-14406309D01*
X10752619Y-14406309D02*
X10724048Y-14406309D01*
X10724048Y-14406309D02*
X10705000Y-14396786D01*
X10705000Y-14396786D02*
X10695476Y-14377738D01*
X10695476Y-14377738D02*
X10695476Y-14368214D01*
X10695476Y-14368214D02*
X10705000Y-14349167D01*
X10705000Y-14349167D02*
X10724048Y-14339643D01*
X10724048Y-14339643D02*
X10752619Y-14339643D01*
X10752619Y-14339643D02*
X10771667Y-14349167D01*
X10847857Y-14549167D02*
X10857381Y-14539643D01*
X10857381Y-14539643D02*
X10876429Y-14511071D01*
X10876429Y-14511071D02*
X10885953Y-14492024D01*
X10885953Y-14492024D02*
X10895476Y-14463452D01*
X10895476Y-14463452D02*
X10905000Y-14415833D01*
X10905000Y-14415833D02*
X10905000Y-14377738D01*
X10905000Y-14377738D02*
X10895476Y-14330119D01*
X10895476Y-14330119D02*
X10885953Y-14301548D01*
X10885953Y-14301548D02*
X10876429Y-14282500D01*
X10876429Y-14282500D02*
X10857381Y-14253928D01*
X10857381Y-14253928D02*
X10847857Y-14244405D01*
X5925000Y-14763500D02*
X6025000Y-14663500D01*
X5925000Y-14563500D01*
X5825000Y-14663500D01*
X5925000Y-14763500D01*
X6253571Y-14536976D02*
X6377381Y-14536976D01*
X6377381Y-14536976D02*
X6310714Y-14613167D01*
X6310714Y-14613167D02*
X6339286Y-14613167D01*
X6339286Y-14613167D02*
X6358333Y-14622690D01*
X6358333Y-14622690D02*
X6367857Y-14632214D01*
X6367857Y-14632214D02*
X6377381Y-14651262D01*
X6377381Y-14651262D02*
X6377381Y-14698881D01*
X6377381Y-14698881D02*
X6367857Y-14717928D01*
X6367857Y-14717928D02*
X6358333Y-14727452D01*
X6358333Y-14727452D02*
X6339286Y-14736976D01*
X6339286Y-14736976D02*
X6282143Y-14736976D01*
X6282143Y-14736976D02*
X6263095Y-14727452D01*
X6263095Y-14727452D02*
X6253571Y-14717928D01*
X6463095Y-14717928D02*
X6472619Y-14727452D01*
X6472619Y-14727452D02*
X6463095Y-14736976D01*
X6463095Y-14736976D02*
X6453571Y-14727452D01*
X6453571Y-14727452D02*
X6463095Y-14717928D01*
X6463095Y-14717928D02*
X6463095Y-14736976D01*
X6548809Y-14556024D02*
X6558333Y-14546500D01*
X6558333Y-14546500D02*
X6577381Y-14536976D01*
X6577381Y-14536976D02*
X6625000Y-14536976D01*
X6625000Y-14536976D02*
X6644048Y-14546500D01*
X6644048Y-14546500D02*
X6653571Y-14556024D01*
X6653571Y-14556024D02*
X6663095Y-14575071D01*
X6663095Y-14575071D02*
X6663095Y-14594119D01*
X6663095Y-14594119D02*
X6653571Y-14622690D01*
X6653571Y-14622690D02*
X6539286Y-14736976D01*
X6539286Y-14736976D02*
X6663095Y-14736976D01*
X6786905Y-14536976D02*
X6805952Y-14536976D01*
X6805952Y-14536976D02*
X6825000Y-14546500D01*
X6825000Y-14546500D02*
X6834524Y-14556024D01*
X6834524Y-14556024D02*
X6844048Y-14575071D01*
X6844048Y-14575071D02*
X6853571Y-14613167D01*
X6853571Y-14613167D02*
X6853571Y-14660786D01*
X6853571Y-14660786D02*
X6844048Y-14698881D01*
X6844048Y-14698881D02*
X6834524Y-14717928D01*
X6834524Y-14717928D02*
X6825000Y-14727452D01*
X6825000Y-14727452D02*
X6805952Y-14736976D01*
X6805952Y-14736976D02*
X6786905Y-14736976D01*
X6786905Y-14736976D02*
X6767857Y-14727452D01*
X6767857Y-14727452D02*
X6758333Y-14717928D01*
X6758333Y-14717928D02*
X6748809Y-14698881D01*
X6748809Y-14698881D02*
X6739286Y-14660786D01*
X6739286Y-14660786D02*
X6739286Y-14613167D01*
X6739286Y-14613167D02*
X6748809Y-14575071D01*
X6748809Y-14575071D02*
X6758333Y-14556024D01*
X6758333Y-14556024D02*
X6767857Y-14546500D01*
X6767857Y-14546500D02*
X6786905Y-14536976D01*
X6977381Y-14536976D02*
X6996429Y-14536976D01*
X6996429Y-14536976D02*
X7015476Y-14546500D01*
X7015476Y-14546500D02*
X7025000Y-14556024D01*
X7025000Y-14556024D02*
X7034524Y-14575071D01*
X7034524Y-14575071D02*
X7044048Y-14613167D01*
X7044048Y-14613167D02*
X7044048Y-14660786D01*
X7044048Y-14660786D02*
X7034524Y-14698881D01*
X7034524Y-14698881D02*
X7025000Y-14717928D01*
X7025000Y-14717928D02*
X7015476Y-14727452D01*
X7015476Y-14727452D02*
X6996429Y-14736976D01*
X6996429Y-14736976D02*
X6977381Y-14736976D01*
X6977381Y-14736976D02*
X6958333Y-14727452D01*
X6958333Y-14727452D02*
X6948809Y-14717928D01*
X6948809Y-14717928D02*
X6939286Y-14698881D01*
X6939286Y-14698881D02*
X6929762Y-14660786D01*
X6929762Y-14660786D02*
X6929762Y-14613167D01*
X6929762Y-14613167D02*
X6939286Y-14575071D01*
X6939286Y-14575071D02*
X6948809Y-14556024D01*
X6948809Y-14556024D02*
X6958333Y-14546500D01*
X6958333Y-14546500D02*
X6977381Y-14536976D01*
X7129762Y-14736976D02*
X7129762Y-14603643D01*
X7129762Y-14622690D02*
X7139286Y-14613167D01*
X7139286Y-14613167D02*
X7158333Y-14603643D01*
X7158333Y-14603643D02*
X7186905Y-14603643D01*
X7186905Y-14603643D02*
X7205952Y-14613167D01*
X7205952Y-14613167D02*
X7215476Y-14632214D01*
X7215476Y-14632214D02*
X7215476Y-14736976D01*
X7215476Y-14632214D02*
X7225000Y-14613167D01*
X7225000Y-14613167D02*
X7244048Y-14603643D01*
X7244048Y-14603643D02*
X7272619Y-14603643D01*
X7272619Y-14603643D02*
X7291667Y-14613167D01*
X7291667Y-14613167D02*
X7301190Y-14632214D01*
X7301190Y-14632214D02*
X7301190Y-14736976D01*
X7396429Y-14736976D02*
X7396429Y-14603643D01*
X7396429Y-14622690D02*
X7405952Y-14613167D01*
X7405952Y-14613167D02*
X7425000Y-14603643D01*
X7425000Y-14603643D02*
X7453571Y-14603643D01*
X7453571Y-14603643D02*
X7472619Y-14613167D01*
X7472619Y-14613167D02*
X7482143Y-14632214D01*
X7482143Y-14632214D02*
X7482143Y-14736976D01*
X7482143Y-14632214D02*
X7491667Y-14613167D01*
X7491667Y-14613167D02*
X7510714Y-14603643D01*
X7510714Y-14603643D02*
X7539286Y-14603643D01*
X7539286Y-14603643D02*
X7558333Y-14613167D01*
X7558333Y-14613167D02*
X7567857Y-14632214D01*
X7567857Y-14632214D02*
X7567857Y-14736976D01*
X7925952Y-14527452D02*
X7754524Y-14784595D01*
X8150714Y-14536976D02*
X8169762Y-14536976D01*
X8169762Y-14536976D02*
X8188810Y-14546500D01*
X8188810Y-14546500D02*
X8198333Y-14556024D01*
X8198333Y-14556024D02*
X8207857Y-14575071D01*
X8207857Y-14575071D02*
X8217381Y-14613167D01*
X8217381Y-14613167D02*
X8217381Y-14660786D01*
X8217381Y-14660786D02*
X8207857Y-14698881D01*
X8207857Y-14698881D02*
X8198333Y-14717928D01*
X8198333Y-14717928D02*
X8188810Y-14727452D01*
X8188810Y-14727452D02*
X8169762Y-14736976D01*
X8169762Y-14736976D02*
X8150714Y-14736976D01*
X8150714Y-14736976D02*
X8131667Y-14727452D01*
X8131667Y-14727452D02*
X8122143Y-14717928D01*
X8122143Y-14717928D02*
X8112619Y-14698881D01*
X8112619Y-14698881D02*
X8103095Y-14660786D01*
X8103095Y-14660786D02*
X8103095Y-14613167D01*
X8103095Y-14613167D02*
X8112619Y-14575071D01*
X8112619Y-14575071D02*
X8122143Y-14556024D01*
X8122143Y-14556024D02*
X8131667Y-14546500D01*
X8131667Y-14546500D02*
X8150714Y-14536976D01*
X8303095Y-14717928D02*
X8312619Y-14727452D01*
X8312619Y-14727452D02*
X8303095Y-14736976D01*
X8303095Y-14736976D02*
X8293571Y-14727452D01*
X8293571Y-14727452D02*
X8303095Y-14717928D01*
X8303095Y-14717928D02*
X8303095Y-14736976D01*
X8503095Y-14736976D02*
X8388810Y-14736976D01*
X8445952Y-14736976D02*
X8445952Y-14536976D01*
X8445952Y-14536976D02*
X8426905Y-14565548D01*
X8426905Y-14565548D02*
X8407857Y-14584595D01*
X8407857Y-14584595D02*
X8388810Y-14594119D01*
X8579286Y-14556024D02*
X8588810Y-14546500D01*
X8588810Y-14546500D02*
X8607857Y-14536976D01*
X8607857Y-14536976D02*
X8655476Y-14536976D01*
X8655476Y-14536976D02*
X8674524Y-14546500D01*
X8674524Y-14546500D02*
X8684048Y-14556024D01*
X8684048Y-14556024D02*
X8693572Y-14575071D01*
X8693572Y-14575071D02*
X8693572Y-14594119D01*
X8693572Y-14594119D02*
X8684048Y-14622690D01*
X8684048Y-14622690D02*
X8569762Y-14736976D01*
X8569762Y-14736976D02*
X8693572Y-14736976D01*
X8865000Y-14536976D02*
X8826905Y-14536976D01*
X8826905Y-14536976D02*
X8807857Y-14546500D01*
X8807857Y-14546500D02*
X8798333Y-14556024D01*
X8798333Y-14556024D02*
X8779286Y-14584595D01*
X8779286Y-14584595D02*
X8769762Y-14622690D01*
X8769762Y-14622690D02*
X8769762Y-14698881D01*
X8769762Y-14698881D02*
X8779286Y-14717928D01*
X8779286Y-14717928D02*
X8788810Y-14727452D01*
X8788810Y-14727452D02*
X8807857Y-14736976D01*
X8807857Y-14736976D02*
X8845953Y-14736976D01*
X8845953Y-14736976D02*
X8865000Y-14727452D01*
X8865000Y-14727452D02*
X8874524Y-14717928D01*
X8874524Y-14717928D02*
X8884048Y-14698881D01*
X8884048Y-14698881D02*
X8884048Y-14651262D01*
X8884048Y-14651262D02*
X8874524Y-14632214D01*
X8874524Y-14632214D02*
X8865000Y-14622690D01*
X8865000Y-14622690D02*
X8845953Y-14613167D01*
X8845953Y-14613167D02*
X8807857Y-14613167D01*
X8807857Y-14613167D02*
X8788810Y-14622690D01*
X8788810Y-14622690D02*
X8779286Y-14632214D01*
X8779286Y-14632214D02*
X8769762Y-14651262D01*
X9007857Y-14536976D02*
X9026905Y-14536976D01*
X9026905Y-14536976D02*
X9045953Y-14546500D01*
X9045953Y-14546500D02*
X9055476Y-14556024D01*
X9055476Y-14556024D02*
X9065000Y-14575071D01*
X9065000Y-14575071D02*
X9074524Y-14613167D01*
X9074524Y-14613167D02*
X9074524Y-14660786D01*
X9074524Y-14660786D02*
X9065000Y-14698881D01*
X9065000Y-14698881D02*
X9055476Y-14717928D01*
X9055476Y-14717928D02*
X9045953Y-14727452D01*
X9045953Y-14727452D02*
X9026905Y-14736976D01*
X9026905Y-14736976D02*
X9007857Y-14736976D01*
X9007857Y-14736976D02*
X8988810Y-14727452D01*
X8988810Y-14727452D02*
X8979286Y-14717928D01*
X8979286Y-14717928D02*
X8969762Y-14698881D01*
X8969762Y-14698881D02*
X8960238Y-14660786D01*
X8960238Y-14660786D02*
X8960238Y-14613167D01*
X8960238Y-14613167D02*
X8969762Y-14575071D01*
X8969762Y-14575071D02*
X8979286Y-14556024D01*
X8979286Y-14556024D02*
X8988810Y-14546500D01*
X8988810Y-14546500D02*
X9007857Y-14536976D01*
X9150714Y-14536976D02*
X9150714Y-14575071D01*
X9226905Y-14536976D02*
X9226905Y-14575071D01*
X9489762Y-14813167D02*
X9480238Y-14803643D01*
X9480238Y-14803643D02*
X9461191Y-14775071D01*
X9461191Y-14775071D02*
X9451667Y-14756024D01*
X9451667Y-14756024D02*
X9442143Y-14727452D01*
X9442143Y-14727452D02*
X9432619Y-14679833D01*
X9432619Y-14679833D02*
X9432619Y-14641738D01*
X9432619Y-14641738D02*
X9442143Y-14594119D01*
X9442143Y-14594119D02*
X9451667Y-14565548D01*
X9451667Y-14565548D02*
X9461191Y-14546500D01*
X9461191Y-14546500D02*
X9480238Y-14517928D01*
X9480238Y-14517928D02*
X9489762Y-14508405D01*
X9651667Y-14603643D02*
X9651667Y-14736976D01*
X9604048Y-14527452D02*
X9556429Y-14670309D01*
X9556429Y-14670309D02*
X9680238Y-14670309D01*
X9876429Y-14736976D02*
X9876429Y-14536976D01*
X9962143Y-14736976D02*
X9962143Y-14632214D01*
X9962143Y-14632214D02*
X9952619Y-14613167D01*
X9952619Y-14613167D02*
X9933572Y-14603643D01*
X9933572Y-14603643D02*
X9905000Y-14603643D01*
X9905000Y-14603643D02*
X9885953Y-14613167D01*
X9885953Y-14613167D02*
X9876429Y-14622690D01*
X10085953Y-14736976D02*
X10066905Y-14727452D01*
X10066905Y-14727452D02*
X10057381Y-14717928D01*
X10057381Y-14717928D02*
X10047857Y-14698881D01*
X10047857Y-14698881D02*
X10047857Y-14641738D01*
X10047857Y-14641738D02*
X10057381Y-14622690D01*
X10057381Y-14622690D02*
X10066905Y-14613167D01*
X10066905Y-14613167D02*
X10085953Y-14603643D01*
X10085953Y-14603643D02*
X10114524Y-14603643D01*
X10114524Y-14603643D02*
X10133572Y-14613167D01*
X10133572Y-14613167D02*
X10143095Y-14622690D01*
X10143095Y-14622690D02*
X10152619Y-14641738D01*
X10152619Y-14641738D02*
X10152619Y-14698881D01*
X10152619Y-14698881D02*
X10143095Y-14717928D01*
X10143095Y-14717928D02*
X10133572Y-14727452D01*
X10133572Y-14727452D02*
X10114524Y-14736976D01*
X10114524Y-14736976D02*
X10085953Y-14736976D01*
X10266905Y-14736976D02*
X10247857Y-14727452D01*
X10247857Y-14727452D02*
X10238334Y-14708405D01*
X10238334Y-14708405D02*
X10238334Y-14536976D01*
X10419286Y-14727452D02*
X10400238Y-14736976D01*
X10400238Y-14736976D02*
X10362143Y-14736976D01*
X10362143Y-14736976D02*
X10343095Y-14727452D01*
X10343095Y-14727452D02*
X10333572Y-14708405D01*
X10333572Y-14708405D02*
X10333572Y-14632214D01*
X10333572Y-14632214D02*
X10343095Y-14613167D01*
X10343095Y-14613167D02*
X10362143Y-14603643D01*
X10362143Y-14603643D02*
X10400238Y-14603643D01*
X10400238Y-14603643D02*
X10419286Y-14613167D01*
X10419286Y-14613167D02*
X10428810Y-14632214D01*
X10428810Y-14632214D02*
X10428810Y-14651262D01*
X10428810Y-14651262D02*
X10333572Y-14670309D01*
X10505000Y-14727452D02*
X10524048Y-14736976D01*
X10524048Y-14736976D02*
X10562143Y-14736976D01*
X10562143Y-14736976D02*
X10581191Y-14727452D01*
X10581191Y-14727452D02*
X10590715Y-14708405D01*
X10590715Y-14708405D02*
X10590715Y-14698881D01*
X10590715Y-14698881D02*
X10581191Y-14679833D01*
X10581191Y-14679833D02*
X10562143Y-14670309D01*
X10562143Y-14670309D02*
X10533572Y-14670309D01*
X10533572Y-14670309D02*
X10514524Y-14660786D01*
X10514524Y-14660786D02*
X10505000Y-14641738D01*
X10505000Y-14641738D02*
X10505000Y-14632214D01*
X10505000Y-14632214D02*
X10514524Y-14613167D01*
X10514524Y-14613167D02*
X10533572Y-14603643D01*
X10533572Y-14603643D02*
X10562143Y-14603643D01*
X10562143Y-14603643D02*
X10581191Y-14613167D01*
X10657381Y-14813167D02*
X10666905Y-14803643D01*
X10666905Y-14803643D02*
X10685953Y-14775071D01*
X10685953Y-14775071D02*
X10695476Y-14756024D01*
X10695476Y-14756024D02*
X10705000Y-14727452D01*
X10705000Y-14727452D02*
X10714524Y-14679833D01*
X10714524Y-14679833D02*
X10714524Y-14641738D01*
X10714524Y-14641738D02*
X10705000Y-14594119D01*
X10705000Y-14594119D02*
X10695476Y-14565548D01*
X10695476Y-14565548D02*
X10685953Y-14546500D01*
X10685953Y-14546500D02*
X10666905Y-14517928D01*
X10666905Y-14517928D02*
X10657381Y-14508405D01*
X10986905Y-14813167D02*
X10977381Y-14803643D01*
X10977381Y-14803643D02*
X10958334Y-14775071D01*
X10958334Y-14775071D02*
X10948810Y-14756024D01*
X10948810Y-14756024D02*
X10939286Y-14727452D01*
X10939286Y-14727452D02*
X10929762Y-14679833D01*
X10929762Y-14679833D02*
X10929762Y-14641738D01*
X10929762Y-14641738D02*
X10939286Y-14594119D01*
X10939286Y-14594119D02*
X10948810Y-14565548D01*
X10948810Y-14565548D02*
X10958334Y-14546500D01*
X10958334Y-14546500D02*
X10977381Y-14517928D01*
X10977381Y-14517928D02*
X10986905Y-14508405D01*
X11063095Y-14603643D02*
X11063095Y-14736976D01*
X11063095Y-14622690D02*
X11072619Y-14613167D01*
X11072619Y-14613167D02*
X11091667Y-14603643D01*
X11091667Y-14603643D02*
X11120238Y-14603643D01*
X11120238Y-14603643D02*
X11139286Y-14613167D01*
X11139286Y-14613167D02*
X11148810Y-14632214D01*
X11148810Y-14632214D02*
X11148810Y-14736976D01*
X11272619Y-14736976D02*
X11253572Y-14727452D01*
X11253572Y-14727452D02*
X11244048Y-14717928D01*
X11244048Y-14717928D02*
X11234524Y-14698881D01*
X11234524Y-14698881D02*
X11234524Y-14641738D01*
X11234524Y-14641738D02*
X11244048Y-14622690D01*
X11244048Y-14622690D02*
X11253572Y-14613167D01*
X11253572Y-14613167D02*
X11272619Y-14603643D01*
X11272619Y-14603643D02*
X11301191Y-14603643D01*
X11301191Y-14603643D02*
X11320238Y-14613167D01*
X11320238Y-14613167D02*
X11329762Y-14622690D01*
X11329762Y-14622690D02*
X11339286Y-14641738D01*
X11339286Y-14641738D02*
X11339286Y-14698881D01*
X11339286Y-14698881D02*
X11329762Y-14717928D01*
X11329762Y-14717928D02*
X11320238Y-14727452D01*
X11320238Y-14727452D02*
X11301191Y-14736976D01*
X11301191Y-14736976D02*
X11272619Y-14736976D01*
X11396429Y-14603643D02*
X11472619Y-14603643D01*
X11425000Y-14536976D02*
X11425000Y-14708405D01*
X11425000Y-14708405D02*
X11434524Y-14727452D01*
X11434524Y-14727452D02*
X11453572Y-14736976D01*
X11453572Y-14736976D02*
X11472619Y-14736976D01*
X11659286Y-14603643D02*
X11659286Y-14803643D01*
X11659286Y-14613167D02*
X11678333Y-14603643D01*
X11678333Y-14603643D02*
X11716429Y-14603643D01*
X11716429Y-14603643D02*
X11735476Y-14613167D01*
X11735476Y-14613167D02*
X11745000Y-14622690D01*
X11745000Y-14622690D02*
X11754524Y-14641738D01*
X11754524Y-14641738D02*
X11754524Y-14698881D01*
X11754524Y-14698881D02*
X11745000Y-14717928D01*
X11745000Y-14717928D02*
X11735476Y-14727452D01*
X11735476Y-14727452D02*
X11716429Y-14736976D01*
X11716429Y-14736976D02*
X11678333Y-14736976D01*
X11678333Y-14736976D02*
X11659286Y-14727452D01*
X11868810Y-14736976D02*
X11849762Y-14727452D01*
X11849762Y-14727452D02*
X11840238Y-14708405D01*
X11840238Y-14708405D02*
X11840238Y-14536976D01*
X12030714Y-14736976D02*
X12030714Y-14632214D01*
X12030714Y-14632214D02*
X12021191Y-14613167D01*
X12021191Y-14613167D02*
X12002143Y-14603643D01*
X12002143Y-14603643D02*
X11964048Y-14603643D01*
X11964048Y-14603643D02*
X11945000Y-14613167D01*
X12030714Y-14727452D02*
X12011667Y-14736976D01*
X12011667Y-14736976D02*
X11964048Y-14736976D01*
X11964048Y-14736976D02*
X11945000Y-14727452D01*
X11945000Y-14727452D02*
X11935476Y-14708405D01*
X11935476Y-14708405D02*
X11935476Y-14689357D01*
X11935476Y-14689357D02*
X11945000Y-14670309D01*
X11945000Y-14670309D02*
X11964048Y-14660786D01*
X11964048Y-14660786D02*
X12011667Y-14660786D01*
X12011667Y-14660786D02*
X12030714Y-14651262D01*
X12097381Y-14603643D02*
X12173572Y-14603643D01*
X12125953Y-14536976D02*
X12125953Y-14708405D01*
X12125953Y-14708405D02*
X12135476Y-14727452D01*
X12135476Y-14727452D02*
X12154524Y-14736976D01*
X12154524Y-14736976D02*
X12173572Y-14736976D01*
X12316429Y-14727452D02*
X12297381Y-14736976D01*
X12297381Y-14736976D02*
X12259286Y-14736976D01*
X12259286Y-14736976D02*
X12240238Y-14727452D01*
X12240238Y-14727452D02*
X12230714Y-14708405D01*
X12230714Y-14708405D02*
X12230714Y-14632214D01*
X12230714Y-14632214D02*
X12240238Y-14613167D01*
X12240238Y-14613167D02*
X12259286Y-14603643D01*
X12259286Y-14603643D02*
X12297381Y-14603643D01*
X12297381Y-14603643D02*
X12316429Y-14613167D01*
X12316429Y-14613167D02*
X12325953Y-14632214D01*
X12325953Y-14632214D02*
X12325953Y-14651262D01*
X12325953Y-14651262D02*
X12230714Y-14670309D01*
X12497381Y-14736976D02*
X12497381Y-14536976D01*
X12497381Y-14727452D02*
X12478334Y-14736976D01*
X12478334Y-14736976D02*
X12440238Y-14736976D01*
X12440238Y-14736976D02*
X12421191Y-14727452D01*
X12421191Y-14727452D02*
X12411667Y-14717928D01*
X12411667Y-14717928D02*
X12402143Y-14698881D01*
X12402143Y-14698881D02*
X12402143Y-14641738D01*
X12402143Y-14641738D02*
X12411667Y-14622690D01*
X12411667Y-14622690D02*
X12421191Y-14613167D01*
X12421191Y-14613167D02*
X12440238Y-14603643D01*
X12440238Y-14603643D02*
X12478334Y-14603643D01*
X12478334Y-14603643D02*
X12497381Y-14613167D01*
X12573572Y-14813167D02*
X12583095Y-14803643D01*
X12583095Y-14803643D02*
X12602143Y-14775071D01*
X12602143Y-14775071D02*
X12611667Y-14756024D01*
X12611667Y-14756024D02*
X12621191Y-14727452D01*
X12621191Y-14727452D02*
X12630714Y-14679833D01*
X12630714Y-14679833D02*
X12630714Y-14641738D01*
X12630714Y-14641738D02*
X12621191Y-14594119D01*
X12621191Y-14594119D02*
X12611667Y-14565548D01*
X12611667Y-14565548D02*
X12602143Y-14546500D01*
X12602143Y-14546500D02*
X12583095Y-14517928D01*
X12583095Y-14517928D02*
X12573572Y-14508405D01*
M02*
