M48
; DRILL file {KiCad 9.0.7-9.0.7~ubuntu24.04.1} date 2026-02-14T10:07:37+0000
; FORMAT={-:-/ absolute / metric / decimal}
; #@! TF.CreationDate,2026-02-14T10:07:37+00:00
; #@! TF.GenerationSoftware,Kicad,Pcbnew,9.0.7-9.0.7~ubuntu24.04.1
; #@! TF.FileFunction,Plated,1,2,PTH
FMAT,2
METRIC
; #@! TA.AperFunction,Plated,PTH,ViaDrill
T1C0.400
; #@! TA.AperFunction,Plated,PTH,ComponentDrill
T2C0.750
; #@! TA.AperFunction,Plated,PTH,ComponentDrill
T3C0.800
; #@! TA.AperFunction,Plated,PTH,ComponentDrill
T4C1.000
%
G90
G05
T1
X61.112Y-99.466
X63.754Y-96.266
X65.062Y-85.377
X65.062Y-87.257
X67.31Y-80.899
X67.31Y-90.17
X67.31Y-92.964
X70.701Y-90.305
X70.701Y-96.401
X70.866Y-100.584
X72.266Y-82.833
X73.291Y-83.9
X73.586Y-93.908
X73.637Y-92.079
X73.637Y-92.942
X74.295Y-102.87
X74.93Y-101.6
X75.54Y-93.726
X75.565Y-102.235
X75.618Y-99.14
X75.946Y-95.098
X76.2Y-100.965
X76.634Y-99.14
X77.142Y-92.739
X77.142Y-94.111
X77.701Y-99.14
X77.826Y-94.945
X77.854Y-92.13
X77.854Y-93.45
X77.863Y-87.05
X77.863Y-88.066
X77.904Y-86.034
X77.904Y-89.082
X79.375Y-80.645
X79.756Y-102.87
X82.296Y-92.71
X83.312Y-83.566
X84.074Y-91.44
X84.103Y-97.76
X84.103Y-102.332
X86.868Y-124.206
X89.512Y-102.509
X89.691Y-92.172
X90.932Y-93.218
X92.075Y-97.282
X93.218Y-104.902
X93.247Y-102.586
X95.787Y-102.586
X96.774Y-123.698
X98.327Y-102.586
X100.076Y-86.614
X102.108Y-81.28
X103.944Y-84.18
X103.944Y-91.165
X107.696Y-94.996
X107.754Y-87.99
X116.078Y-125.476
X116.078Y-128.524
T2
X81.28Y-108.966
X81.28Y-110.966
X81.28Y-112.966
X81.28Y-114.966
T3
X86.337Y-84.744
X86.337Y-87.284
X86.337Y-89.824
X92.687Y-84.744
X92.687Y-92.364
X93.256Y-108.0
X93.256Y-115.62
X95.227Y-84.744
X95.227Y-92.364
X95.796Y-108.0
X95.796Y-115.62
X97.767Y-84.744
X97.767Y-92.364
X98.336Y-108.0
X98.336Y-115.62
X100.307Y-84.744
X100.307Y-92.364
X100.876Y-108.0
X100.876Y-115.62
T4
X62.23Y-111.76
X62.23Y-114.3
X62.23Y-119.38
X62.23Y-121.92
X62.245Y-101.6
X62.245Y-104.14
X62.245Y-106.68
X62.245Y-109.22
X62.245Y-116.84
X64.77Y-111.76
X64.77Y-114.3
X64.77Y-119.38
X64.77Y-121.92
X64.785Y-101.6
X64.785Y-104.14
X64.785Y-106.68
X64.785Y-109.22
X64.785Y-116.84
X67.31Y-111.76
X67.31Y-114.3
X67.31Y-119.38
X67.31Y-121.92
X67.325Y-101.6
X67.325Y-104.14
X67.325Y-106.68
X67.325Y-109.22
X67.325Y-116.84
X69.463Y-127.06
X69.596Y-78.74
X72.003Y-127.06
X72.136Y-78.74
X74.543Y-127.06
X74.676Y-78.74
X77.216Y-78.74
X78.74Y-127.0
X79.756Y-78.74
X79.771Y-120.015
X81.28Y-127.0
X82.296Y-78.74
X82.311Y-120.015
X83.82Y-127.0
X84.836Y-78.74
X84.851Y-120.015
X86.36Y-127.0
X87.376Y-78.74
X88.9Y-127.0
X89.916Y-78.74
X91.44Y-127.0
X92.456Y-78.74
X93.98Y-127.0
X96.52Y-78.74
X96.52Y-127.0
X99.06Y-78.74
X100.98Y-120.015
X101.6Y-78.74
X101.6Y-127.0
X103.52Y-120.015
X104.14Y-78.74
X104.14Y-127.0
X106.06Y-120.015
X106.68Y-78.74
X106.68Y-127.0
X109.22Y-78.74
X109.22Y-127.0
X111.76Y-78.74
X111.76Y-127.0
X111.788Y-83.88
X111.788Y-86.42
X111.788Y-88.96
X111.788Y-99.12
X111.788Y-101.66
X111.788Y-104.2
X111.788Y-106.74
X111.788Y-109.28
X111.788Y-111.82
X111.788Y-114.36
X111.788Y-116.9
X114.3Y-78.74
X114.3Y-127.0
X114.328Y-83.88
X114.328Y-86.42
X114.328Y-88.96
X114.328Y-99.12
X114.328Y-101.66
X114.328Y-104.2
X114.328Y-106.74
X114.328Y-109.28
X114.328Y-111.82
X114.328Y-114.36
X114.328Y-116.9
X116.868Y-83.88
X116.868Y-86.42
X116.868Y-88.96
X116.868Y-99.12
X116.868Y-101.66
X116.868Y-104.2
X116.868Y-106.74
X116.868Y-109.28
X116.868Y-111.82
X116.868Y-114.36
X116.868Y-116.9
M30
