%TF.GenerationSoftware,KiCad,Pcbnew,9.0.7-9.0.7~ubuntu24.04.1*%
%TF.CreationDate,2026-02-14T10:07:46+00:00*%
%TF.ProjectId,ArdynoMon,41726479-6e6f-44d6-9f6e-2e6b69636164,Rev 3.6*%
%TF.SameCoordinates,Original*%
%TF.FileFunction,Legend,Bot*%
%TF.FilePolarity,Positive*%
%FSLAX46Y46*%
G04 Gerber Fmt 4.6, Leading zero omitted, Abs format (unit mm)*
G04 Created by KiCad (PCBNEW 9.0.7-9.0.7~ubuntu24.04.1) date 2026-02-14 10:07:46*
%MOMM*%
%LPD*%
G01*
G04 APERTURE LIST*
%ADD10C,0.150000*%
%ADD11C,0.120000*%
G04 APERTURE END LIST*
D10*
X107374483Y-92843183D02*
X107374483Y-92443183D01*
X107374483Y-92643183D02*
X106674483Y-92643183D01*
X106674483Y-92643183D02*
X106774483Y-92576516D01*
X106774483Y-92576516D02*
X106841150Y-92509850D01*
X106841150Y-92509850D02*
X106874483Y-92443183D01*
X106674483Y-93276517D02*
X106674483Y-93343183D01*
X106674483Y-93343183D02*
X106707816Y-93409850D01*
X106707816Y-93409850D02*
X106741150Y-93443183D01*
X106741150Y-93443183D02*
X106807816Y-93476517D01*
X106807816Y-93476517D02*
X106941150Y-93509850D01*
X106941150Y-93509850D02*
X107107816Y-93509850D01*
X107107816Y-93509850D02*
X107241150Y-93476517D01*
X107241150Y-93476517D02*
X107307816Y-93443183D01*
X107307816Y-93443183D02*
X107341150Y-93409850D01*
X107341150Y-93409850D02*
X107374483Y-93343183D01*
X107374483Y-93343183D02*
X107374483Y-93276517D01*
X107374483Y-93276517D02*
X107341150Y-93209850D01*
X107341150Y-93209850D02*
X107307816Y-93176517D01*
X107307816Y-93176517D02*
X107241150Y-93143183D01*
X107241150Y-93143183D02*
X107107816Y-93109850D01*
X107107816Y-93109850D02*
X106941150Y-93109850D01*
X106941150Y-93109850D02*
X106807816Y-93143183D01*
X106807816Y-93143183D02*
X106741150Y-93176517D01*
X106741150Y-93176517D02*
X106707816Y-93209850D01*
X106707816Y-93209850D02*
X106674483Y-93276517D01*
X107374483Y-93809850D02*
X106674483Y-93809850D01*
X107107816Y-93876517D02*
X107374483Y-94076517D01*
X106907816Y-94076517D02*
X107174483Y-93809850D01*
X107288450Y-88915383D02*
X107688450Y-88915383D01*
X107488450Y-88915383D02*
X107488450Y-88215383D01*
X107488450Y-88215383D02*
X107555117Y-88315383D01*
X107555117Y-88315383D02*
X107621784Y-88382050D01*
X107621784Y-88382050D02*
X107688450Y-88415383D01*
X106988450Y-88915383D02*
X106988450Y-88215383D01*
X106988450Y-88215383D02*
X106588450Y-88915383D01*
X106588450Y-88915383D02*
X106588450Y-88215383D01*
X105955117Y-88448716D02*
X105955117Y-88915383D01*
X106121784Y-88182050D02*
X106288450Y-88682050D01*
X106288450Y-88682050D02*
X105855117Y-88682050D01*
X105221783Y-88915383D02*
X105621783Y-88915383D01*
X105421783Y-88915383D02*
X105421783Y-88215383D01*
X105421783Y-88215383D02*
X105488450Y-88315383D01*
X105488450Y-88315383D02*
X105555117Y-88382050D01*
X105555117Y-88382050D02*
X105621783Y-88415383D01*
X104621783Y-88448716D02*
X104621783Y-88915383D01*
X104788450Y-88182050D02*
X104955116Y-88682050D01*
X104955116Y-88682050D02*
X104521783Y-88682050D01*
X104155116Y-88515383D02*
X104221783Y-88482050D01*
X104221783Y-88482050D02*
X104255116Y-88448716D01*
X104255116Y-88448716D02*
X104288449Y-88382050D01*
X104288449Y-88382050D02*
X104288449Y-88348716D01*
X104288449Y-88348716D02*
X104255116Y-88282050D01*
X104255116Y-88282050D02*
X104221783Y-88248716D01*
X104221783Y-88248716D02*
X104155116Y-88215383D01*
X104155116Y-88215383D02*
X104021783Y-88215383D01*
X104021783Y-88215383D02*
X103955116Y-88248716D01*
X103955116Y-88248716D02*
X103921783Y-88282050D01*
X103921783Y-88282050D02*
X103888449Y-88348716D01*
X103888449Y-88348716D02*
X103888449Y-88382050D01*
X103888449Y-88382050D02*
X103921783Y-88448716D01*
X103921783Y-88448716D02*
X103955116Y-88482050D01*
X103955116Y-88482050D02*
X104021783Y-88515383D01*
X104021783Y-88515383D02*
X104155116Y-88515383D01*
X104155116Y-88515383D02*
X104221783Y-88548716D01*
X104221783Y-88548716D02*
X104255116Y-88582050D01*
X104255116Y-88582050D02*
X104288449Y-88648716D01*
X104288449Y-88648716D02*
X104288449Y-88782050D01*
X104288449Y-88782050D02*
X104255116Y-88848716D01*
X104255116Y-88848716D02*
X104221783Y-88882050D01*
X104221783Y-88882050D02*
X104155116Y-88915383D01*
X104155116Y-88915383D02*
X104021783Y-88915383D01*
X104021783Y-88915383D02*
X103955116Y-88882050D01*
X103955116Y-88882050D02*
X103921783Y-88848716D01*
X103921783Y-88848716D02*
X103888449Y-88782050D01*
X103888449Y-88782050D02*
X103888449Y-88648716D01*
X103888449Y-88648716D02*
X103921783Y-88582050D01*
X103921783Y-88582050D02*
X103955116Y-88548716D01*
X103955116Y-88548716D02*
X104021783Y-88515383D01*
X75357733Y-89216033D02*
X75757733Y-89216033D01*
X75557733Y-89216033D02*
X75557733Y-88516033D01*
X75557733Y-88516033D02*
X75624400Y-88616033D01*
X75624400Y-88616033D02*
X75691067Y-88682700D01*
X75691067Y-88682700D02*
X75757733Y-88716033D01*
X74924400Y-88516033D02*
X74857733Y-88516033D01*
X74857733Y-88516033D02*
X74791066Y-88549366D01*
X74791066Y-88549366D02*
X74757733Y-88582700D01*
X74757733Y-88582700D02*
X74724400Y-88649366D01*
X74724400Y-88649366D02*
X74691066Y-88782700D01*
X74691066Y-88782700D02*
X74691066Y-88949366D01*
X74691066Y-88949366D02*
X74724400Y-89082700D01*
X74724400Y-89082700D02*
X74757733Y-89149366D01*
X74757733Y-89149366D02*
X74791066Y-89182700D01*
X74791066Y-89182700D02*
X74857733Y-89216033D01*
X74857733Y-89216033D02*
X74924400Y-89216033D01*
X74924400Y-89216033D02*
X74991066Y-89182700D01*
X74991066Y-89182700D02*
X75024400Y-89149366D01*
X75024400Y-89149366D02*
X75057733Y-89082700D01*
X75057733Y-89082700D02*
X75091066Y-88949366D01*
X75091066Y-88949366D02*
X75091066Y-88782700D01*
X75091066Y-88782700D02*
X75057733Y-88649366D01*
X75057733Y-88649366D02*
X75024400Y-88582700D01*
X75024400Y-88582700D02*
X74991066Y-88549366D01*
X74991066Y-88549366D02*
X74924400Y-88516033D01*
X74257733Y-88516033D02*
X74191066Y-88516033D01*
X74191066Y-88516033D02*
X74124399Y-88549366D01*
X74124399Y-88549366D02*
X74091066Y-88582700D01*
X74091066Y-88582700D02*
X74057733Y-88649366D01*
X74057733Y-88649366D02*
X74024399Y-88782700D01*
X74024399Y-88782700D02*
X74024399Y-88949366D01*
X74024399Y-88949366D02*
X74057733Y-89082700D01*
X74057733Y-89082700D02*
X74091066Y-89149366D01*
X74091066Y-89149366D02*
X74124399Y-89182700D01*
X74124399Y-89182700D02*
X74191066Y-89216033D01*
X74191066Y-89216033D02*
X74257733Y-89216033D01*
X74257733Y-89216033D02*
X74324399Y-89182700D01*
X74324399Y-89182700D02*
X74357733Y-89149366D01*
X74357733Y-89149366D02*
X74391066Y-89082700D01*
X74391066Y-89082700D02*
X74424399Y-88949366D01*
X74424399Y-88949366D02*
X74424399Y-88782700D01*
X74424399Y-88782700D02*
X74391066Y-88649366D01*
X74391066Y-88649366D02*
X74357733Y-88582700D01*
X74357733Y-88582700D02*
X74324399Y-88549366D01*
X74324399Y-88549366D02*
X74257733Y-88516033D01*
X73724399Y-88749366D02*
X73724399Y-89216033D01*
X73724399Y-88816033D02*
X73691066Y-88782700D01*
X73691066Y-88782700D02*
X73624399Y-88749366D01*
X73624399Y-88749366D02*
X73524399Y-88749366D01*
X73524399Y-88749366D02*
X73457732Y-88782700D01*
X73457732Y-88782700D02*
X73424399Y-88849366D01*
X73424399Y-88849366D02*
X73424399Y-89216033D01*
X101168200Y-96117966D02*
X101068200Y-96151300D01*
X101068200Y-96151300D02*
X101034866Y-96184633D01*
X101034866Y-96184633D02*
X101001533Y-96251300D01*
X101001533Y-96251300D02*
X101001533Y-96351300D01*
X101001533Y-96351300D02*
X101034866Y-96417966D01*
X101034866Y-96417966D02*
X101068200Y-96451300D01*
X101068200Y-96451300D02*
X101134866Y-96484633D01*
X101134866Y-96484633D02*
X101401533Y-96484633D01*
X101401533Y-96484633D02*
X101401533Y-95784633D01*
X101401533Y-95784633D02*
X101168200Y-95784633D01*
X101168200Y-95784633D02*
X101101533Y-95817966D01*
X101101533Y-95817966D02*
X101068200Y-95851300D01*
X101068200Y-95851300D02*
X101034866Y-95917966D01*
X101034866Y-95917966D02*
X101034866Y-95984633D01*
X101034866Y-95984633D02*
X101068200Y-96051300D01*
X101068200Y-96051300D02*
X101101533Y-96084633D01*
X101101533Y-96084633D02*
X101168200Y-96117966D01*
X101168200Y-96117966D02*
X101401533Y-96117966D01*
X100301533Y-96417966D02*
X100334866Y-96451300D01*
X100334866Y-96451300D02*
X100434866Y-96484633D01*
X100434866Y-96484633D02*
X100501533Y-96484633D01*
X100501533Y-96484633D02*
X100601533Y-96451300D01*
X100601533Y-96451300D02*
X100668200Y-96384633D01*
X100668200Y-96384633D02*
X100701533Y-96317966D01*
X100701533Y-96317966D02*
X100734866Y-96184633D01*
X100734866Y-96184633D02*
X100734866Y-96084633D01*
X100734866Y-96084633D02*
X100701533Y-95951300D01*
X100701533Y-95951300D02*
X100668200Y-95884633D01*
X100668200Y-95884633D02*
X100601533Y-95817966D01*
X100601533Y-95817966D02*
X100501533Y-95784633D01*
X100501533Y-95784633D02*
X100434866Y-95784633D01*
X100434866Y-95784633D02*
X100334866Y-95817966D01*
X100334866Y-95817966D02*
X100301533Y-95851300D01*
X99901533Y-96084633D02*
X99968200Y-96051300D01*
X99968200Y-96051300D02*
X100001533Y-96017966D01*
X100001533Y-96017966D02*
X100034866Y-95951300D01*
X100034866Y-95951300D02*
X100034866Y-95917966D01*
X100034866Y-95917966D02*
X100001533Y-95851300D01*
X100001533Y-95851300D02*
X99968200Y-95817966D01*
X99968200Y-95817966D02*
X99901533Y-95784633D01*
X99901533Y-95784633D02*
X99768200Y-95784633D01*
X99768200Y-95784633D02*
X99701533Y-95817966D01*
X99701533Y-95817966D02*
X99668200Y-95851300D01*
X99668200Y-95851300D02*
X99634866Y-95917966D01*
X99634866Y-95917966D02*
X99634866Y-95951300D01*
X99634866Y-95951300D02*
X99668200Y-96017966D01*
X99668200Y-96017966D02*
X99701533Y-96051300D01*
X99701533Y-96051300D02*
X99768200Y-96084633D01*
X99768200Y-96084633D02*
X99901533Y-96084633D01*
X99901533Y-96084633D02*
X99968200Y-96117966D01*
X99968200Y-96117966D02*
X100001533Y-96151300D01*
X100001533Y-96151300D02*
X100034866Y-96217966D01*
X100034866Y-96217966D02*
X100034866Y-96351300D01*
X100034866Y-96351300D02*
X100001533Y-96417966D01*
X100001533Y-96417966D02*
X99968200Y-96451300D01*
X99968200Y-96451300D02*
X99901533Y-96484633D01*
X99901533Y-96484633D02*
X99768200Y-96484633D01*
X99768200Y-96484633D02*
X99701533Y-96451300D01*
X99701533Y-96451300D02*
X99668200Y-96417966D01*
X99668200Y-96417966D02*
X99634866Y-96351300D01*
X99634866Y-96351300D02*
X99634866Y-96217966D01*
X99634866Y-96217966D02*
X99668200Y-96151300D01*
X99668200Y-96151300D02*
X99701533Y-96117966D01*
X99701533Y-96117966D02*
X99768200Y-96084633D01*
X99034866Y-96017966D02*
X99034866Y-96484633D01*
X99201533Y-95751300D02*
X99368199Y-96251300D01*
X99368199Y-96251300D02*
X98934866Y-96251300D01*
X98734866Y-95784633D02*
X98268199Y-95784633D01*
X98268199Y-95784633D02*
X98568199Y-96484633D01*
X101545300Y-99817033D02*
X101945300Y-99817033D01*
X101745300Y-99817033D02*
X101745300Y-99117033D01*
X101745300Y-99117033D02*
X101811967Y-99217033D01*
X101811967Y-99217033D02*
X101878634Y-99283700D01*
X101878634Y-99283700D02*
X101945300Y-99317033D01*
X101245300Y-99817033D02*
X101245300Y-99117033D01*
X101245300Y-99117033D02*
X100845300Y-99817033D01*
X100845300Y-99817033D02*
X100845300Y-99117033D01*
X100211967Y-99350366D02*
X100211967Y-99817033D01*
X100378634Y-99083700D02*
X100545300Y-99583700D01*
X100545300Y-99583700D02*
X100111967Y-99583700D01*
X99478633Y-99817033D02*
X99878633Y-99817033D01*
X99678633Y-99817033D02*
X99678633Y-99117033D01*
X99678633Y-99117033D02*
X99745300Y-99217033D01*
X99745300Y-99217033D02*
X99811967Y-99283700D01*
X99811967Y-99283700D02*
X99878633Y-99317033D01*
X98878633Y-99350366D02*
X98878633Y-99817033D01*
X99045300Y-99083700D02*
X99211966Y-99583700D01*
X99211966Y-99583700D02*
X98778633Y-99583700D01*
X98411966Y-99417033D02*
X98478633Y-99383700D01*
X98478633Y-99383700D02*
X98511966Y-99350366D01*
X98511966Y-99350366D02*
X98545299Y-99283700D01*
X98545299Y-99283700D02*
X98545299Y-99250366D01*
X98545299Y-99250366D02*
X98511966Y-99183700D01*
X98511966Y-99183700D02*
X98478633Y-99150366D01*
X98478633Y-99150366D02*
X98411966Y-99117033D01*
X98411966Y-99117033D02*
X98278633Y-99117033D01*
X98278633Y-99117033D02*
X98211966Y-99150366D01*
X98211966Y-99150366D02*
X98178633Y-99183700D01*
X98178633Y-99183700D02*
X98145299Y-99250366D01*
X98145299Y-99250366D02*
X98145299Y-99283700D01*
X98145299Y-99283700D02*
X98178633Y-99350366D01*
X98178633Y-99350366D02*
X98211966Y-99383700D01*
X98211966Y-99383700D02*
X98278633Y-99417033D01*
X98278633Y-99417033D02*
X98411966Y-99417033D01*
X98411966Y-99417033D02*
X98478633Y-99450366D01*
X98478633Y-99450366D02*
X98511966Y-99483700D01*
X98511966Y-99483700D02*
X98545299Y-99550366D01*
X98545299Y-99550366D02*
X98545299Y-99683700D01*
X98545299Y-99683700D02*
X98511966Y-99750366D01*
X98511966Y-99750366D02*
X98478633Y-99783700D01*
X98478633Y-99783700D02*
X98411966Y-99817033D01*
X98411966Y-99817033D02*
X98278633Y-99817033D01*
X98278633Y-99817033D02*
X98211966Y-99783700D01*
X98211966Y-99783700D02*
X98178633Y-99750366D01*
X98178633Y-99750366D02*
X98145299Y-99683700D01*
X98145299Y-99683700D02*
X98145299Y-99550366D01*
X98145299Y-99550366D02*
X98178633Y-99483700D01*
X98178633Y-99483700D02*
X98211966Y-99450366D01*
X98211966Y-99450366D02*
X98278633Y-99417033D01*
X77786033Y-82782666D02*
X77786033Y-82382666D01*
X77786033Y-82582666D02*
X77086033Y-82582666D01*
X77086033Y-82582666D02*
X77186033Y-82515999D01*
X77186033Y-82515999D02*
X77252700Y-82449333D01*
X77252700Y-82449333D02*
X77286033Y-82382666D01*
X77086033Y-83216000D02*
X77086033Y-83282666D01*
X77086033Y-83282666D02*
X77119366Y-83349333D01*
X77119366Y-83349333D02*
X77152700Y-83382666D01*
X77152700Y-83382666D02*
X77219366Y-83416000D01*
X77219366Y-83416000D02*
X77352700Y-83449333D01*
X77352700Y-83449333D02*
X77519366Y-83449333D01*
X77519366Y-83449333D02*
X77652700Y-83416000D01*
X77652700Y-83416000D02*
X77719366Y-83382666D01*
X77719366Y-83382666D02*
X77752700Y-83349333D01*
X77752700Y-83349333D02*
X77786033Y-83282666D01*
X77786033Y-83282666D02*
X77786033Y-83216000D01*
X77786033Y-83216000D02*
X77752700Y-83149333D01*
X77752700Y-83149333D02*
X77719366Y-83116000D01*
X77719366Y-83116000D02*
X77652700Y-83082666D01*
X77652700Y-83082666D02*
X77519366Y-83049333D01*
X77519366Y-83049333D02*
X77352700Y-83049333D01*
X77352700Y-83049333D02*
X77219366Y-83082666D01*
X77219366Y-83082666D02*
X77152700Y-83116000D01*
X77152700Y-83116000D02*
X77119366Y-83149333D01*
X77119366Y-83149333D02*
X77086033Y-83216000D01*
X77086033Y-83882667D02*
X77086033Y-83949333D01*
X77086033Y-83949333D02*
X77119366Y-84016000D01*
X77119366Y-84016000D02*
X77152700Y-84049333D01*
X77152700Y-84049333D02*
X77219366Y-84082667D01*
X77219366Y-84082667D02*
X77352700Y-84116000D01*
X77352700Y-84116000D02*
X77519366Y-84116000D01*
X77519366Y-84116000D02*
X77652700Y-84082667D01*
X77652700Y-84082667D02*
X77719366Y-84049333D01*
X77719366Y-84049333D02*
X77752700Y-84016000D01*
X77752700Y-84016000D02*
X77786033Y-83949333D01*
X77786033Y-83949333D02*
X77786033Y-83882667D01*
X77786033Y-83882667D02*
X77752700Y-83816000D01*
X77752700Y-83816000D02*
X77719366Y-83782667D01*
X77719366Y-83782667D02*
X77652700Y-83749333D01*
X77652700Y-83749333D02*
X77519366Y-83716000D01*
X77519366Y-83716000D02*
X77352700Y-83716000D01*
X77352700Y-83716000D02*
X77219366Y-83749333D01*
X77219366Y-83749333D02*
X77152700Y-83782667D01*
X77152700Y-83782667D02*
X77119366Y-83816000D01*
X77119366Y-83816000D02*
X77086033Y-83882667D01*
X77319366Y-84416000D02*
X77786033Y-84416000D01*
X77386033Y-84416000D02*
X77352700Y-84449334D01*
X77352700Y-84449334D02*
X77319366Y-84516000D01*
X77319366Y-84516000D02*
X77319366Y-84616000D01*
X77319366Y-84616000D02*
X77352700Y-84682667D01*
X77352700Y-84682667D02*
X77419366Y-84716000D01*
X77419366Y-84716000D02*
X77786033Y-84716000D01*
X61967999Y-125412700D02*
X61934666Y-125379366D01*
X61934666Y-125379366D02*
X61867999Y-125346033D01*
X61867999Y-125346033D02*
X61701333Y-125346033D01*
X61701333Y-125346033D02*
X61634666Y-125379366D01*
X61634666Y-125379366D02*
X61601333Y-125412700D01*
X61601333Y-125412700D02*
X61567999Y-125479366D01*
X61567999Y-125479366D02*
X61567999Y-125546033D01*
X61567999Y-125546033D02*
X61601333Y-125646033D01*
X61601333Y-125646033D02*
X62001333Y-126046033D01*
X62001333Y-126046033D02*
X61567999Y-126046033D01*
X61301332Y-125846033D02*
X60967999Y-125846033D01*
X61367999Y-126046033D02*
X61134666Y-125346033D01*
X61134666Y-125346033D02*
X60901332Y-126046033D01*
X65682633Y-82751866D02*
X65682633Y-82351866D01*
X65682633Y-82551866D02*
X64982633Y-82551866D01*
X64982633Y-82551866D02*
X65082633Y-82485199D01*
X65082633Y-82485199D02*
X65149300Y-82418533D01*
X65149300Y-82418533D02*
X65182633Y-82351866D01*
X64982633Y-83185200D02*
X64982633Y-83251866D01*
X64982633Y-83251866D02*
X65015966Y-83318533D01*
X65015966Y-83318533D02*
X65049300Y-83351866D01*
X65049300Y-83351866D02*
X65115966Y-83385200D01*
X65115966Y-83385200D02*
X65249300Y-83418533D01*
X65249300Y-83418533D02*
X65415966Y-83418533D01*
X65415966Y-83418533D02*
X65549300Y-83385200D01*
X65549300Y-83385200D02*
X65615966Y-83351866D01*
X65615966Y-83351866D02*
X65649300Y-83318533D01*
X65649300Y-83318533D02*
X65682633Y-83251866D01*
X65682633Y-83251866D02*
X65682633Y-83185200D01*
X65682633Y-83185200D02*
X65649300Y-83118533D01*
X65649300Y-83118533D02*
X65615966Y-83085200D01*
X65615966Y-83085200D02*
X65549300Y-83051866D01*
X65549300Y-83051866D02*
X65415966Y-83018533D01*
X65415966Y-83018533D02*
X65249300Y-83018533D01*
X65249300Y-83018533D02*
X65115966Y-83051866D01*
X65115966Y-83051866D02*
X65049300Y-83085200D01*
X65049300Y-83085200D02*
X65015966Y-83118533D01*
X65015966Y-83118533D02*
X64982633Y-83185200D01*
X64982633Y-83851867D02*
X64982633Y-83918533D01*
X64982633Y-83918533D02*
X65015966Y-83985200D01*
X65015966Y-83985200D02*
X65049300Y-84018533D01*
X65049300Y-84018533D02*
X65115966Y-84051867D01*
X65115966Y-84051867D02*
X65249300Y-84085200D01*
X65249300Y-84085200D02*
X65415966Y-84085200D01*
X65415966Y-84085200D02*
X65549300Y-84051867D01*
X65549300Y-84051867D02*
X65615966Y-84018533D01*
X65615966Y-84018533D02*
X65649300Y-83985200D01*
X65649300Y-83985200D02*
X65682633Y-83918533D01*
X65682633Y-83918533D02*
X65682633Y-83851867D01*
X65682633Y-83851867D02*
X65649300Y-83785200D01*
X65649300Y-83785200D02*
X65615966Y-83751867D01*
X65615966Y-83751867D02*
X65549300Y-83718533D01*
X65549300Y-83718533D02*
X65415966Y-83685200D01*
X65415966Y-83685200D02*
X65249300Y-83685200D01*
X65249300Y-83685200D02*
X65115966Y-83718533D01*
X65115966Y-83718533D02*
X65049300Y-83751867D01*
X65049300Y-83751867D02*
X65015966Y-83785200D01*
X65015966Y-83785200D02*
X64982633Y-83851867D01*
X65215966Y-84385200D02*
X65682633Y-84385200D01*
X65282633Y-84385200D02*
X65249300Y-84418534D01*
X65249300Y-84418534D02*
X65215966Y-84485200D01*
X65215966Y-84485200D02*
X65215966Y-84585200D01*
X65215966Y-84585200D02*
X65249300Y-84651867D01*
X65249300Y-84651867D02*
X65315966Y-84685200D01*
X65315966Y-84685200D02*
X65682633Y-84685200D01*
X96906933Y-86864733D02*
X96206933Y-86864733D01*
X96206933Y-86864733D02*
X96906933Y-87264733D01*
X96906933Y-87264733D02*
X96206933Y-87264733D01*
X96540266Y-87598066D02*
X96540266Y-87831400D01*
X96906933Y-87931400D02*
X96906933Y-87598066D01*
X96906933Y-87598066D02*
X96206933Y-87598066D01*
X96206933Y-87598066D02*
X96206933Y-87931400D01*
X96206933Y-88564733D02*
X96206933Y-88231399D01*
X96206933Y-88231399D02*
X96540266Y-88198066D01*
X96540266Y-88198066D02*
X96506933Y-88231399D01*
X96506933Y-88231399D02*
X96473600Y-88298066D01*
X96473600Y-88298066D02*
X96473600Y-88464733D01*
X96473600Y-88464733D02*
X96506933Y-88531399D01*
X96506933Y-88531399D02*
X96540266Y-88564733D01*
X96540266Y-88564733D02*
X96606933Y-88598066D01*
X96606933Y-88598066D02*
X96773600Y-88598066D01*
X96773600Y-88598066D02*
X96840266Y-88564733D01*
X96840266Y-88564733D02*
X96873600Y-88531399D01*
X96873600Y-88531399D02*
X96906933Y-88464733D01*
X96906933Y-88464733D02*
X96906933Y-88298066D01*
X96906933Y-88298066D02*
X96873600Y-88231399D01*
X96873600Y-88231399D02*
X96840266Y-88198066D01*
X96206933Y-89231400D02*
X96206933Y-88898066D01*
X96206933Y-88898066D02*
X96540266Y-88864733D01*
X96540266Y-88864733D02*
X96506933Y-88898066D01*
X96506933Y-88898066D02*
X96473600Y-88964733D01*
X96473600Y-88964733D02*
X96473600Y-89131400D01*
X96473600Y-89131400D02*
X96506933Y-89198066D01*
X96506933Y-89198066D02*
X96540266Y-89231400D01*
X96540266Y-89231400D02*
X96606933Y-89264733D01*
X96606933Y-89264733D02*
X96773600Y-89264733D01*
X96773600Y-89264733D02*
X96840266Y-89231400D01*
X96840266Y-89231400D02*
X96873600Y-89198066D01*
X96873600Y-89198066D02*
X96906933Y-89131400D01*
X96906933Y-89131400D02*
X96906933Y-88964733D01*
X96906933Y-88964733D02*
X96873600Y-88898066D01*
X96873600Y-88898066D02*
X96840266Y-88864733D01*
X96206933Y-89898067D02*
X96206933Y-89564733D01*
X96206933Y-89564733D02*
X96540266Y-89531400D01*
X96540266Y-89531400D02*
X96506933Y-89564733D01*
X96506933Y-89564733D02*
X96473600Y-89631400D01*
X96473600Y-89631400D02*
X96473600Y-89798067D01*
X96473600Y-89798067D02*
X96506933Y-89864733D01*
X96506933Y-89864733D02*
X96540266Y-89898067D01*
X96540266Y-89898067D02*
X96606933Y-89931400D01*
X96606933Y-89931400D02*
X96773600Y-89931400D01*
X96773600Y-89931400D02*
X96840266Y-89898067D01*
X96840266Y-89898067D02*
X96873600Y-89864733D01*
X96873600Y-89864733D02*
X96906933Y-89798067D01*
X96906933Y-89798067D02*
X96906933Y-89631400D01*
X96906933Y-89631400D02*
X96873600Y-89564733D01*
X96873600Y-89564733D02*
X96840266Y-89531400D01*
X96906933Y-90231400D02*
X96206933Y-90231400D01*
X96206933Y-90231400D02*
X96206933Y-90498067D01*
X96206933Y-90498067D02*
X96240266Y-90564734D01*
X96240266Y-90564734D02*
X96273600Y-90598067D01*
X96273600Y-90598067D02*
X96340266Y-90631400D01*
X96340266Y-90631400D02*
X96440266Y-90631400D01*
X96440266Y-90631400D02*
X96506933Y-90598067D01*
X96506933Y-90598067D02*
X96540266Y-90564734D01*
X96540266Y-90564734D02*
X96573600Y-90498067D01*
X96573600Y-90498067D02*
X96573600Y-90231400D01*
X91851366Y-99766233D02*
X92251366Y-99766233D01*
X92051366Y-99766233D02*
X92051366Y-99066233D01*
X92051366Y-99066233D02*
X92118033Y-99166233D01*
X92118033Y-99166233D02*
X92184700Y-99232900D01*
X92184700Y-99232900D02*
X92251366Y-99266233D01*
X91418033Y-99066233D02*
X91351366Y-99066233D01*
X91351366Y-99066233D02*
X91284699Y-99099566D01*
X91284699Y-99099566D02*
X91251366Y-99132900D01*
X91251366Y-99132900D02*
X91218033Y-99199566D01*
X91218033Y-99199566D02*
X91184699Y-99332900D01*
X91184699Y-99332900D02*
X91184699Y-99499566D01*
X91184699Y-99499566D02*
X91218033Y-99632900D01*
X91218033Y-99632900D02*
X91251366Y-99699566D01*
X91251366Y-99699566D02*
X91284699Y-99732900D01*
X91284699Y-99732900D02*
X91351366Y-99766233D01*
X91351366Y-99766233D02*
X91418033Y-99766233D01*
X91418033Y-99766233D02*
X91484699Y-99732900D01*
X91484699Y-99732900D02*
X91518033Y-99699566D01*
X91518033Y-99699566D02*
X91551366Y-99632900D01*
X91551366Y-99632900D02*
X91584699Y-99499566D01*
X91584699Y-99499566D02*
X91584699Y-99332900D01*
X91584699Y-99332900D02*
X91551366Y-99199566D01*
X91551366Y-99199566D02*
X91518033Y-99132900D01*
X91518033Y-99132900D02*
X91484699Y-99099566D01*
X91484699Y-99099566D02*
X91418033Y-99066233D01*
X90884699Y-99766233D02*
X90884699Y-99066233D01*
X90818032Y-99499566D02*
X90618032Y-99766233D01*
X90618032Y-99299566D02*
X90884699Y-99566233D01*
X89312333Y-94236066D02*
X89312333Y-93836066D01*
X89312333Y-94036066D02*
X88612333Y-94036066D01*
X88612333Y-94036066D02*
X88712333Y-93969399D01*
X88712333Y-93969399D02*
X88779000Y-93902733D01*
X88779000Y-93902733D02*
X88812333Y-93836066D01*
X89312333Y-94536066D02*
X88612333Y-94536066D01*
X89045666Y-94602733D02*
X89312333Y-94802733D01*
X88845666Y-94802733D02*
X89112333Y-94536066D01*
X74865033Y-81471665D02*
X74165033Y-81471665D01*
X74165033Y-81471665D02*
X74165033Y-81638332D01*
X74165033Y-81638332D02*
X74198366Y-81738332D01*
X74198366Y-81738332D02*
X74265033Y-81804999D01*
X74265033Y-81804999D02*
X74331700Y-81838332D01*
X74331700Y-81838332D02*
X74465033Y-81871665D01*
X74465033Y-81871665D02*
X74565033Y-81871665D01*
X74565033Y-81871665D02*
X74698366Y-81838332D01*
X74698366Y-81838332D02*
X74765033Y-81804999D01*
X74765033Y-81804999D02*
X74831700Y-81738332D01*
X74831700Y-81738332D02*
X74865033Y-81638332D01*
X74865033Y-81638332D02*
X74865033Y-81471665D01*
X74831700Y-82138332D02*
X74865033Y-82238332D01*
X74865033Y-82238332D02*
X74865033Y-82404999D01*
X74865033Y-82404999D02*
X74831700Y-82471665D01*
X74831700Y-82471665D02*
X74798366Y-82504999D01*
X74798366Y-82504999D02*
X74731700Y-82538332D01*
X74731700Y-82538332D02*
X74665033Y-82538332D01*
X74665033Y-82538332D02*
X74598366Y-82504999D01*
X74598366Y-82504999D02*
X74565033Y-82471665D01*
X74565033Y-82471665D02*
X74531700Y-82404999D01*
X74531700Y-82404999D02*
X74498366Y-82271665D01*
X74498366Y-82271665D02*
X74465033Y-82204999D01*
X74465033Y-82204999D02*
X74431700Y-82171665D01*
X74431700Y-82171665D02*
X74365033Y-82138332D01*
X74365033Y-82138332D02*
X74298366Y-82138332D01*
X74298366Y-82138332D02*
X74231700Y-82171665D01*
X74231700Y-82171665D02*
X74198366Y-82204999D01*
X74198366Y-82204999D02*
X74165033Y-82271665D01*
X74165033Y-82271665D02*
X74165033Y-82438332D01*
X74165033Y-82438332D02*
X74198366Y-82538332D01*
X74865033Y-83204999D02*
X74865033Y-82804999D01*
X74865033Y-83004999D02*
X74165033Y-83004999D01*
X74165033Y-83004999D02*
X74265033Y-82938332D01*
X74265033Y-82938332D02*
X74331700Y-82871666D01*
X74331700Y-82871666D02*
X74365033Y-82804999D01*
X74165033Y-83438333D02*
X74165033Y-83871666D01*
X74165033Y-83871666D02*
X74431700Y-83638333D01*
X74431700Y-83638333D02*
X74431700Y-83738333D01*
X74431700Y-83738333D02*
X74465033Y-83804999D01*
X74465033Y-83804999D02*
X74498366Y-83838333D01*
X74498366Y-83838333D02*
X74565033Y-83871666D01*
X74565033Y-83871666D02*
X74731700Y-83871666D01*
X74731700Y-83871666D02*
X74798366Y-83838333D01*
X74798366Y-83838333D02*
X74831700Y-83804999D01*
X74831700Y-83804999D02*
X74865033Y-83738333D01*
X74865033Y-83738333D02*
X74865033Y-83538333D01*
X74865033Y-83538333D02*
X74831700Y-83471666D01*
X74831700Y-83471666D02*
X74798366Y-83438333D01*
X74165033Y-84305000D02*
X74165033Y-84371666D01*
X74165033Y-84371666D02*
X74198366Y-84438333D01*
X74198366Y-84438333D02*
X74231700Y-84471666D01*
X74231700Y-84471666D02*
X74298366Y-84505000D01*
X74298366Y-84505000D02*
X74431700Y-84538333D01*
X74431700Y-84538333D02*
X74598366Y-84538333D01*
X74598366Y-84538333D02*
X74731700Y-84505000D01*
X74731700Y-84505000D02*
X74798366Y-84471666D01*
X74798366Y-84471666D02*
X74831700Y-84438333D01*
X74831700Y-84438333D02*
X74865033Y-84371666D01*
X74865033Y-84371666D02*
X74865033Y-84305000D01*
X74865033Y-84305000D02*
X74831700Y-84238333D01*
X74831700Y-84238333D02*
X74798366Y-84205000D01*
X74798366Y-84205000D02*
X74731700Y-84171666D01*
X74731700Y-84171666D02*
X74598366Y-84138333D01*
X74598366Y-84138333D02*
X74431700Y-84138333D01*
X74431700Y-84138333D02*
X74298366Y-84171666D01*
X74298366Y-84171666D02*
X74231700Y-84205000D01*
X74231700Y-84205000D02*
X74198366Y-84238333D01*
X74198366Y-84238333D02*
X74165033Y-84305000D01*
X74165033Y-84771667D02*
X74165033Y-85238333D01*
X74165033Y-85238333D02*
X74865033Y-84938333D01*
X74165033Y-85438334D02*
X74165033Y-85905000D01*
X74165033Y-85905000D02*
X74865033Y-85438334D01*
X74865033Y-85438334D02*
X74865033Y-85905000D01*
X74865033Y-86171667D02*
X74165033Y-86171667D01*
X74165033Y-86171667D02*
X74865033Y-86571667D01*
X74865033Y-86571667D02*
X74165033Y-86571667D01*
X74598366Y-86905000D02*
X74598366Y-87438334D01*
X74865033Y-87171667D02*
X74331700Y-87171667D01*
X92604333Y-94890833D02*
X93004333Y-94890833D01*
X92804333Y-94890833D02*
X92804333Y-94190833D01*
X92804333Y-94190833D02*
X92871000Y-94290833D01*
X92871000Y-94290833D02*
X92937667Y-94357500D01*
X92937667Y-94357500D02*
X93004333Y-94390833D01*
X92171000Y-94190833D02*
X92104333Y-94190833D01*
X92104333Y-94190833D02*
X92037666Y-94224166D01*
X92037666Y-94224166D02*
X92004333Y-94257500D01*
X92004333Y-94257500D02*
X91971000Y-94324166D01*
X91971000Y-94324166D02*
X91937666Y-94457500D01*
X91937666Y-94457500D02*
X91937666Y-94624166D01*
X91937666Y-94624166D02*
X91971000Y-94757500D01*
X91971000Y-94757500D02*
X92004333Y-94824166D01*
X92004333Y-94824166D02*
X92037666Y-94857500D01*
X92037666Y-94857500D02*
X92104333Y-94890833D01*
X92104333Y-94890833D02*
X92171000Y-94890833D01*
X92171000Y-94890833D02*
X92237666Y-94857500D01*
X92237666Y-94857500D02*
X92271000Y-94824166D01*
X92271000Y-94824166D02*
X92304333Y-94757500D01*
X92304333Y-94757500D02*
X92337666Y-94624166D01*
X92337666Y-94624166D02*
X92337666Y-94457500D01*
X92337666Y-94457500D02*
X92304333Y-94324166D01*
X92304333Y-94324166D02*
X92271000Y-94257500D01*
X92271000Y-94257500D02*
X92237666Y-94224166D01*
X92237666Y-94224166D02*
X92171000Y-94190833D01*
X91504333Y-94190833D02*
X91437666Y-94190833D01*
X91437666Y-94190833D02*
X91370999Y-94224166D01*
X91370999Y-94224166D02*
X91337666Y-94257500D01*
X91337666Y-94257500D02*
X91304333Y-94324166D01*
X91304333Y-94324166D02*
X91270999Y-94457500D01*
X91270999Y-94457500D02*
X91270999Y-94624166D01*
X91270999Y-94624166D02*
X91304333Y-94757500D01*
X91304333Y-94757500D02*
X91337666Y-94824166D01*
X91337666Y-94824166D02*
X91370999Y-94857500D01*
X91370999Y-94857500D02*
X91437666Y-94890833D01*
X91437666Y-94890833D02*
X91504333Y-94890833D01*
X91504333Y-94890833D02*
X91570999Y-94857500D01*
X91570999Y-94857500D02*
X91604333Y-94824166D01*
X91604333Y-94824166D02*
X91637666Y-94757500D01*
X91637666Y-94757500D02*
X91670999Y-94624166D01*
X91670999Y-94624166D02*
X91670999Y-94457500D01*
X91670999Y-94457500D02*
X91637666Y-94324166D01*
X91637666Y-94324166D02*
X91604333Y-94257500D01*
X91604333Y-94257500D02*
X91570999Y-94224166D01*
X91570999Y-94224166D02*
X91504333Y-94190833D01*
X90970999Y-94424166D02*
X90970999Y-94890833D01*
X90970999Y-94490833D02*
X90937666Y-94457500D01*
X90937666Y-94457500D02*
X90870999Y-94424166D01*
X90870999Y-94424166D02*
X90770999Y-94424166D01*
X90770999Y-94424166D02*
X90704332Y-94457500D01*
X90704332Y-94457500D02*
X90670999Y-94524166D01*
X90670999Y-94524166D02*
X90670999Y-94890833D01*
X87087000Y-97069966D02*
X87087000Y-97536633D01*
X87253667Y-96803300D02*
X87420333Y-97303300D01*
X87420333Y-97303300D02*
X86987000Y-97303300D01*
X86787000Y-96836633D02*
X86320333Y-96836633D01*
X86320333Y-96836633D02*
X86620333Y-97536633D01*
X85920333Y-96836633D02*
X85853666Y-96836633D01*
X85853666Y-96836633D02*
X85786999Y-96869966D01*
X85786999Y-96869966D02*
X85753666Y-96903300D01*
X85753666Y-96903300D02*
X85720333Y-96969966D01*
X85720333Y-96969966D02*
X85686999Y-97103300D01*
X85686999Y-97103300D02*
X85686999Y-97269966D01*
X85686999Y-97269966D02*
X85720333Y-97403300D01*
X85720333Y-97403300D02*
X85753666Y-97469966D01*
X85753666Y-97469966D02*
X85786999Y-97503300D01*
X85786999Y-97503300D02*
X85853666Y-97536633D01*
X85853666Y-97536633D02*
X85920333Y-97536633D01*
X85920333Y-97536633D02*
X85986999Y-97503300D01*
X85986999Y-97503300D02*
X86020333Y-97469966D01*
X86020333Y-97469966D02*
X86053666Y-97403300D01*
X86053666Y-97403300D02*
X86086999Y-97269966D01*
X86086999Y-97269966D02*
X86086999Y-97103300D01*
X86086999Y-97103300D02*
X86053666Y-96969966D01*
X86053666Y-96969966D02*
X86020333Y-96903300D01*
X86020333Y-96903300D02*
X85986999Y-96869966D01*
X85986999Y-96869966D02*
X85920333Y-96836633D01*
X85386999Y-97536633D02*
X85386999Y-97069966D01*
X85386999Y-97203300D02*
X85353666Y-97136633D01*
X85353666Y-97136633D02*
X85320332Y-97103300D01*
X85320332Y-97103300D02*
X85253666Y-97069966D01*
X85253666Y-97069966D02*
X85186999Y-97069966D01*
X76236333Y-124074033D02*
X76636333Y-124074033D01*
X76436333Y-124074033D02*
X76436333Y-123374033D01*
X76436333Y-123374033D02*
X76503000Y-123474033D01*
X76503000Y-123474033D02*
X76569667Y-123540700D01*
X76569667Y-123540700D02*
X76636333Y-123574033D01*
X75803000Y-123374033D02*
X75736333Y-123374033D01*
X75736333Y-123374033D02*
X75669666Y-123407366D01*
X75669666Y-123407366D02*
X75636333Y-123440700D01*
X75636333Y-123440700D02*
X75603000Y-123507366D01*
X75603000Y-123507366D02*
X75569666Y-123640700D01*
X75569666Y-123640700D02*
X75569666Y-123807366D01*
X75569666Y-123807366D02*
X75603000Y-123940700D01*
X75603000Y-123940700D02*
X75636333Y-124007366D01*
X75636333Y-124007366D02*
X75669666Y-124040700D01*
X75669666Y-124040700D02*
X75736333Y-124074033D01*
X75736333Y-124074033D02*
X75803000Y-124074033D01*
X75803000Y-124074033D02*
X75869666Y-124040700D01*
X75869666Y-124040700D02*
X75903000Y-124007366D01*
X75903000Y-124007366D02*
X75936333Y-123940700D01*
X75936333Y-123940700D02*
X75969666Y-123807366D01*
X75969666Y-123807366D02*
X75969666Y-123640700D01*
X75969666Y-123640700D02*
X75936333Y-123507366D01*
X75936333Y-123507366D02*
X75903000Y-123440700D01*
X75903000Y-123440700D02*
X75869666Y-123407366D01*
X75869666Y-123407366D02*
X75803000Y-123374033D01*
X75136333Y-123374033D02*
X75069666Y-123374033D01*
X75069666Y-123374033D02*
X75002999Y-123407366D01*
X75002999Y-123407366D02*
X74969666Y-123440700D01*
X74969666Y-123440700D02*
X74936333Y-123507366D01*
X74936333Y-123507366D02*
X74902999Y-123640700D01*
X74902999Y-123640700D02*
X74902999Y-123807366D01*
X74902999Y-123807366D02*
X74936333Y-123940700D01*
X74936333Y-123940700D02*
X74969666Y-124007366D01*
X74969666Y-124007366D02*
X75002999Y-124040700D01*
X75002999Y-124040700D02*
X75069666Y-124074033D01*
X75069666Y-124074033D02*
X75136333Y-124074033D01*
X75136333Y-124074033D02*
X75202999Y-124040700D01*
X75202999Y-124040700D02*
X75236333Y-124007366D01*
X75236333Y-124007366D02*
X75269666Y-123940700D01*
X75269666Y-123940700D02*
X75302999Y-123807366D01*
X75302999Y-123807366D02*
X75302999Y-123640700D01*
X75302999Y-123640700D02*
X75269666Y-123507366D01*
X75269666Y-123507366D02*
X75236333Y-123440700D01*
X75236333Y-123440700D02*
X75202999Y-123407366D01*
X75202999Y-123407366D02*
X75136333Y-123374033D01*
X74602999Y-123607366D02*
X74602999Y-124074033D01*
X74602999Y-123674033D02*
X74569666Y-123640700D01*
X74569666Y-123640700D02*
X74502999Y-123607366D01*
X74502999Y-123607366D02*
X74402999Y-123607366D01*
X74402999Y-123607366D02*
X74336332Y-123640700D01*
X74336332Y-123640700D02*
X74302999Y-123707366D01*
X74302999Y-123707366D02*
X74302999Y-124074033D01*
X75357733Y-98639433D02*
X75757733Y-98639433D01*
X75557733Y-98639433D02*
X75557733Y-97939433D01*
X75557733Y-97939433D02*
X75624400Y-98039433D01*
X75624400Y-98039433D02*
X75691067Y-98106100D01*
X75691067Y-98106100D02*
X75757733Y-98139433D01*
X74924400Y-97939433D02*
X74857733Y-97939433D01*
X74857733Y-97939433D02*
X74791066Y-97972766D01*
X74791066Y-97972766D02*
X74757733Y-98006100D01*
X74757733Y-98006100D02*
X74724400Y-98072766D01*
X74724400Y-98072766D02*
X74691066Y-98206100D01*
X74691066Y-98206100D02*
X74691066Y-98372766D01*
X74691066Y-98372766D02*
X74724400Y-98506100D01*
X74724400Y-98506100D02*
X74757733Y-98572766D01*
X74757733Y-98572766D02*
X74791066Y-98606100D01*
X74791066Y-98606100D02*
X74857733Y-98639433D01*
X74857733Y-98639433D02*
X74924400Y-98639433D01*
X74924400Y-98639433D02*
X74991066Y-98606100D01*
X74991066Y-98606100D02*
X75024400Y-98572766D01*
X75024400Y-98572766D02*
X75057733Y-98506100D01*
X75057733Y-98506100D02*
X75091066Y-98372766D01*
X75091066Y-98372766D02*
X75091066Y-98206100D01*
X75091066Y-98206100D02*
X75057733Y-98072766D01*
X75057733Y-98072766D02*
X75024400Y-98006100D01*
X75024400Y-98006100D02*
X74991066Y-97972766D01*
X74991066Y-97972766D02*
X74924400Y-97939433D01*
X74257733Y-97939433D02*
X74191066Y-97939433D01*
X74191066Y-97939433D02*
X74124399Y-97972766D01*
X74124399Y-97972766D02*
X74091066Y-98006100D01*
X74091066Y-98006100D02*
X74057733Y-98072766D01*
X74057733Y-98072766D02*
X74024399Y-98206100D01*
X74024399Y-98206100D02*
X74024399Y-98372766D01*
X74024399Y-98372766D02*
X74057733Y-98506100D01*
X74057733Y-98506100D02*
X74091066Y-98572766D01*
X74091066Y-98572766D02*
X74124399Y-98606100D01*
X74124399Y-98606100D02*
X74191066Y-98639433D01*
X74191066Y-98639433D02*
X74257733Y-98639433D01*
X74257733Y-98639433D02*
X74324399Y-98606100D01*
X74324399Y-98606100D02*
X74357733Y-98572766D01*
X74357733Y-98572766D02*
X74391066Y-98506100D01*
X74391066Y-98506100D02*
X74424399Y-98372766D01*
X74424399Y-98372766D02*
X74424399Y-98206100D01*
X74424399Y-98206100D02*
X74391066Y-98072766D01*
X74391066Y-98072766D02*
X74357733Y-98006100D01*
X74357733Y-98006100D02*
X74324399Y-97972766D01*
X74324399Y-97972766D02*
X74257733Y-97939433D01*
X73724399Y-98172766D02*
X73724399Y-98639433D01*
X73724399Y-98239433D02*
X73691066Y-98206100D01*
X73691066Y-98206100D02*
X73624399Y-98172766D01*
X73624399Y-98172766D02*
X73524399Y-98172766D01*
X73524399Y-98172766D02*
X73457732Y-98206100D01*
X73457732Y-98206100D02*
X73424399Y-98272766D01*
X73424399Y-98272766D02*
X73424399Y-98639433D01*
X96329699Y-95270433D02*
X96729699Y-95270433D01*
X96529699Y-95270433D02*
X96529699Y-94570433D01*
X96529699Y-94570433D02*
X96596366Y-94670433D01*
X96596366Y-94670433D02*
X96663033Y-94737100D01*
X96663033Y-94737100D02*
X96729699Y-94770433D01*
X95896366Y-94570433D02*
X95829699Y-94570433D01*
X95829699Y-94570433D02*
X95763032Y-94603766D01*
X95763032Y-94603766D02*
X95729699Y-94637100D01*
X95729699Y-94637100D02*
X95696366Y-94703766D01*
X95696366Y-94703766D02*
X95663032Y-94837100D01*
X95663032Y-94837100D02*
X95663032Y-95003766D01*
X95663032Y-95003766D02*
X95696366Y-95137100D01*
X95696366Y-95137100D02*
X95729699Y-95203766D01*
X95729699Y-95203766D02*
X95763032Y-95237100D01*
X95763032Y-95237100D02*
X95829699Y-95270433D01*
X95829699Y-95270433D02*
X95896366Y-95270433D01*
X95896366Y-95270433D02*
X95963032Y-95237100D01*
X95963032Y-95237100D02*
X95996366Y-95203766D01*
X95996366Y-95203766D02*
X96029699Y-95137100D01*
X96029699Y-95137100D02*
X96063032Y-95003766D01*
X96063032Y-95003766D02*
X96063032Y-94837100D01*
X96063032Y-94837100D02*
X96029699Y-94703766D01*
X96029699Y-94703766D02*
X95996366Y-94637100D01*
X95996366Y-94637100D02*
X95963032Y-94603766D01*
X95963032Y-94603766D02*
X95896366Y-94570433D01*
X95363032Y-94803766D02*
X95363032Y-95270433D01*
X95363032Y-94870433D02*
X95329699Y-94837100D01*
X95329699Y-94837100D02*
X95263032Y-94803766D01*
X95263032Y-94803766D02*
X95163032Y-94803766D01*
X95163032Y-94803766D02*
X95096365Y-94837100D01*
X95096365Y-94837100D02*
X95063032Y-94903766D01*
X95063032Y-94903766D02*
X95063032Y-95270433D01*
X107542450Y-90947383D02*
X107942450Y-90947383D01*
X107742450Y-90947383D02*
X107742450Y-90247383D01*
X107742450Y-90247383D02*
X107809117Y-90347383D01*
X107809117Y-90347383D02*
X107875784Y-90414050D01*
X107875784Y-90414050D02*
X107942450Y-90447383D01*
X107242450Y-90947383D02*
X107242450Y-90247383D01*
X107242450Y-90247383D02*
X106842450Y-90947383D01*
X106842450Y-90947383D02*
X106842450Y-90247383D01*
X106209117Y-90480716D02*
X106209117Y-90947383D01*
X106375784Y-90214050D02*
X106542450Y-90714050D01*
X106542450Y-90714050D02*
X106109117Y-90714050D01*
X105475783Y-90947383D02*
X105875783Y-90947383D01*
X105675783Y-90947383D02*
X105675783Y-90247383D01*
X105675783Y-90247383D02*
X105742450Y-90347383D01*
X105742450Y-90347383D02*
X105809117Y-90414050D01*
X105809117Y-90414050D02*
X105875783Y-90447383D01*
X104875783Y-90480716D02*
X104875783Y-90947383D01*
X105042450Y-90214050D02*
X105209116Y-90714050D01*
X105209116Y-90714050D02*
X104775783Y-90714050D01*
X104409116Y-90547383D02*
X104475783Y-90514050D01*
X104475783Y-90514050D02*
X104509116Y-90480716D01*
X104509116Y-90480716D02*
X104542449Y-90414050D01*
X104542449Y-90414050D02*
X104542449Y-90380716D01*
X104542449Y-90380716D02*
X104509116Y-90314050D01*
X104509116Y-90314050D02*
X104475783Y-90280716D01*
X104475783Y-90280716D02*
X104409116Y-90247383D01*
X104409116Y-90247383D02*
X104275783Y-90247383D01*
X104275783Y-90247383D02*
X104209116Y-90280716D01*
X104209116Y-90280716D02*
X104175783Y-90314050D01*
X104175783Y-90314050D02*
X104142449Y-90380716D01*
X104142449Y-90380716D02*
X104142449Y-90414050D01*
X104142449Y-90414050D02*
X104175783Y-90480716D01*
X104175783Y-90480716D02*
X104209116Y-90514050D01*
X104209116Y-90514050D02*
X104275783Y-90547383D01*
X104275783Y-90547383D02*
X104409116Y-90547383D01*
X104409116Y-90547383D02*
X104475783Y-90580716D01*
X104475783Y-90580716D02*
X104509116Y-90614050D01*
X104509116Y-90614050D02*
X104542449Y-90680716D01*
X104542449Y-90680716D02*
X104542449Y-90814050D01*
X104542449Y-90814050D02*
X104509116Y-90880716D01*
X104509116Y-90880716D02*
X104475783Y-90914050D01*
X104475783Y-90914050D02*
X104409116Y-90947383D01*
X104409116Y-90947383D02*
X104275783Y-90947383D01*
X104275783Y-90947383D02*
X104209116Y-90914050D01*
X104209116Y-90914050D02*
X104175783Y-90880716D01*
X104175783Y-90880716D02*
X104142449Y-90814050D01*
X104142449Y-90814050D02*
X104142449Y-90680716D01*
X104142449Y-90680716D02*
X104175783Y-90614050D01*
X104175783Y-90614050D02*
X104209116Y-90580716D01*
X104209116Y-90580716D02*
X104275783Y-90547383D01*
X105342483Y-85478183D02*
X105342483Y-85078183D01*
X105342483Y-85278183D02*
X104642483Y-85278183D01*
X104642483Y-85278183D02*
X104742483Y-85211516D01*
X104742483Y-85211516D02*
X104809150Y-85144850D01*
X104809150Y-85144850D02*
X104842483Y-85078183D01*
X104642483Y-85911517D02*
X104642483Y-85978183D01*
X104642483Y-85978183D02*
X104675816Y-86044850D01*
X104675816Y-86044850D02*
X104709150Y-86078183D01*
X104709150Y-86078183D02*
X104775816Y-86111517D01*
X104775816Y-86111517D02*
X104909150Y-86144850D01*
X104909150Y-86144850D02*
X105075816Y-86144850D01*
X105075816Y-86144850D02*
X105209150Y-86111517D01*
X105209150Y-86111517D02*
X105275816Y-86078183D01*
X105275816Y-86078183D02*
X105309150Y-86044850D01*
X105309150Y-86044850D02*
X105342483Y-85978183D01*
X105342483Y-85978183D02*
X105342483Y-85911517D01*
X105342483Y-85911517D02*
X105309150Y-85844850D01*
X105309150Y-85844850D02*
X105275816Y-85811517D01*
X105275816Y-85811517D02*
X105209150Y-85778183D01*
X105209150Y-85778183D02*
X105075816Y-85744850D01*
X105075816Y-85744850D02*
X104909150Y-85744850D01*
X104909150Y-85744850D02*
X104775816Y-85778183D01*
X104775816Y-85778183D02*
X104709150Y-85811517D01*
X104709150Y-85811517D02*
X104675816Y-85844850D01*
X104675816Y-85844850D02*
X104642483Y-85911517D01*
X105342483Y-86444850D02*
X104642483Y-86444850D01*
X105075816Y-86511517D02*
X105342483Y-86711517D01*
X104875816Y-86711517D02*
X105142483Y-86444850D01*
X74218433Y-90132932D02*
X74218433Y-90532932D01*
X74918433Y-90332932D02*
X74218433Y-90332932D01*
X74218433Y-90699599D02*
X74918433Y-91166265D01*
X74218433Y-91166265D02*
X74918433Y-90699599D01*
X74885100Y-91399599D02*
X74918433Y-91499599D01*
X74918433Y-91499599D02*
X74918433Y-91666266D01*
X74918433Y-91666266D02*
X74885100Y-91732932D01*
X74885100Y-91732932D02*
X74851766Y-91766266D01*
X74851766Y-91766266D02*
X74785100Y-91799599D01*
X74785100Y-91799599D02*
X74718433Y-91799599D01*
X74718433Y-91799599D02*
X74651766Y-91766266D01*
X74651766Y-91766266D02*
X74618433Y-91732932D01*
X74618433Y-91732932D02*
X74585100Y-91666266D01*
X74585100Y-91666266D02*
X74551766Y-91532932D01*
X74551766Y-91532932D02*
X74518433Y-91466266D01*
X74518433Y-91466266D02*
X74485100Y-91432932D01*
X74485100Y-91432932D02*
X74418433Y-91399599D01*
X74418433Y-91399599D02*
X74351766Y-91399599D01*
X74351766Y-91399599D02*
X74285100Y-91432932D01*
X74285100Y-91432932D02*
X74251766Y-91466266D01*
X74251766Y-91466266D02*
X74218433Y-91532932D01*
X74218433Y-91532932D02*
X74218433Y-91699599D01*
X74218433Y-91699599D02*
X74251766Y-91799599D01*
X74218433Y-92232933D02*
X74218433Y-92299599D01*
X74218433Y-92299599D02*
X74251766Y-92366266D01*
X74251766Y-92366266D02*
X74285100Y-92399599D01*
X74285100Y-92399599D02*
X74351766Y-92432933D01*
X74351766Y-92432933D02*
X74485100Y-92466266D01*
X74485100Y-92466266D02*
X74651766Y-92466266D01*
X74651766Y-92466266D02*
X74785100Y-92432933D01*
X74785100Y-92432933D02*
X74851766Y-92399599D01*
X74851766Y-92399599D02*
X74885100Y-92366266D01*
X74885100Y-92366266D02*
X74918433Y-92299599D01*
X74918433Y-92299599D02*
X74918433Y-92232933D01*
X74918433Y-92232933D02*
X74885100Y-92166266D01*
X74885100Y-92166266D02*
X74851766Y-92132933D01*
X74851766Y-92132933D02*
X74785100Y-92099599D01*
X74785100Y-92099599D02*
X74651766Y-92066266D01*
X74651766Y-92066266D02*
X74485100Y-92066266D01*
X74485100Y-92066266D02*
X74351766Y-92099599D01*
X74351766Y-92099599D02*
X74285100Y-92132933D01*
X74285100Y-92132933D02*
X74251766Y-92166266D01*
X74251766Y-92166266D02*
X74218433Y-92232933D01*
X74918433Y-93132933D02*
X74918433Y-92732933D01*
X74918433Y-92932933D02*
X74218433Y-92932933D01*
X74218433Y-92932933D02*
X74318433Y-92866266D01*
X74318433Y-92866266D02*
X74385100Y-92799600D01*
X74385100Y-92799600D02*
X74418433Y-92732933D01*
X74218433Y-93566267D02*
X74218433Y-93632933D01*
X74218433Y-93632933D02*
X74251766Y-93699600D01*
X74251766Y-93699600D02*
X74285100Y-93732933D01*
X74285100Y-93732933D02*
X74351766Y-93766267D01*
X74351766Y-93766267D02*
X74485100Y-93799600D01*
X74485100Y-93799600D02*
X74651766Y-93799600D01*
X74651766Y-93799600D02*
X74785100Y-93766267D01*
X74785100Y-93766267D02*
X74851766Y-93732933D01*
X74851766Y-93732933D02*
X74885100Y-93699600D01*
X74885100Y-93699600D02*
X74918433Y-93632933D01*
X74918433Y-93632933D02*
X74918433Y-93566267D01*
X74918433Y-93566267D02*
X74885100Y-93499600D01*
X74885100Y-93499600D02*
X74851766Y-93466267D01*
X74851766Y-93466267D02*
X74785100Y-93432933D01*
X74785100Y-93432933D02*
X74651766Y-93399600D01*
X74651766Y-93399600D02*
X74485100Y-93399600D01*
X74485100Y-93399600D02*
X74351766Y-93432933D01*
X74351766Y-93432933D02*
X74285100Y-93466267D01*
X74285100Y-93466267D02*
X74251766Y-93499600D01*
X74251766Y-93499600D02*
X74218433Y-93566267D01*
X74518433Y-94199600D02*
X74485100Y-94132934D01*
X74485100Y-94132934D02*
X74451766Y-94099600D01*
X74451766Y-94099600D02*
X74385100Y-94066267D01*
X74385100Y-94066267D02*
X74351766Y-94066267D01*
X74351766Y-94066267D02*
X74285100Y-94099600D01*
X74285100Y-94099600D02*
X74251766Y-94132934D01*
X74251766Y-94132934D02*
X74218433Y-94199600D01*
X74218433Y-94199600D02*
X74218433Y-94332934D01*
X74218433Y-94332934D02*
X74251766Y-94399600D01*
X74251766Y-94399600D02*
X74285100Y-94432934D01*
X74285100Y-94432934D02*
X74351766Y-94466267D01*
X74351766Y-94466267D02*
X74385100Y-94466267D01*
X74385100Y-94466267D02*
X74451766Y-94432934D01*
X74451766Y-94432934D02*
X74485100Y-94399600D01*
X74485100Y-94399600D02*
X74518433Y-94332934D01*
X74518433Y-94332934D02*
X74518433Y-94199600D01*
X74518433Y-94199600D02*
X74551766Y-94132934D01*
X74551766Y-94132934D02*
X74585100Y-94099600D01*
X74585100Y-94099600D02*
X74651766Y-94066267D01*
X74651766Y-94066267D02*
X74785100Y-94066267D01*
X74785100Y-94066267D02*
X74851766Y-94099600D01*
X74851766Y-94099600D02*
X74885100Y-94132934D01*
X74885100Y-94132934D02*
X74918433Y-94199600D01*
X74918433Y-94199600D02*
X74918433Y-94332934D01*
X74918433Y-94332934D02*
X74885100Y-94399600D01*
X74885100Y-94399600D02*
X74851766Y-94432934D01*
X74851766Y-94432934D02*
X74785100Y-94466267D01*
X74785100Y-94466267D02*
X74651766Y-94466267D01*
X74651766Y-94466267D02*
X74585100Y-94432934D01*
X74585100Y-94432934D02*
X74551766Y-94399600D01*
X74551766Y-94399600D02*
X74518433Y-94332934D01*
X74551766Y-94766267D02*
X74551766Y-94999601D01*
X74918433Y-95099601D02*
X74918433Y-94766267D01*
X74918433Y-94766267D02*
X74218433Y-94766267D01*
X74218433Y-94766267D02*
X74218433Y-95099601D01*
X74918433Y-95399600D02*
X74218433Y-95399600D01*
X74218433Y-95399600D02*
X74218433Y-95666267D01*
X74218433Y-95666267D02*
X74251766Y-95732934D01*
X74251766Y-95732934D02*
X74285100Y-95766267D01*
X74285100Y-95766267D02*
X74351766Y-95799600D01*
X74351766Y-95799600D02*
X74451766Y-95799600D01*
X74451766Y-95799600D02*
X74518433Y-95766267D01*
X74518433Y-95766267D02*
X74551766Y-95732934D01*
X74551766Y-95732934D02*
X74585100Y-95666267D01*
X74585100Y-95666267D02*
X74585100Y-95399600D01*
X74218433Y-96032934D02*
X74918433Y-96199600D01*
X74918433Y-96199600D02*
X74418433Y-96332934D01*
X74418433Y-96332934D02*
X74918433Y-96466267D01*
X74918433Y-96466267D02*
X74218433Y-96632934D01*
X97491133Y-100470266D02*
X97491133Y-100070266D01*
X97491133Y-100270266D02*
X96791133Y-100270266D01*
X96791133Y-100270266D02*
X96891133Y-100203599D01*
X96891133Y-100203599D02*
X96957800Y-100136933D01*
X96957800Y-100136933D02*
X96991133Y-100070266D01*
X96791133Y-100903600D02*
X96791133Y-100970266D01*
X96791133Y-100970266D02*
X96824466Y-101036933D01*
X96824466Y-101036933D02*
X96857800Y-101070266D01*
X96857800Y-101070266D02*
X96924466Y-101103600D01*
X96924466Y-101103600D02*
X97057800Y-101136933D01*
X97057800Y-101136933D02*
X97224466Y-101136933D01*
X97224466Y-101136933D02*
X97357800Y-101103600D01*
X97357800Y-101103600D02*
X97424466Y-101070266D01*
X97424466Y-101070266D02*
X97457800Y-101036933D01*
X97457800Y-101036933D02*
X97491133Y-100970266D01*
X97491133Y-100970266D02*
X97491133Y-100903600D01*
X97491133Y-100903600D02*
X97457800Y-100836933D01*
X97457800Y-100836933D02*
X97424466Y-100803600D01*
X97424466Y-100803600D02*
X97357800Y-100770266D01*
X97357800Y-100770266D02*
X97224466Y-100736933D01*
X97224466Y-100736933D02*
X97057800Y-100736933D01*
X97057800Y-100736933D02*
X96924466Y-100770266D01*
X96924466Y-100770266D02*
X96857800Y-100803600D01*
X96857800Y-100803600D02*
X96824466Y-100836933D01*
X96824466Y-100836933D02*
X96791133Y-100903600D01*
X96791133Y-101570267D02*
X96791133Y-101636933D01*
X96791133Y-101636933D02*
X96824466Y-101703600D01*
X96824466Y-101703600D02*
X96857800Y-101736933D01*
X96857800Y-101736933D02*
X96924466Y-101770267D01*
X96924466Y-101770267D02*
X97057800Y-101803600D01*
X97057800Y-101803600D02*
X97224466Y-101803600D01*
X97224466Y-101803600D02*
X97357800Y-101770267D01*
X97357800Y-101770267D02*
X97424466Y-101736933D01*
X97424466Y-101736933D02*
X97457800Y-101703600D01*
X97457800Y-101703600D02*
X97491133Y-101636933D01*
X97491133Y-101636933D02*
X97491133Y-101570267D01*
X97491133Y-101570267D02*
X97457800Y-101503600D01*
X97457800Y-101503600D02*
X97424466Y-101470267D01*
X97424466Y-101470267D02*
X97357800Y-101436933D01*
X97357800Y-101436933D02*
X97224466Y-101403600D01*
X97224466Y-101403600D02*
X97057800Y-101403600D01*
X97057800Y-101403600D02*
X96924466Y-101436933D01*
X96924466Y-101436933D02*
X96857800Y-101470267D01*
X96857800Y-101470267D02*
X96824466Y-101503600D01*
X96824466Y-101503600D02*
X96791133Y-101570267D01*
X97024466Y-102103600D02*
X97724466Y-102103600D01*
X97057800Y-102103600D02*
X97024466Y-102170267D01*
X97024466Y-102170267D02*
X97024466Y-102303600D01*
X97024466Y-102303600D02*
X97057800Y-102370267D01*
X97057800Y-102370267D02*
X97091133Y-102403600D01*
X97091133Y-102403600D02*
X97157800Y-102436934D01*
X97157800Y-102436934D02*
X97357800Y-102436934D01*
X97357800Y-102436934D02*
X97424466Y-102403600D01*
X97424466Y-102403600D02*
X97457800Y-102370267D01*
X97457800Y-102370267D02*
X97491133Y-102303600D01*
X97491133Y-102303600D02*
X97491133Y-102170267D01*
X97491133Y-102170267D02*
X97457800Y-102103600D01*
X90666233Y-97587433D02*
X91066233Y-97587433D01*
X90866233Y-97587433D02*
X90866233Y-96887433D01*
X90866233Y-96887433D02*
X90932900Y-96987433D01*
X90932900Y-96987433D02*
X90999567Y-97054100D01*
X90999567Y-97054100D02*
X91066233Y-97087433D01*
X90232900Y-96887433D02*
X90166233Y-96887433D01*
X90166233Y-96887433D02*
X90099566Y-96920766D01*
X90099566Y-96920766D02*
X90066233Y-96954100D01*
X90066233Y-96954100D02*
X90032900Y-97020766D01*
X90032900Y-97020766D02*
X89999566Y-97154100D01*
X89999566Y-97154100D02*
X89999566Y-97320766D01*
X89999566Y-97320766D02*
X90032900Y-97454100D01*
X90032900Y-97454100D02*
X90066233Y-97520766D01*
X90066233Y-97520766D02*
X90099566Y-97554100D01*
X90099566Y-97554100D02*
X90166233Y-97587433D01*
X90166233Y-97587433D02*
X90232900Y-97587433D01*
X90232900Y-97587433D02*
X90299566Y-97554100D01*
X90299566Y-97554100D02*
X90332900Y-97520766D01*
X90332900Y-97520766D02*
X90366233Y-97454100D01*
X90366233Y-97454100D02*
X90399566Y-97320766D01*
X90399566Y-97320766D02*
X90399566Y-97154100D01*
X90399566Y-97154100D02*
X90366233Y-97020766D01*
X90366233Y-97020766D02*
X90332900Y-96954100D01*
X90332900Y-96954100D02*
X90299566Y-96920766D01*
X90299566Y-96920766D02*
X90232900Y-96887433D01*
X89566233Y-96887433D02*
X89499566Y-96887433D01*
X89499566Y-96887433D02*
X89432899Y-96920766D01*
X89432899Y-96920766D02*
X89399566Y-96954100D01*
X89399566Y-96954100D02*
X89366233Y-97020766D01*
X89366233Y-97020766D02*
X89332899Y-97154100D01*
X89332899Y-97154100D02*
X89332899Y-97320766D01*
X89332899Y-97320766D02*
X89366233Y-97454100D01*
X89366233Y-97454100D02*
X89399566Y-97520766D01*
X89399566Y-97520766D02*
X89432899Y-97554100D01*
X89432899Y-97554100D02*
X89499566Y-97587433D01*
X89499566Y-97587433D02*
X89566233Y-97587433D01*
X89566233Y-97587433D02*
X89632899Y-97554100D01*
X89632899Y-97554100D02*
X89666233Y-97520766D01*
X89666233Y-97520766D02*
X89699566Y-97454100D01*
X89699566Y-97454100D02*
X89732899Y-97320766D01*
X89732899Y-97320766D02*
X89732899Y-97154100D01*
X89732899Y-97154100D02*
X89699566Y-97020766D01*
X89699566Y-97020766D02*
X89666233Y-96954100D01*
X89666233Y-96954100D02*
X89632899Y-96920766D01*
X89632899Y-96920766D02*
X89566233Y-96887433D01*
X89032899Y-97120766D02*
X89032899Y-97587433D01*
X89032899Y-97187433D02*
X88999566Y-97154100D01*
X88999566Y-97154100D02*
X88932899Y-97120766D01*
X88932899Y-97120766D02*
X88832899Y-97120766D01*
X88832899Y-97120766D02*
X88766232Y-97154100D01*
X88766232Y-97154100D02*
X88732899Y-97220766D01*
X88732899Y-97220766D02*
X88732899Y-97587433D01*
X88939033Y-99596300D02*
X88939033Y-99196300D01*
X88939033Y-99396300D02*
X88239033Y-99396300D01*
X88239033Y-99396300D02*
X88339033Y-99329633D01*
X88339033Y-99329633D02*
X88405700Y-99262967D01*
X88405700Y-99262967D02*
X88439033Y-99196300D01*
X88239033Y-100029634D02*
X88239033Y-100096300D01*
X88239033Y-100096300D02*
X88272366Y-100162967D01*
X88272366Y-100162967D02*
X88305700Y-100196300D01*
X88305700Y-100196300D02*
X88372366Y-100229634D01*
X88372366Y-100229634D02*
X88505700Y-100262967D01*
X88505700Y-100262967D02*
X88672366Y-100262967D01*
X88672366Y-100262967D02*
X88805700Y-100229634D01*
X88805700Y-100229634D02*
X88872366Y-100196300D01*
X88872366Y-100196300D02*
X88905700Y-100162967D01*
X88905700Y-100162967D02*
X88939033Y-100096300D01*
X88939033Y-100096300D02*
X88939033Y-100029634D01*
X88939033Y-100029634D02*
X88905700Y-99962967D01*
X88905700Y-99962967D02*
X88872366Y-99929634D01*
X88872366Y-99929634D02*
X88805700Y-99896300D01*
X88805700Y-99896300D02*
X88672366Y-99862967D01*
X88672366Y-99862967D02*
X88505700Y-99862967D01*
X88505700Y-99862967D02*
X88372366Y-99896300D01*
X88372366Y-99896300D02*
X88305700Y-99929634D01*
X88305700Y-99929634D02*
X88272366Y-99962967D01*
X88272366Y-99962967D02*
X88239033Y-100029634D01*
X88472366Y-100862967D02*
X88939033Y-100862967D01*
X88472366Y-100562967D02*
X88839033Y-100562967D01*
X88839033Y-100562967D02*
X88905700Y-100596301D01*
X88905700Y-100596301D02*
X88939033Y-100662967D01*
X88939033Y-100662967D02*
X88939033Y-100762967D01*
X88939033Y-100762967D02*
X88905700Y-100829634D01*
X88905700Y-100829634D02*
X88872366Y-100862967D01*
X94937999Y-124014033D02*
X95337999Y-124014033D01*
X95137999Y-124014033D02*
X95137999Y-123314033D01*
X95137999Y-123314033D02*
X95204666Y-123414033D01*
X95204666Y-123414033D02*
X95271333Y-123480700D01*
X95271333Y-123480700D02*
X95337999Y-123514033D01*
X94504666Y-123314033D02*
X94437999Y-123314033D01*
X94437999Y-123314033D02*
X94371332Y-123347366D01*
X94371332Y-123347366D02*
X94337999Y-123380700D01*
X94337999Y-123380700D02*
X94304666Y-123447366D01*
X94304666Y-123447366D02*
X94271332Y-123580700D01*
X94271332Y-123580700D02*
X94271332Y-123747366D01*
X94271332Y-123747366D02*
X94304666Y-123880700D01*
X94304666Y-123880700D02*
X94337999Y-123947366D01*
X94337999Y-123947366D02*
X94371332Y-123980700D01*
X94371332Y-123980700D02*
X94437999Y-124014033D01*
X94437999Y-124014033D02*
X94504666Y-124014033D01*
X94504666Y-124014033D02*
X94571332Y-123980700D01*
X94571332Y-123980700D02*
X94604666Y-123947366D01*
X94604666Y-123947366D02*
X94637999Y-123880700D01*
X94637999Y-123880700D02*
X94671332Y-123747366D01*
X94671332Y-123747366D02*
X94671332Y-123580700D01*
X94671332Y-123580700D02*
X94637999Y-123447366D01*
X94637999Y-123447366D02*
X94604666Y-123380700D01*
X94604666Y-123380700D02*
X94571332Y-123347366D01*
X94571332Y-123347366D02*
X94504666Y-123314033D01*
X93671332Y-123547366D02*
X93671332Y-124014033D01*
X93971332Y-123547366D02*
X93971332Y-123914033D01*
X93971332Y-123914033D02*
X93937999Y-123980700D01*
X93937999Y-123980700D02*
X93871332Y-124014033D01*
X93871332Y-124014033D02*
X93771332Y-124014033D01*
X93771332Y-124014033D02*
X93704665Y-123980700D01*
X93704665Y-123980700D02*
X93671332Y-123947366D01*
X72172333Y-124074033D02*
X72572333Y-124074033D01*
X72372333Y-124074033D02*
X72372333Y-123374033D01*
X72372333Y-123374033D02*
X72439000Y-123474033D01*
X72439000Y-123474033D02*
X72505667Y-123540700D01*
X72505667Y-123540700D02*
X72572333Y-123574033D01*
X71739000Y-123374033D02*
X71672333Y-123374033D01*
X71672333Y-123374033D02*
X71605666Y-123407366D01*
X71605666Y-123407366D02*
X71572333Y-123440700D01*
X71572333Y-123440700D02*
X71539000Y-123507366D01*
X71539000Y-123507366D02*
X71505666Y-123640700D01*
X71505666Y-123640700D02*
X71505666Y-123807366D01*
X71505666Y-123807366D02*
X71539000Y-123940700D01*
X71539000Y-123940700D02*
X71572333Y-124007366D01*
X71572333Y-124007366D02*
X71605666Y-124040700D01*
X71605666Y-124040700D02*
X71672333Y-124074033D01*
X71672333Y-124074033D02*
X71739000Y-124074033D01*
X71739000Y-124074033D02*
X71805666Y-124040700D01*
X71805666Y-124040700D02*
X71839000Y-124007366D01*
X71839000Y-124007366D02*
X71872333Y-123940700D01*
X71872333Y-123940700D02*
X71905666Y-123807366D01*
X71905666Y-123807366D02*
X71905666Y-123640700D01*
X71905666Y-123640700D02*
X71872333Y-123507366D01*
X71872333Y-123507366D02*
X71839000Y-123440700D01*
X71839000Y-123440700D02*
X71805666Y-123407366D01*
X71805666Y-123407366D02*
X71739000Y-123374033D01*
X71072333Y-123374033D02*
X71005666Y-123374033D01*
X71005666Y-123374033D02*
X70938999Y-123407366D01*
X70938999Y-123407366D02*
X70905666Y-123440700D01*
X70905666Y-123440700D02*
X70872333Y-123507366D01*
X70872333Y-123507366D02*
X70838999Y-123640700D01*
X70838999Y-123640700D02*
X70838999Y-123807366D01*
X70838999Y-123807366D02*
X70872333Y-123940700D01*
X70872333Y-123940700D02*
X70905666Y-124007366D01*
X70905666Y-124007366D02*
X70938999Y-124040700D01*
X70938999Y-124040700D02*
X71005666Y-124074033D01*
X71005666Y-124074033D02*
X71072333Y-124074033D01*
X71072333Y-124074033D02*
X71138999Y-124040700D01*
X71138999Y-124040700D02*
X71172333Y-124007366D01*
X71172333Y-124007366D02*
X71205666Y-123940700D01*
X71205666Y-123940700D02*
X71238999Y-123807366D01*
X71238999Y-123807366D02*
X71238999Y-123640700D01*
X71238999Y-123640700D02*
X71205666Y-123507366D01*
X71205666Y-123507366D02*
X71172333Y-123440700D01*
X71172333Y-123440700D02*
X71138999Y-123407366D01*
X71138999Y-123407366D02*
X71072333Y-123374033D01*
X70538999Y-123607366D02*
X70538999Y-124074033D01*
X70538999Y-123674033D02*
X70505666Y-123640700D01*
X70505666Y-123640700D02*
X70438999Y-123607366D01*
X70438999Y-123607366D02*
X70338999Y-123607366D01*
X70338999Y-123607366D02*
X70272332Y-123640700D01*
X70272332Y-123640700D02*
X70238999Y-123707366D01*
X70238999Y-123707366D02*
X70238999Y-124074033D01*
X90506133Y-89246600D02*
X90506133Y-88846600D01*
X90506133Y-89046600D02*
X89806133Y-89046600D01*
X89806133Y-89046600D02*
X89906133Y-88979933D01*
X89906133Y-88979933D02*
X89972800Y-88913267D01*
X89972800Y-88913267D02*
X90006133Y-88846600D01*
X89806133Y-89679934D02*
X89806133Y-89746600D01*
X89806133Y-89746600D02*
X89839466Y-89813267D01*
X89839466Y-89813267D02*
X89872800Y-89846600D01*
X89872800Y-89846600D02*
X89939466Y-89879934D01*
X89939466Y-89879934D02*
X90072800Y-89913267D01*
X90072800Y-89913267D02*
X90239466Y-89913267D01*
X90239466Y-89913267D02*
X90372800Y-89879934D01*
X90372800Y-89879934D02*
X90439466Y-89846600D01*
X90439466Y-89846600D02*
X90472800Y-89813267D01*
X90472800Y-89813267D02*
X90506133Y-89746600D01*
X90506133Y-89746600D02*
X90506133Y-89679934D01*
X90506133Y-89679934D02*
X90472800Y-89613267D01*
X90472800Y-89613267D02*
X90439466Y-89579934D01*
X90439466Y-89579934D02*
X90372800Y-89546600D01*
X90372800Y-89546600D02*
X90239466Y-89513267D01*
X90239466Y-89513267D02*
X90072800Y-89513267D01*
X90072800Y-89513267D02*
X89939466Y-89546600D01*
X89939466Y-89546600D02*
X89872800Y-89579934D01*
X89872800Y-89579934D02*
X89839466Y-89613267D01*
X89839466Y-89613267D02*
X89806133Y-89679934D01*
X90039466Y-90213267D02*
X90506133Y-90213267D01*
X90106133Y-90213267D02*
X90072800Y-90246601D01*
X90072800Y-90246601D02*
X90039466Y-90313267D01*
X90039466Y-90313267D02*
X90039466Y-90413267D01*
X90039466Y-90413267D02*
X90072800Y-90479934D01*
X90072800Y-90479934D02*
X90139466Y-90513267D01*
X90139466Y-90513267D02*
X90506133Y-90513267D01*
X112462333Y-120072033D02*
X112595666Y-120072033D01*
X112595666Y-120072033D02*
X112662333Y-120105366D01*
X112662333Y-120105366D02*
X112695666Y-120138700D01*
X112695666Y-120138700D02*
X112762333Y-120238700D01*
X112762333Y-120238700D02*
X112795666Y-120372033D01*
X112795666Y-120372033D02*
X112795666Y-120638700D01*
X112795666Y-120638700D02*
X112762333Y-120705366D01*
X112762333Y-120705366D02*
X112729000Y-120738700D01*
X112729000Y-120738700D02*
X112662333Y-120772033D01*
X112662333Y-120772033D02*
X112529000Y-120772033D01*
X112529000Y-120772033D02*
X112462333Y-120738700D01*
X112462333Y-120738700D02*
X112429000Y-120705366D01*
X112429000Y-120705366D02*
X112395666Y-120638700D01*
X112395666Y-120638700D02*
X112395666Y-120472033D01*
X112395666Y-120472033D02*
X112429000Y-120405366D01*
X112429000Y-120405366D02*
X112462333Y-120372033D01*
X112462333Y-120372033D02*
X112529000Y-120338700D01*
X112529000Y-120338700D02*
X112662333Y-120338700D01*
X112662333Y-120338700D02*
X112729000Y-120372033D01*
X112729000Y-120372033D02*
X112762333Y-120405366D01*
X112762333Y-120405366D02*
X112795666Y-120472033D01*
X112095666Y-120772033D02*
X112095666Y-120072033D01*
X112028999Y-120505366D02*
X111828999Y-120772033D01*
X111828999Y-120305366D02*
X112095666Y-120572033D01*
X111428999Y-120372033D02*
X111495666Y-120338700D01*
X111495666Y-120338700D02*
X111528999Y-120305366D01*
X111528999Y-120305366D02*
X111562332Y-120238700D01*
X111562332Y-120238700D02*
X111562332Y-120205366D01*
X111562332Y-120205366D02*
X111528999Y-120138700D01*
X111528999Y-120138700D02*
X111495666Y-120105366D01*
X111495666Y-120105366D02*
X111428999Y-120072033D01*
X111428999Y-120072033D02*
X111295666Y-120072033D01*
X111295666Y-120072033D02*
X111228999Y-120105366D01*
X111228999Y-120105366D02*
X111195666Y-120138700D01*
X111195666Y-120138700D02*
X111162332Y-120205366D01*
X111162332Y-120205366D02*
X111162332Y-120238700D01*
X111162332Y-120238700D02*
X111195666Y-120305366D01*
X111195666Y-120305366D02*
X111228999Y-120338700D01*
X111228999Y-120338700D02*
X111295666Y-120372033D01*
X111295666Y-120372033D02*
X111428999Y-120372033D01*
X111428999Y-120372033D02*
X111495666Y-120405366D01*
X111495666Y-120405366D02*
X111528999Y-120438700D01*
X111528999Y-120438700D02*
X111562332Y-120505366D01*
X111562332Y-120505366D02*
X111562332Y-120638700D01*
X111562332Y-120638700D02*
X111528999Y-120705366D01*
X111528999Y-120705366D02*
X111495666Y-120738700D01*
X111495666Y-120738700D02*
X111428999Y-120772033D01*
X111428999Y-120772033D02*
X111295666Y-120772033D01*
X111295666Y-120772033D02*
X111228999Y-120738700D01*
X111228999Y-120738700D02*
X111195666Y-120705366D01*
X111195666Y-120705366D02*
X111162332Y-120638700D01*
X111162332Y-120638700D02*
X111162332Y-120505366D01*
X111162332Y-120505366D02*
X111195666Y-120438700D01*
X111195666Y-120438700D02*
X111228999Y-120405366D01*
X111228999Y-120405366D02*
X111295666Y-120372033D01*
X97049500Y-97886633D02*
X97449500Y-97886633D01*
X97249500Y-97886633D02*
X97249500Y-97186633D01*
X97249500Y-97186633D02*
X97316167Y-97286633D01*
X97316167Y-97286633D02*
X97382834Y-97353300D01*
X97382834Y-97353300D02*
X97449500Y-97386633D01*
X96749500Y-97886633D02*
X96749500Y-97186633D01*
X96749500Y-97186633D02*
X96349500Y-97886633D01*
X96349500Y-97886633D02*
X96349500Y-97186633D01*
X95716167Y-97419966D02*
X95716167Y-97886633D01*
X95882834Y-97153300D02*
X96049500Y-97653300D01*
X96049500Y-97653300D02*
X95616167Y-97653300D01*
X94982833Y-97886633D02*
X95382833Y-97886633D01*
X95182833Y-97886633D02*
X95182833Y-97186633D01*
X95182833Y-97186633D02*
X95249500Y-97286633D01*
X95249500Y-97286633D02*
X95316167Y-97353300D01*
X95316167Y-97353300D02*
X95382833Y-97386633D01*
X94382833Y-97419966D02*
X94382833Y-97886633D01*
X94549500Y-97153300D02*
X94716166Y-97653300D01*
X94716166Y-97653300D02*
X94282833Y-97653300D01*
X93916166Y-97486633D02*
X93982833Y-97453300D01*
X93982833Y-97453300D02*
X94016166Y-97419966D01*
X94016166Y-97419966D02*
X94049499Y-97353300D01*
X94049499Y-97353300D02*
X94049499Y-97319966D01*
X94049499Y-97319966D02*
X94016166Y-97253300D01*
X94016166Y-97253300D02*
X93982833Y-97219966D01*
X93982833Y-97219966D02*
X93916166Y-97186633D01*
X93916166Y-97186633D02*
X93782833Y-97186633D01*
X93782833Y-97186633D02*
X93716166Y-97219966D01*
X93716166Y-97219966D02*
X93682833Y-97253300D01*
X93682833Y-97253300D02*
X93649499Y-97319966D01*
X93649499Y-97319966D02*
X93649499Y-97353300D01*
X93649499Y-97353300D02*
X93682833Y-97419966D01*
X93682833Y-97419966D02*
X93716166Y-97453300D01*
X93716166Y-97453300D02*
X93782833Y-97486633D01*
X93782833Y-97486633D02*
X93916166Y-97486633D01*
X93916166Y-97486633D02*
X93982833Y-97519966D01*
X93982833Y-97519966D02*
X94016166Y-97553300D01*
X94016166Y-97553300D02*
X94049499Y-97619966D01*
X94049499Y-97619966D02*
X94049499Y-97753300D01*
X94049499Y-97753300D02*
X94016166Y-97819966D01*
X94016166Y-97819966D02*
X93982833Y-97853300D01*
X93982833Y-97853300D02*
X93916166Y-97886633D01*
X93916166Y-97886633D02*
X93782833Y-97886633D01*
X93782833Y-97886633D02*
X93716166Y-97853300D01*
X93716166Y-97853300D02*
X93682833Y-97819966D01*
X93682833Y-97819966D02*
X93649499Y-97753300D01*
X93649499Y-97753300D02*
X93649499Y-97619966D01*
X93649499Y-97619966D02*
X93682833Y-97553300D01*
X93682833Y-97553300D02*
X93716166Y-97519966D01*
X93716166Y-97519966D02*
X93782833Y-97486633D01*
X101074700Y-102306233D02*
X101474700Y-102306233D01*
X101274700Y-102306233D02*
X101274700Y-101606233D01*
X101274700Y-101606233D02*
X101341367Y-101706233D01*
X101341367Y-101706233D02*
X101408034Y-101772900D01*
X101408034Y-101772900D02*
X101474700Y-101806233D01*
X100641367Y-101606233D02*
X100574700Y-101606233D01*
X100574700Y-101606233D02*
X100508033Y-101639566D01*
X100508033Y-101639566D02*
X100474700Y-101672900D01*
X100474700Y-101672900D02*
X100441367Y-101739566D01*
X100441367Y-101739566D02*
X100408033Y-101872900D01*
X100408033Y-101872900D02*
X100408033Y-102039566D01*
X100408033Y-102039566D02*
X100441367Y-102172900D01*
X100441367Y-102172900D02*
X100474700Y-102239566D01*
X100474700Y-102239566D02*
X100508033Y-102272900D01*
X100508033Y-102272900D02*
X100574700Y-102306233D01*
X100574700Y-102306233D02*
X100641367Y-102306233D01*
X100641367Y-102306233D02*
X100708033Y-102272900D01*
X100708033Y-102272900D02*
X100741367Y-102239566D01*
X100741367Y-102239566D02*
X100774700Y-102172900D01*
X100774700Y-102172900D02*
X100808033Y-102039566D01*
X100808033Y-102039566D02*
X100808033Y-101872900D01*
X100808033Y-101872900D02*
X100774700Y-101739566D01*
X100774700Y-101739566D02*
X100741367Y-101672900D01*
X100741367Y-101672900D02*
X100708033Y-101639566D01*
X100708033Y-101639566D02*
X100641367Y-101606233D01*
X99974700Y-101606233D02*
X99908033Y-101606233D01*
X99908033Y-101606233D02*
X99841366Y-101639566D01*
X99841366Y-101639566D02*
X99808033Y-101672900D01*
X99808033Y-101672900D02*
X99774700Y-101739566D01*
X99774700Y-101739566D02*
X99741366Y-101872900D01*
X99741366Y-101872900D02*
X99741366Y-102039566D01*
X99741366Y-102039566D02*
X99774700Y-102172900D01*
X99774700Y-102172900D02*
X99808033Y-102239566D01*
X99808033Y-102239566D02*
X99841366Y-102272900D01*
X99841366Y-102272900D02*
X99908033Y-102306233D01*
X99908033Y-102306233D02*
X99974700Y-102306233D01*
X99974700Y-102306233D02*
X100041366Y-102272900D01*
X100041366Y-102272900D02*
X100074700Y-102239566D01*
X100074700Y-102239566D02*
X100108033Y-102172900D01*
X100108033Y-102172900D02*
X100141366Y-102039566D01*
X100141366Y-102039566D02*
X100141366Y-101872900D01*
X100141366Y-101872900D02*
X100108033Y-101739566D01*
X100108033Y-101739566D02*
X100074700Y-101672900D01*
X100074700Y-101672900D02*
X100041366Y-101639566D01*
X100041366Y-101639566D02*
X99974700Y-101606233D01*
X99441366Y-102306233D02*
X99441366Y-101606233D01*
X99374699Y-102039566D02*
X99174699Y-102306233D01*
X99174699Y-101839566D02*
X99441366Y-102106233D01*
X67023399Y-86244233D02*
X67423399Y-86244233D01*
X67223399Y-86244233D02*
X67223399Y-85544233D01*
X67223399Y-85544233D02*
X67290066Y-85644233D01*
X67290066Y-85644233D02*
X67356733Y-85710900D01*
X67356733Y-85710900D02*
X67423399Y-85744233D01*
X66590066Y-85544233D02*
X66523399Y-85544233D01*
X66523399Y-85544233D02*
X66456732Y-85577566D01*
X66456732Y-85577566D02*
X66423399Y-85610900D01*
X66423399Y-85610900D02*
X66390066Y-85677566D01*
X66390066Y-85677566D02*
X66356732Y-85810900D01*
X66356732Y-85810900D02*
X66356732Y-85977566D01*
X66356732Y-85977566D02*
X66390066Y-86110900D01*
X66390066Y-86110900D02*
X66423399Y-86177566D01*
X66423399Y-86177566D02*
X66456732Y-86210900D01*
X66456732Y-86210900D02*
X66523399Y-86244233D01*
X66523399Y-86244233D02*
X66590066Y-86244233D01*
X66590066Y-86244233D02*
X66656732Y-86210900D01*
X66656732Y-86210900D02*
X66690066Y-86177566D01*
X66690066Y-86177566D02*
X66723399Y-86110900D01*
X66723399Y-86110900D02*
X66756732Y-85977566D01*
X66756732Y-85977566D02*
X66756732Y-85810900D01*
X66756732Y-85810900D02*
X66723399Y-85677566D01*
X66723399Y-85677566D02*
X66690066Y-85610900D01*
X66690066Y-85610900D02*
X66656732Y-85577566D01*
X66656732Y-85577566D02*
X66590066Y-85544233D01*
X65756732Y-85777566D02*
X65756732Y-86244233D01*
X66056732Y-85777566D02*
X66056732Y-86144233D01*
X66056732Y-86144233D02*
X66023399Y-86210900D01*
X66023399Y-86210900D02*
X65956732Y-86244233D01*
X65956732Y-86244233D02*
X65856732Y-86244233D01*
X65856732Y-86244233D02*
X65790065Y-86210900D01*
X65790065Y-86210900D02*
X65756732Y-86177566D01*
X64003933Y-86320433D02*
X64403933Y-86320433D01*
X64203933Y-86320433D02*
X64203933Y-85620433D01*
X64203933Y-85620433D02*
X64270600Y-85720433D01*
X64270600Y-85720433D02*
X64337267Y-85787100D01*
X64337267Y-85787100D02*
X64403933Y-85820433D01*
X63570600Y-85620433D02*
X63503933Y-85620433D01*
X63503933Y-85620433D02*
X63437266Y-85653766D01*
X63437266Y-85653766D02*
X63403933Y-85687100D01*
X63403933Y-85687100D02*
X63370600Y-85753766D01*
X63370600Y-85753766D02*
X63337266Y-85887100D01*
X63337266Y-85887100D02*
X63337266Y-86053766D01*
X63337266Y-86053766D02*
X63370600Y-86187100D01*
X63370600Y-86187100D02*
X63403933Y-86253766D01*
X63403933Y-86253766D02*
X63437266Y-86287100D01*
X63437266Y-86287100D02*
X63503933Y-86320433D01*
X63503933Y-86320433D02*
X63570600Y-86320433D01*
X63570600Y-86320433D02*
X63637266Y-86287100D01*
X63637266Y-86287100D02*
X63670600Y-86253766D01*
X63670600Y-86253766D02*
X63703933Y-86187100D01*
X63703933Y-86187100D02*
X63737266Y-86053766D01*
X63737266Y-86053766D02*
X63737266Y-85887100D01*
X63737266Y-85887100D02*
X63703933Y-85753766D01*
X63703933Y-85753766D02*
X63670600Y-85687100D01*
X63670600Y-85687100D02*
X63637266Y-85653766D01*
X63637266Y-85653766D02*
X63570600Y-85620433D01*
X62903933Y-85620433D02*
X62837266Y-85620433D01*
X62837266Y-85620433D02*
X62770599Y-85653766D01*
X62770599Y-85653766D02*
X62737266Y-85687100D01*
X62737266Y-85687100D02*
X62703933Y-85753766D01*
X62703933Y-85753766D02*
X62670599Y-85887100D01*
X62670599Y-85887100D02*
X62670599Y-86053766D01*
X62670599Y-86053766D02*
X62703933Y-86187100D01*
X62703933Y-86187100D02*
X62737266Y-86253766D01*
X62737266Y-86253766D02*
X62770599Y-86287100D01*
X62770599Y-86287100D02*
X62837266Y-86320433D01*
X62837266Y-86320433D02*
X62903933Y-86320433D01*
X62903933Y-86320433D02*
X62970599Y-86287100D01*
X62970599Y-86287100D02*
X63003933Y-86253766D01*
X63003933Y-86253766D02*
X63037266Y-86187100D01*
X63037266Y-86187100D02*
X63070599Y-86053766D01*
X63070599Y-86053766D02*
X63070599Y-85887100D01*
X63070599Y-85887100D02*
X63037266Y-85753766D01*
X63037266Y-85753766D02*
X63003933Y-85687100D01*
X63003933Y-85687100D02*
X62970599Y-85653766D01*
X62970599Y-85653766D02*
X62903933Y-85620433D01*
X62370599Y-85853766D02*
X62370599Y-86320433D01*
X62370599Y-85920433D02*
X62337266Y-85887100D01*
X62337266Y-85887100D02*
X62270599Y-85853766D01*
X62270599Y-85853766D02*
X62170599Y-85853766D01*
X62170599Y-85853766D02*
X62103932Y-85887100D01*
X62103932Y-85887100D02*
X62070599Y-85953766D01*
X62070599Y-85953766D02*
X62070599Y-86320433D01*
X90479999Y-124014033D02*
X90879999Y-124014033D01*
X90679999Y-124014033D02*
X90679999Y-123314033D01*
X90679999Y-123314033D02*
X90746666Y-123414033D01*
X90746666Y-123414033D02*
X90813333Y-123480700D01*
X90813333Y-123480700D02*
X90879999Y-123514033D01*
X90046666Y-123314033D02*
X89979999Y-123314033D01*
X89979999Y-123314033D02*
X89913332Y-123347366D01*
X89913332Y-123347366D02*
X89879999Y-123380700D01*
X89879999Y-123380700D02*
X89846666Y-123447366D01*
X89846666Y-123447366D02*
X89813332Y-123580700D01*
X89813332Y-123580700D02*
X89813332Y-123747366D01*
X89813332Y-123747366D02*
X89846666Y-123880700D01*
X89846666Y-123880700D02*
X89879999Y-123947366D01*
X89879999Y-123947366D02*
X89913332Y-123980700D01*
X89913332Y-123980700D02*
X89979999Y-124014033D01*
X89979999Y-124014033D02*
X90046666Y-124014033D01*
X90046666Y-124014033D02*
X90113332Y-123980700D01*
X90113332Y-123980700D02*
X90146666Y-123947366D01*
X90146666Y-123947366D02*
X90179999Y-123880700D01*
X90179999Y-123880700D02*
X90213332Y-123747366D01*
X90213332Y-123747366D02*
X90213332Y-123580700D01*
X90213332Y-123580700D02*
X90179999Y-123447366D01*
X90179999Y-123447366D02*
X90146666Y-123380700D01*
X90146666Y-123380700D02*
X90113332Y-123347366D01*
X90113332Y-123347366D02*
X90046666Y-123314033D01*
X89213332Y-123547366D02*
X89213332Y-124014033D01*
X89513332Y-123547366D02*
X89513332Y-123914033D01*
X89513332Y-123914033D02*
X89479999Y-123980700D01*
X89479999Y-123980700D02*
X89413332Y-124014033D01*
X89413332Y-124014033D02*
X89313332Y-124014033D01*
X89313332Y-124014033D02*
X89246665Y-123980700D01*
X89246665Y-123980700D02*
X89213332Y-123947366D01*
X91823666Y-102331633D02*
X92223666Y-102331633D01*
X92023666Y-102331633D02*
X92023666Y-101631633D01*
X92023666Y-101631633D02*
X92090333Y-101731633D01*
X92090333Y-101731633D02*
X92157000Y-101798300D01*
X92157000Y-101798300D02*
X92223666Y-101831633D01*
X91390333Y-101631633D02*
X91323666Y-101631633D01*
X91323666Y-101631633D02*
X91256999Y-101664966D01*
X91256999Y-101664966D02*
X91223666Y-101698300D01*
X91223666Y-101698300D02*
X91190333Y-101764966D01*
X91190333Y-101764966D02*
X91156999Y-101898300D01*
X91156999Y-101898300D02*
X91156999Y-102064966D01*
X91156999Y-102064966D02*
X91190333Y-102198300D01*
X91190333Y-102198300D02*
X91223666Y-102264966D01*
X91223666Y-102264966D02*
X91256999Y-102298300D01*
X91256999Y-102298300D02*
X91323666Y-102331633D01*
X91323666Y-102331633D02*
X91390333Y-102331633D01*
X91390333Y-102331633D02*
X91456999Y-102298300D01*
X91456999Y-102298300D02*
X91490333Y-102264966D01*
X91490333Y-102264966D02*
X91523666Y-102198300D01*
X91523666Y-102198300D02*
X91556999Y-102064966D01*
X91556999Y-102064966D02*
X91556999Y-101898300D01*
X91556999Y-101898300D02*
X91523666Y-101764966D01*
X91523666Y-101764966D02*
X91490333Y-101698300D01*
X91490333Y-101698300D02*
X91456999Y-101664966D01*
X91456999Y-101664966D02*
X91390333Y-101631633D01*
X90856999Y-102331633D02*
X90856999Y-101631633D01*
X90790332Y-102064966D02*
X90590332Y-102331633D01*
X90590332Y-101864966D02*
X90856999Y-102131633D01*
X90556933Y-85371466D02*
X90556933Y-84971466D01*
X90556933Y-85171466D02*
X89856933Y-85171466D01*
X89856933Y-85171466D02*
X89956933Y-85104799D01*
X89956933Y-85104799D02*
X90023600Y-85038133D01*
X90023600Y-85038133D02*
X90056933Y-84971466D01*
X90556933Y-85671466D02*
X89856933Y-85671466D01*
X90290266Y-85738133D02*
X90556933Y-85938133D01*
X90090266Y-85938133D02*
X90356933Y-85671466D01*
X86518333Y-100065795D02*
X86518333Y-99732461D01*
X86518333Y-99732461D02*
X85818333Y-99732461D01*
X86151666Y-100299128D02*
X86151666Y-100532462D01*
X86518333Y-100632462D02*
X86518333Y-100299128D01*
X86518333Y-100299128D02*
X85818333Y-100299128D01*
X85818333Y-100299128D02*
X85818333Y-100632462D01*
X86518333Y-100932461D02*
X85818333Y-100932461D01*
X85818333Y-100932461D02*
X85818333Y-101099128D01*
X85818333Y-101099128D02*
X85851666Y-101199128D01*
X85851666Y-101199128D02*
X85918333Y-101265795D01*
X85918333Y-101265795D02*
X85985000Y-101299128D01*
X85985000Y-101299128D02*
X86118333Y-101332461D01*
X86118333Y-101332461D02*
X86218333Y-101332461D01*
X86218333Y-101332461D02*
X86351666Y-101299128D01*
X86351666Y-101299128D02*
X86418333Y-101265795D01*
X86418333Y-101265795D02*
X86485000Y-101199128D01*
X86485000Y-101199128D02*
X86518333Y-101099128D01*
X86518333Y-101099128D02*
X86518333Y-100932461D01*
X95052733Y-100427399D02*
X95052733Y-100027399D01*
X95052733Y-100227399D02*
X94352733Y-100227399D01*
X94352733Y-100227399D02*
X94452733Y-100160732D01*
X94452733Y-100160732D02*
X94519400Y-100094066D01*
X94519400Y-100094066D02*
X94552733Y-100027399D01*
X94352733Y-100860733D02*
X94352733Y-100927399D01*
X94352733Y-100927399D02*
X94386066Y-100994066D01*
X94386066Y-100994066D02*
X94419400Y-101027399D01*
X94419400Y-101027399D02*
X94486066Y-101060733D01*
X94486066Y-101060733D02*
X94619400Y-101094066D01*
X94619400Y-101094066D02*
X94786066Y-101094066D01*
X94786066Y-101094066D02*
X94919400Y-101060733D01*
X94919400Y-101060733D02*
X94986066Y-101027399D01*
X94986066Y-101027399D02*
X95019400Y-100994066D01*
X95019400Y-100994066D02*
X95052733Y-100927399D01*
X95052733Y-100927399D02*
X95052733Y-100860733D01*
X95052733Y-100860733D02*
X95019400Y-100794066D01*
X95019400Y-100794066D02*
X94986066Y-100760733D01*
X94986066Y-100760733D02*
X94919400Y-100727399D01*
X94919400Y-100727399D02*
X94786066Y-100694066D01*
X94786066Y-100694066D02*
X94619400Y-100694066D01*
X94619400Y-100694066D02*
X94486066Y-100727399D01*
X94486066Y-100727399D02*
X94419400Y-100760733D01*
X94419400Y-100760733D02*
X94386066Y-100794066D01*
X94386066Y-100794066D02*
X94352733Y-100860733D01*
X94352733Y-101527400D02*
X94352733Y-101594066D01*
X94352733Y-101594066D02*
X94386066Y-101660733D01*
X94386066Y-101660733D02*
X94419400Y-101694066D01*
X94419400Y-101694066D02*
X94486066Y-101727400D01*
X94486066Y-101727400D02*
X94619400Y-101760733D01*
X94619400Y-101760733D02*
X94786066Y-101760733D01*
X94786066Y-101760733D02*
X94919400Y-101727400D01*
X94919400Y-101727400D02*
X94986066Y-101694066D01*
X94986066Y-101694066D02*
X95019400Y-101660733D01*
X95019400Y-101660733D02*
X95052733Y-101594066D01*
X95052733Y-101594066D02*
X95052733Y-101527400D01*
X95052733Y-101527400D02*
X95019400Y-101460733D01*
X95019400Y-101460733D02*
X94986066Y-101427400D01*
X94986066Y-101427400D02*
X94919400Y-101394066D01*
X94919400Y-101394066D02*
X94786066Y-101360733D01*
X94786066Y-101360733D02*
X94619400Y-101360733D01*
X94619400Y-101360733D02*
X94486066Y-101394066D01*
X94486066Y-101394066D02*
X94419400Y-101427400D01*
X94419400Y-101427400D02*
X94386066Y-101460733D01*
X94386066Y-101460733D02*
X94352733Y-101527400D01*
X95052733Y-102060733D02*
X94352733Y-102060733D01*
X94786066Y-102127400D02*
X95052733Y-102327400D01*
X94586066Y-102327400D02*
X94852733Y-102060733D01*
X67992833Y-81603333D02*
X67992833Y-82036666D01*
X67992833Y-82036666D02*
X68259500Y-81803333D01*
X68259500Y-81803333D02*
X68259500Y-81903333D01*
X68259500Y-81903333D02*
X68292833Y-81969999D01*
X68292833Y-81969999D02*
X68326166Y-82003333D01*
X68326166Y-82003333D02*
X68392833Y-82036666D01*
X68392833Y-82036666D02*
X68559500Y-82036666D01*
X68559500Y-82036666D02*
X68626166Y-82003333D01*
X68626166Y-82003333D02*
X68659500Y-81969999D01*
X68659500Y-81969999D02*
X68692833Y-81903333D01*
X68692833Y-81903333D02*
X68692833Y-81703333D01*
X68692833Y-81703333D02*
X68659500Y-81636666D01*
X68659500Y-81636666D02*
X68626166Y-81603333D01*
X68059500Y-82303333D02*
X68026166Y-82336666D01*
X68026166Y-82336666D02*
X67992833Y-82403333D01*
X67992833Y-82403333D02*
X67992833Y-82570000D01*
X67992833Y-82570000D02*
X68026166Y-82636666D01*
X68026166Y-82636666D02*
X68059500Y-82670000D01*
X68059500Y-82670000D02*
X68126166Y-82703333D01*
X68126166Y-82703333D02*
X68192833Y-82703333D01*
X68192833Y-82703333D02*
X68292833Y-82670000D01*
X68292833Y-82670000D02*
X68692833Y-82270000D01*
X68692833Y-82270000D02*
X68692833Y-82703333D01*
X67992833Y-82936667D02*
X67992833Y-83403333D01*
X67992833Y-83403333D02*
X68692833Y-83103333D01*
X67992833Y-83970000D02*
X67992833Y-83836667D01*
X67992833Y-83836667D02*
X68026166Y-83770000D01*
X68026166Y-83770000D02*
X68059500Y-83736667D01*
X68059500Y-83736667D02*
X68159500Y-83670000D01*
X68159500Y-83670000D02*
X68292833Y-83636667D01*
X68292833Y-83636667D02*
X68559500Y-83636667D01*
X68559500Y-83636667D02*
X68626166Y-83670000D01*
X68626166Y-83670000D02*
X68659500Y-83703334D01*
X68659500Y-83703334D02*
X68692833Y-83770000D01*
X68692833Y-83770000D02*
X68692833Y-83903334D01*
X68692833Y-83903334D02*
X68659500Y-83970000D01*
X68659500Y-83970000D02*
X68626166Y-84003334D01*
X68626166Y-84003334D02*
X68559500Y-84036667D01*
X68559500Y-84036667D02*
X68392833Y-84036667D01*
X68392833Y-84036667D02*
X68326166Y-84003334D01*
X68326166Y-84003334D02*
X68292833Y-83970000D01*
X68292833Y-83970000D02*
X68259500Y-83903334D01*
X68259500Y-83903334D02*
X68259500Y-83770000D01*
X68259500Y-83770000D02*
X68292833Y-83703334D01*
X68292833Y-83703334D02*
X68326166Y-83670000D01*
X68326166Y-83670000D02*
X68392833Y-83636667D01*
X68292833Y-84436667D02*
X68259500Y-84370001D01*
X68259500Y-84370001D02*
X68226166Y-84336667D01*
X68226166Y-84336667D02*
X68159500Y-84303334D01*
X68159500Y-84303334D02*
X68126166Y-84303334D01*
X68126166Y-84303334D02*
X68059500Y-84336667D01*
X68059500Y-84336667D02*
X68026166Y-84370001D01*
X68026166Y-84370001D02*
X67992833Y-84436667D01*
X67992833Y-84436667D02*
X67992833Y-84570001D01*
X67992833Y-84570001D02*
X68026166Y-84636667D01*
X68026166Y-84636667D02*
X68059500Y-84670001D01*
X68059500Y-84670001D02*
X68126166Y-84703334D01*
X68126166Y-84703334D02*
X68159500Y-84703334D01*
X68159500Y-84703334D02*
X68226166Y-84670001D01*
X68226166Y-84670001D02*
X68259500Y-84636667D01*
X68259500Y-84636667D02*
X68292833Y-84570001D01*
X68292833Y-84570001D02*
X68292833Y-84436667D01*
X68292833Y-84436667D02*
X68326166Y-84370001D01*
X68326166Y-84370001D02*
X68359500Y-84336667D01*
X68359500Y-84336667D02*
X68426166Y-84303334D01*
X68426166Y-84303334D02*
X68559500Y-84303334D01*
X68559500Y-84303334D02*
X68626166Y-84336667D01*
X68626166Y-84336667D02*
X68659500Y-84370001D01*
X68659500Y-84370001D02*
X68692833Y-84436667D01*
X68692833Y-84436667D02*
X68692833Y-84570001D01*
X68692833Y-84570001D02*
X68659500Y-84636667D01*
X68659500Y-84636667D02*
X68626166Y-84670001D01*
X68626166Y-84670001D02*
X68559500Y-84703334D01*
X68559500Y-84703334D02*
X68426166Y-84703334D01*
X68426166Y-84703334D02*
X68359500Y-84670001D01*
X68359500Y-84670001D02*
X68326166Y-84636667D01*
X68326166Y-84636667D02*
X68292833Y-84570001D01*
X68692833Y-85003334D02*
X67992833Y-85003334D01*
X68326166Y-85003334D02*
X68326166Y-85403334D01*
X68692833Y-85403334D02*
X67992833Y-85403334D01*
X68226166Y-85670001D02*
X68226166Y-86036667D01*
X68226166Y-86036667D02*
X68692833Y-85670001D01*
X68692833Y-85670001D02*
X68692833Y-86036667D01*
X87118300Y-93926866D02*
X87018300Y-93960200D01*
X87018300Y-93960200D02*
X86984966Y-93993533D01*
X86984966Y-93993533D02*
X86951633Y-94060200D01*
X86951633Y-94060200D02*
X86951633Y-94160200D01*
X86951633Y-94160200D02*
X86984966Y-94226866D01*
X86984966Y-94226866D02*
X87018300Y-94260200D01*
X87018300Y-94260200D02*
X87084966Y-94293533D01*
X87084966Y-94293533D02*
X87351633Y-94293533D01*
X87351633Y-94293533D02*
X87351633Y-93593533D01*
X87351633Y-93593533D02*
X87118300Y-93593533D01*
X87118300Y-93593533D02*
X87051633Y-93626866D01*
X87051633Y-93626866D02*
X87018300Y-93660200D01*
X87018300Y-93660200D02*
X86984966Y-93726866D01*
X86984966Y-93726866D02*
X86984966Y-93793533D01*
X86984966Y-93793533D02*
X87018300Y-93860200D01*
X87018300Y-93860200D02*
X87051633Y-93893533D01*
X87051633Y-93893533D02*
X87118300Y-93926866D01*
X87118300Y-93926866D02*
X87351633Y-93926866D01*
X86251633Y-94226866D02*
X86284966Y-94260200D01*
X86284966Y-94260200D02*
X86384966Y-94293533D01*
X86384966Y-94293533D02*
X86451633Y-94293533D01*
X86451633Y-94293533D02*
X86551633Y-94260200D01*
X86551633Y-94260200D02*
X86618300Y-94193533D01*
X86618300Y-94193533D02*
X86651633Y-94126866D01*
X86651633Y-94126866D02*
X86684966Y-93993533D01*
X86684966Y-93993533D02*
X86684966Y-93893533D01*
X86684966Y-93893533D02*
X86651633Y-93760200D01*
X86651633Y-93760200D02*
X86618300Y-93693533D01*
X86618300Y-93693533D02*
X86551633Y-93626866D01*
X86551633Y-93626866D02*
X86451633Y-93593533D01*
X86451633Y-93593533D02*
X86384966Y-93593533D01*
X86384966Y-93593533D02*
X86284966Y-93626866D01*
X86284966Y-93626866D02*
X86251633Y-93660200D01*
X85851633Y-93893533D02*
X85918300Y-93860200D01*
X85918300Y-93860200D02*
X85951633Y-93826866D01*
X85951633Y-93826866D02*
X85984966Y-93760200D01*
X85984966Y-93760200D02*
X85984966Y-93726866D01*
X85984966Y-93726866D02*
X85951633Y-93660200D01*
X85951633Y-93660200D02*
X85918300Y-93626866D01*
X85918300Y-93626866D02*
X85851633Y-93593533D01*
X85851633Y-93593533D02*
X85718300Y-93593533D01*
X85718300Y-93593533D02*
X85651633Y-93626866D01*
X85651633Y-93626866D02*
X85618300Y-93660200D01*
X85618300Y-93660200D02*
X85584966Y-93726866D01*
X85584966Y-93726866D02*
X85584966Y-93760200D01*
X85584966Y-93760200D02*
X85618300Y-93826866D01*
X85618300Y-93826866D02*
X85651633Y-93860200D01*
X85651633Y-93860200D02*
X85718300Y-93893533D01*
X85718300Y-93893533D02*
X85851633Y-93893533D01*
X85851633Y-93893533D02*
X85918300Y-93926866D01*
X85918300Y-93926866D02*
X85951633Y-93960200D01*
X85951633Y-93960200D02*
X85984966Y-94026866D01*
X85984966Y-94026866D02*
X85984966Y-94160200D01*
X85984966Y-94160200D02*
X85951633Y-94226866D01*
X85951633Y-94226866D02*
X85918300Y-94260200D01*
X85918300Y-94260200D02*
X85851633Y-94293533D01*
X85851633Y-94293533D02*
X85718300Y-94293533D01*
X85718300Y-94293533D02*
X85651633Y-94260200D01*
X85651633Y-94260200D02*
X85618300Y-94226866D01*
X85618300Y-94226866D02*
X85584966Y-94160200D01*
X85584966Y-94160200D02*
X85584966Y-94026866D01*
X85584966Y-94026866D02*
X85618300Y-93960200D01*
X85618300Y-93960200D02*
X85651633Y-93926866D01*
X85651633Y-93926866D02*
X85718300Y-93893533D01*
X84984966Y-93826866D02*
X84984966Y-94293533D01*
X85151633Y-93560200D02*
X85318299Y-94060200D01*
X85318299Y-94060200D02*
X84884966Y-94060200D01*
X84684966Y-93593533D02*
X84218299Y-93593533D01*
X84218299Y-93593533D02*
X84518299Y-94293533D01*
X107374483Y-85478183D02*
X107374483Y-85078183D01*
X107374483Y-85278183D02*
X106674483Y-85278183D01*
X106674483Y-85278183D02*
X106774483Y-85211516D01*
X106774483Y-85211516D02*
X106841150Y-85144850D01*
X106841150Y-85144850D02*
X106874483Y-85078183D01*
X106674483Y-85911517D02*
X106674483Y-85978183D01*
X106674483Y-85978183D02*
X106707816Y-86044850D01*
X106707816Y-86044850D02*
X106741150Y-86078183D01*
X106741150Y-86078183D02*
X106807816Y-86111517D01*
X106807816Y-86111517D02*
X106941150Y-86144850D01*
X106941150Y-86144850D02*
X107107816Y-86144850D01*
X107107816Y-86144850D02*
X107241150Y-86111517D01*
X107241150Y-86111517D02*
X107307816Y-86078183D01*
X107307816Y-86078183D02*
X107341150Y-86044850D01*
X107341150Y-86044850D02*
X107374483Y-85978183D01*
X107374483Y-85978183D02*
X107374483Y-85911517D01*
X107374483Y-85911517D02*
X107341150Y-85844850D01*
X107341150Y-85844850D02*
X107307816Y-85811517D01*
X107307816Y-85811517D02*
X107241150Y-85778183D01*
X107241150Y-85778183D02*
X107107816Y-85744850D01*
X107107816Y-85744850D02*
X106941150Y-85744850D01*
X106941150Y-85744850D02*
X106807816Y-85778183D01*
X106807816Y-85778183D02*
X106741150Y-85811517D01*
X106741150Y-85811517D02*
X106707816Y-85844850D01*
X106707816Y-85844850D02*
X106674483Y-85911517D01*
X107374483Y-86444850D02*
X106674483Y-86444850D01*
X107107816Y-86511517D02*
X107374483Y-86711517D01*
X106907816Y-86711517D02*
X107174483Y-86444850D01*
X105342483Y-93008683D02*
X105342483Y-92608683D01*
X105342483Y-92808683D02*
X104642483Y-92808683D01*
X104642483Y-92808683D02*
X104742483Y-92742016D01*
X104742483Y-92742016D02*
X104809150Y-92675350D01*
X104809150Y-92675350D02*
X104842483Y-92608683D01*
X104642483Y-93442017D02*
X104642483Y-93508683D01*
X104642483Y-93508683D02*
X104675816Y-93575350D01*
X104675816Y-93575350D02*
X104709150Y-93608683D01*
X104709150Y-93608683D02*
X104775816Y-93642017D01*
X104775816Y-93642017D02*
X104909150Y-93675350D01*
X104909150Y-93675350D02*
X105075816Y-93675350D01*
X105075816Y-93675350D02*
X105209150Y-93642017D01*
X105209150Y-93642017D02*
X105275816Y-93608683D01*
X105275816Y-93608683D02*
X105309150Y-93575350D01*
X105309150Y-93575350D02*
X105342483Y-93508683D01*
X105342483Y-93508683D02*
X105342483Y-93442017D01*
X105342483Y-93442017D02*
X105309150Y-93375350D01*
X105309150Y-93375350D02*
X105275816Y-93342017D01*
X105275816Y-93342017D02*
X105209150Y-93308683D01*
X105209150Y-93308683D02*
X105075816Y-93275350D01*
X105075816Y-93275350D02*
X104909150Y-93275350D01*
X104909150Y-93275350D02*
X104775816Y-93308683D01*
X104775816Y-93308683D02*
X104709150Y-93342017D01*
X104709150Y-93342017D02*
X104675816Y-93375350D01*
X104675816Y-93375350D02*
X104642483Y-93442017D01*
X105342483Y-93975350D02*
X104642483Y-93975350D01*
X105075816Y-94042017D02*
X105342483Y-94242017D01*
X104875816Y-94242017D02*
X105142483Y-93975350D01*
X112892000Y-123120033D02*
X112458666Y-123120033D01*
X112458666Y-123120033D02*
X112692000Y-123386700D01*
X112692000Y-123386700D02*
X112592000Y-123386700D01*
X112592000Y-123386700D02*
X112525333Y-123420033D01*
X112525333Y-123420033D02*
X112492000Y-123453366D01*
X112492000Y-123453366D02*
X112458666Y-123520033D01*
X112458666Y-123520033D02*
X112458666Y-123686700D01*
X112458666Y-123686700D02*
X112492000Y-123753366D01*
X112492000Y-123753366D02*
X112525333Y-123786700D01*
X112525333Y-123786700D02*
X112592000Y-123820033D01*
X112592000Y-123820033D02*
X112792000Y-123820033D01*
X112792000Y-123820033D02*
X112858666Y-123786700D01*
X112858666Y-123786700D02*
X112892000Y-123753366D01*
X112158666Y-123820033D02*
X112158666Y-123120033D01*
X112091999Y-123553366D02*
X111891999Y-123820033D01*
X111891999Y-123353366D02*
X112158666Y-123620033D01*
X111658666Y-123120033D02*
X111225332Y-123120033D01*
X111225332Y-123120033D02*
X111458666Y-123386700D01*
X111458666Y-123386700D02*
X111358666Y-123386700D01*
X111358666Y-123386700D02*
X111291999Y-123420033D01*
X111291999Y-123420033D02*
X111258666Y-123453366D01*
X111258666Y-123453366D02*
X111225332Y-123520033D01*
X111225332Y-123520033D02*
X111225332Y-123686700D01*
X111225332Y-123686700D02*
X111258666Y-123753366D01*
X111258666Y-123753366D02*
X111291999Y-123786700D01*
X111291999Y-123786700D02*
X111358666Y-123820033D01*
X111358666Y-123820033D02*
X111558666Y-123820033D01*
X111558666Y-123820033D02*
X111625332Y-123786700D01*
X111625332Y-123786700D02*
X111658666Y-123753366D01*
X88073033Y-85562333D02*
X87739700Y-85329000D01*
X88073033Y-85162333D02*
X87373033Y-85162333D01*
X87373033Y-85162333D02*
X87373033Y-85429000D01*
X87373033Y-85429000D02*
X87406366Y-85495667D01*
X87406366Y-85495667D02*
X87439700Y-85529000D01*
X87439700Y-85529000D02*
X87506366Y-85562333D01*
X87506366Y-85562333D02*
X87606366Y-85562333D01*
X87606366Y-85562333D02*
X87673033Y-85529000D01*
X87673033Y-85529000D02*
X87706366Y-85495667D01*
X87706366Y-85495667D02*
X87739700Y-85429000D01*
X87739700Y-85429000D02*
X87739700Y-85162333D01*
X87373033Y-85762333D02*
X88073033Y-85995667D01*
X88073033Y-85995667D02*
X87373033Y-86229000D01*
X87373033Y-86762333D02*
X87373033Y-86629000D01*
X87373033Y-86629000D02*
X87406366Y-86562333D01*
X87406366Y-86562333D02*
X87439700Y-86529000D01*
X87439700Y-86529000D02*
X87539700Y-86462333D01*
X87539700Y-86462333D02*
X87673033Y-86429000D01*
X87673033Y-86429000D02*
X87939700Y-86429000D01*
X87939700Y-86429000D02*
X88006366Y-86462333D01*
X88006366Y-86462333D02*
X88039700Y-86495667D01*
X88039700Y-86495667D02*
X88073033Y-86562333D01*
X88073033Y-86562333D02*
X88073033Y-86695667D01*
X88073033Y-86695667D02*
X88039700Y-86762333D01*
X88039700Y-86762333D02*
X88006366Y-86795667D01*
X88006366Y-86795667D02*
X87939700Y-86829000D01*
X87939700Y-86829000D02*
X87773033Y-86829000D01*
X87773033Y-86829000D02*
X87706366Y-86795667D01*
X87706366Y-86795667D02*
X87673033Y-86762333D01*
X87673033Y-86762333D02*
X87639700Y-86695667D01*
X87639700Y-86695667D02*
X87639700Y-86562333D01*
X87639700Y-86562333D02*
X87673033Y-86495667D01*
X87673033Y-86495667D02*
X87706366Y-86462333D01*
X87706366Y-86462333D02*
X87773033Y-86429000D01*
X111028666Y-81596033D02*
X111261999Y-81262700D01*
X111428666Y-81596033D02*
X111428666Y-80896033D01*
X111428666Y-80896033D02*
X111161999Y-80896033D01*
X111161999Y-80896033D02*
X111095333Y-80929366D01*
X111095333Y-80929366D02*
X111061999Y-80962700D01*
X111061999Y-80962700D02*
X111028666Y-81029366D01*
X111028666Y-81029366D02*
X111028666Y-81129366D01*
X111028666Y-81129366D02*
X111061999Y-81196033D01*
X111061999Y-81196033D02*
X111095333Y-81229366D01*
X111095333Y-81229366D02*
X111161999Y-81262700D01*
X111161999Y-81262700D02*
X111428666Y-81262700D01*
X110795333Y-80896033D02*
X110328666Y-81596033D01*
X110328666Y-80896033D02*
X110795333Y-81596033D01*
X110061999Y-81329366D02*
X109528666Y-81329366D01*
X109195332Y-81596033D02*
X109195332Y-81129366D01*
X109195332Y-80896033D02*
X109228665Y-80929366D01*
X109228665Y-80929366D02*
X109195332Y-80962700D01*
X109195332Y-80962700D02*
X109161999Y-80929366D01*
X109161999Y-80929366D02*
X109195332Y-80896033D01*
X109195332Y-80896033D02*
X109195332Y-80962700D01*
X108895332Y-81562700D02*
X108828666Y-81596033D01*
X108828666Y-81596033D02*
X108695332Y-81596033D01*
X108695332Y-81596033D02*
X108628666Y-81562700D01*
X108628666Y-81562700D02*
X108595332Y-81496033D01*
X108595332Y-81496033D02*
X108595332Y-81462700D01*
X108595332Y-81462700D02*
X108628666Y-81396033D01*
X108628666Y-81396033D02*
X108695332Y-81362700D01*
X108695332Y-81362700D02*
X108795332Y-81362700D01*
X108795332Y-81362700D02*
X108861999Y-81329366D01*
X108861999Y-81329366D02*
X108895332Y-81262700D01*
X108895332Y-81262700D02*
X108895332Y-81229366D01*
X108895332Y-81229366D02*
X108861999Y-81162700D01*
X108861999Y-81162700D02*
X108795332Y-81129366D01*
X108795332Y-81129366D02*
X108695332Y-81129366D01*
X108695332Y-81129366D02*
X108628666Y-81162700D01*
X108195332Y-81596033D02*
X108261999Y-81562700D01*
X108261999Y-81562700D02*
X108295332Y-81529366D01*
X108295332Y-81529366D02*
X108328665Y-81462700D01*
X108328665Y-81462700D02*
X108328665Y-81262700D01*
X108328665Y-81262700D02*
X108295332Y-81196033D01*
X108295332Y-81196033D02*
X108261999Y-81162700D01*
X108261999Y-81162700D02*
X108195332Y-81129366D01*
X108195332Y-81129366D02*
X108095332Y-81129366D01*
X108095332Y-81129366D02*
X108028665Y-81162700D01*
X108028665Y-81162700D02*
X107995332Y-81196033D01*
X107995332Y-81196033D02*
X107961999Y-81262700D01*
X107961999Y-81262700D02*
X107961999Y-81462700D01*
X107961999Y-81462700D02*
X107995332Y-81529366D01*
X107995332Y-81529366D02*
X108028665Y-81562700D01*
X108028665Y-81562700D02*
X108095332Y-81596033D01*
X108095332Y-81596033D02*
X108195332Y-81596033D01*
X107561999Y-81596033D02*
X107628666Y-81562700D01*
X107628666Y-81562700D02*
X107661999Y-81496033D01*
X107661999Y-81496033D02*
X107661999Y-80896033D01*
X106995332Y-81596033D02*
X106995332Y-81229366D01*
X106995332Y-81229366D02*
X107028665Y-81162700D01*
X107028665Y-81162700D02*
X107095332Y-81129366D01*
X107095332Y-81129366D02*
X107228665Y-81129366D01*
X107228665Y-81129366D02*
X107295332Y-81162700D01*
X106995332Y-81562700D02*
X107061999Y-81596033D01*
X107061999Y-81596033D02*
X107228665Y-81596033D01*
X107228665Y-81596033D02*
X107295332Y-81562700D01*
X107295332Y-81562700D02*
X107328665Y-81496033D01*
X107328665Y-81496033D02*
X107328665Y-81429366D01*
X107328665Y-81429366D02*
X107295332Y-81362700D01*
X107295332Y-81362700D02*
X107228665Y-81329366D01*
X107228665Y-81329366D02*
X107061999Y-81329366D01*
X107061999Y-81329366D02*
X106995332Y-81296033D01*
X106761999Y-81129366D02*
X106495332Y-81129366D01*
X106661999Y-80896033D02*
X106661999Y-81496033D01*
X106661999Y-81496033D02*
X106628666Y-81562700D01*
X106628666Y-81562700D02*
X106561999Y-81596033D01*
X106561999Y-81596033D02*
X106495332Y-81596033D01*
X105995332Y-81562700D02*
X106061999Y-81596033D01*
X106061999Y-81596033D02*
X106195332Y-81596033D01*
X106195332Y-81596033D02*
X106261999Y-81562700D01*
X106261999Y-81562700D02*
X106295332Y-81496033D01*
X106295332Y-81496033D02*
X106295332Y-81229366D01*
X106295332Y-81229366D02*
X106261999Y-81162700D01*
X106261999Y-81162700D02*
X106195332Y-81129366D01*
X106195332Y-81129366D02*
X106061999Y-81129366D01*
X106061999Y-81129366D02*
X105995332Y-81162700D01*
X105995332Y-81162700D02*
X105961999Y-81229366D01*
X105961999Y-81229366D02*
X105961999Y-81296033D01*
X105961999Y-81296033D02*
X106295332Y-81362700D01*
X101408033Y-86558666D02*
X100708033Y-86558666D01*
X100708033Y-86558666D02*
X100708033Y-86825333D01*
X100708033Y-86825333D02*
X100741366Y-86892000D01*
X100741366Y-86892000D02*
X100774700Y-86925333D01*
X100774700Y-86925333D02*
X100841366Y-86958666D01*
X100841366Y-86958666D02*
X100941366Y-86958666D01*
X100941366Y-86958666D02*
X101008033Y-86925333D01*
X101008033Y-86925333D02*
X101041366Y-86892000D01*
X101041366Y-86892000D02*
X101074700Y-86825333D01*
X101074700Y-86825333D02*
X101074700Y-86558666D01*
X101408033Y-87358666D02*
X101374700Y-87292000D01*
X101374700Y-87292000D02*
X101308033Y-87258666D01*
X101308033Y-87258666D02*
X100708033Y-87258666D01*
X101374700Y-87592000D02*
X101408033Y-87658667D01*
X101408033Y-87658667D02*
X101408033Y-87792000D01*
X101408033Y-87792000D02*
X101374700Y-87858667D01*
X101374700Y-87858667D02*
X101308033Y-87892000D01*
X101308033Y-87892000D02*
X101274700Y-87892000D01*
X101274700Y-87892000D02*
X101208033Y-87858667D01*
X101208033Y-87858667D02*
X101174700Y-87792000D01*
X101174700Y-87792000D02*
X101174700Y-87692000D01*
X101174700Y-87692000D02*
X101141366Y-87625333D01*
X101141366Y-87625333D02*
X101074700Y-87592000D01*
X101074700Y-87592000D02*
X101041366Y-87592000D01*
X101041366Y-87592000D02*
X100974700Y-87625333D01*
X100974700Y-87625333D02*
X100941366Y-87692000D01*
X100941366Y-87692000D02*
X100941366Y-87792000D01*
X100941366Y-87792000D02*
X100974700Y-87858667D01*
X101374700Y-88158667D02*
X101408033Y-88258667D01*
X101408033Y-88258667D02*
X101408033Y-88425334D01*
X101408033Y-88425334D02*
X101374700Y-88492000D01*
X101374700Y-88492000D02*
X101341366Y-88525334D01*
X101341366Y-88525334D02*
X101274700Y-88558667D01*
X101274700Y-88558667D02*
X101208033Y-88558667D01*
X101208033Y-88558667D02*
X101141366Y-88525334D01*
X101141366Y-88525334D02*
X101108033Y-88492000D01*
X101108033Y-88492000D02*
X101074700Y-88425334D01*
X101074700Y-88425334D02*
X101041366Y-88292000D01*
X101041366Y-88292000D02*
X101008033Y-88225334D01*
X101008033Y-88225334D02*
X100974700Y-88192000D01*
X100974700Y-88192000D02*
X100908033Y-88158667D01*
X100908033Y-88158667D02*
X100841366Y-88158667D01*
X100841366Y-88158667D02*
X100774700Y-88192000D01*
X100774700Y-88192000D02*
X100741366Y-88225334D01*
X100741366Y-88225334D02*
X100708033Y-88292000D01*
X100708033Y-88292000D02*
X100708033Y-88458667D01*
X100708033Y-88458667D02*
X100741366Y-88558667D01*
X101408033Y-88858667D02*
X100708033Y-88858667D01*
X101408033Y-89158667D02*
X101041366Y-89158667D01*
X101041366Y-89158667D02*
X100974700Y-89125334D01*
X100974700Y-89125334D02*
X100941366Y-89058667D01*
X100941366Y-89058667D02*
X100941366Y-88958667D01*
X100941366Y-88958667D02*
X100974700Y-88892001D01*
X100974700Y-88892001D02*
X101008033Y-88858667D01*
X100941366Y-89492000D02*
X101641366Y-89492000D01*
X100974700Y-89492000D02*
X100941366Y-89558667D01*
X100941366Y-89558667D02*
X100941366Y-89692000D01*
X100941366Y-89692000D02*
X100974700Y-89758667D01*
X100974700Y-89758667D02*
X101008033Y-89792000D01*
X101008033Y-89792000D02*
X101074700Y-89825334D01*
X101074700Y-89825334D02*
X101274700Y-89825334D01*
X101274700Y-89825334D02*
X101341366Y-89792000D01*
X101341366Y-89792000D02*
X101374700Y-89758667D01*
X101374700Y-89758667D02*
X101408033Y-89692000D01*
X101408033Y-89692000D02*
X101408033Y-89558667D01*
X101408033Y-89558667D02*
X101374700Y-89492000D01*
X101408033Y-90125333D02*
X100941366Y-90125333D01*
X101074700Y-90125333D02*
X101008033Y-90158667D01*
X101008033Y-90158667D02*
X100974700Y-90192000D01*
X100974700Y-90192000D02*
X100941366Y-90258667D01*
X100941366Y-90258667D02*
X100941366Y-90325333D01*
X74859334Y-129221033D02*
X75092667Y-128887700D01*
X75259334Y-129221033D02*
X75259334Y-128521033D01*
X75259334Y-128521033D02*
X74992667Y-128521033D01*
X74992667Y-128521033D02*
X74926001Y-128554366D01*
X74926001Y-128554366D02*
X74892667Y-128587700D01*
X74892667Y-128587700D02*
X74859334Y-128654366D01*
X74859334Y-128654366D02*
X74859334Y-128754366D01*
X74859334Y-128754366D02*
X74892667Y-128821033D01*
X74892667Y-128821033D02*
X74926001Y-128854366D01*
X74926001Y-128854366D02*
X74992667Y-128887700D01*
X74992667Y-128887700D02*
X75259334Y-128887700D01*
X74559334Y-128954366D02*
X74026001Y-128954366D01*
X73759334Y-128521033D02*
X73292667Y-128521033D01*
X73292667Y-128521033D02*
X73592667Y-129221033D01*
X72926000Y-128821033D02*
X72992667Y-128787700D01*
X72992667Y-128787700D02*
X73026000Y-128754366D01*
X73026000Y-128754366D02*
X73059333Y-128687700D01*
X73059333Y-128687700D02*
X73059333Y-128654366D01*
X73059333Y-128654366D02*
X73026000Y-128587700D01*
X73026000Y-128587700D02*
X72992667Y-128554366D01*
X72992667Y-128554366D02*
X72926000Y-128521033D01*
X72926000Y-128521033D02*
X72792667Y-128521033D01*
X72792667Y-128521033D02*
X72726000Y-128554366D01*
X72726000Y-128554366D02*
X72692667Y-128587700D01*
X72692667Y-128587700D02*
X72659333Y-128654366D01*
X72659333Y-128654366D02*
X72659333Y-128687700D01*
X72659333Y-128687700D02*
X72692667Y-128754366D01*
X72692667Y-128754366D02*
X72726000Y-128787700D01*
X72726000Y-128787700D02*
X72792667Y-128821033D01*
X72792667Y-128821033D02*
X72926000Y-128821033D01*
X72926000Y-128821033D02*
X72992667Y-128854366D01*
X72992667Y-128854366D02*
X73026000Y-128887700D01*
X73026000Y-128887700D02*
X73059333Y-128954366D01*
X73059333Y-128954366D02*
X73059333Y-129087700D01*
X73059333Y-129087700D02*
X73026000Y-129154366D01*
X73026000Y-129154366D02*
X72992667Y-129187700D01*
X72992667Y-129187700D02*
X72926000Y-129221033D01*
X72926000Y-129221033D02*
X72792667Y-129221033D01*
X72792667Y-129221033D02*
X72726000Y-129187700D01*
X72726000Y-129187700D02*
X72692667Y-129154366D01*
X72692667Y-129154366D02*
X72659333Y-129087700D01*
X72659333Y-129087700D02*
X72659333Y-128954366D01*
X72659333Y-128954366D02*
X72692667Y-128887700D01*
X72692667Y-128887700D02*
X72726000Y-128854366D01*
X72726000Y-128854366D02*
X72792667Y-128821033D01*
X72026000Y-128521033D02*
X72359333Y-128521033D01*
X72359333Y-128521033D02*
X72392666Y-128854366D01*
X72392666Y-128854366D02*
X72359333Y-128821033D01*
X72359333Y-128821033D02*
X72292666Y-128787700D01*
X72292666Y-128787700D02*
X72126000Y-128787700D01*
X72126000Y-128787700D02*
X72059333Y-128821033D01*
X72059333Y-128821033D02*
X72026000Y-128854366D01*
X72026000Y-128854366D02*
X71992666Y-128921033D01*
X71992666Y-128921033D02*
X71992666Y-129087700D01*
X71992666Y-129087700D02*
X72026000Y-129154366D01*
X72026000Y-129154366D02*
X72059333Y-129187700D01*
X72059333Y-129187700D02*
X72126000Y-129221033D01*
X72126000Y-129221033D02*
X72292666Y-129221033D01*
X72292666Y-129221033D02*
X72359333Y-129187700D01*
X72359333Y-129187700D02*
X72392666Y-129154366D01*
X71692666Y-129154366D02*
X71659333Y-129187700D01*
X71659333Y-129187700D02*
X71692666Y-129221033D01*
X71692666Y-129221033D02*
X71725999Y-129187700D01*
X71725999Y-129187700D02*
X71692666Y-129154366D01*
X71692666Y-129154366D02*
X71692666Y-129221033D01*
X71226000Y-128521033D02*
X71159333Y-128521033D01*
X71159333Y-128521033D02*
X71092666Y-128554366D01*
X71092666Y-128554366D02*
X71059333Y-128587700D01*
X71059333Y-128587700D02*
X71026000Y-128654366D01*
X71026000Y-128654366D02*
X70992666Y-128787700D01*
X70992666Y-128787700D02*
X70992666Y-128954366D01*
X70992666Y-128954366D02*
X71026000Y-129087700D01*
X71026000Y-129087700D02*
X71059333Y-129154366D01*
X71059333Y-129154366D02*
X71092666Y-129187700D01*
X71092666Y-129187700D02*
X71159333Y-129221033D01*
X71159333Y-129221033D02*
X71226000Y-129221033D01*
X71226000Y-129221033D02*
X71292666Y-129187700D01*
X71292666Y-129187700D02*
X71326000Y-129154366D01*
X71326000Y-129154366D02*
X71359333Y-129087700D01*
X71359333Y-129087700D02*
X71392666Y-128954366D01*
X71392666Y-128954366D02*
X71392666Y-128787700D01*
X71392666Y-128787700D02*
X71359333Y-128654366D01*
X71359333Y-128654366D02*
X71326000Y-128587700D01*
X71326000Y-128587700D02*
X71292666Y-128554366D01*
X71292666Y-128554366D02*
X71226000Y-128521033D01*
X70692666Y-128954366D02*
X70159333Y-128954366D01*
X69459332Y-129221033D02*
X69859332Y-129221033D01*
X69659332Y-129221033D02*
X69659332Y-128521033D01*
X69659332Y-128521033D02*
X69725999Y-128621033D01*
X69725999Y-128621033D02*
X69792666Y-128687700D01*
X69792666Y-128687700D02*
X69859332Y-128721033D01*
X69159332Y-129154366D02*
X69125999Y-129187700D01*
X69125999Y-129187700D02*
X69159332Y-129221033D01*
X69159332Y-129221033D02*
X69192665Y-129187700D01*
X69192665Y-129187700D02*
X69159332Y-129154366D01*
X69159332Y-129154366D02*
X69159332Y-129221033D01*
X68692666Y-128521033D02*
X68625999Y-128521033D01*
X68625999Y-128521033D02*
X68559332Y-128554366D01*
X68559332Y-128554366D02*
X68525999Y-128587700D01*
X68525999Y-128587700D02*
X68492666Y-128654366D01*
X68492666Y-128654366D02*
X68459332Y-128787700D01*
X68459332Y-128787700D02*
X68459332Y-128954366D01*
X68459332Y-128954366D02*
X68492666Y-129087700D01*
X68492666Y-129087700D02*
X68525999Y-129154366D01*
X68525999Y-129154366D02*
X68559332Y-129187700D01*
X68559332Y-129187700D02*
X68625999Y-129221033D01*
X68625999Y-129221033D02*
X68692666Y-129221033D01*
X68692666Y-129221033D02*
X68759332Y-129187700D01*
X68759332Y-129187700D02*
X68792666Y-129154366D01*
X68792666Y-129154366D02*
X68825999Y-129087700D01*
X68825999Y-129087700D02*
X68859332Y-128954366D01*
X68859332Y-128954366D02*
X68859332Y-128787700D01*
X68859332Y-128787700D02*
X68825999Y-128654366D01*
X68825999Y-128654366D02*
X68792666Y-128587700D01*
X68792666Y-128587700D02*
X68759332Y-128554366D01*
X68759332Y-128554366D02*
X68692666Y-128521033D01*
X84540033Y-87850000D02*
X84540033Y-88250000D01*
X85240033Y-88050000D02*
X84540033Y-88050000D01*
X85240033Y-88483333D02*
X84773366Y-88483333D01*
X84906700Y-88483333D02*
X84840033Y-88516667D01*
X84840033Y-88516667D02*
X84806700Y-88550000D01*
X84806700Y-88550000D02*
X84773366Y-88616667D01*
X84773366Y-88616667D02*
X84773366Y-88683333D01*
X85240033Y-88916666D02*
X84773366Y-88916666D01*
X84540033Y-88916666D02*
X84573366Y-88883333D01*
X84573366Y-88883333D02*
X84606700Y-88916666D01*
X84606700Y-88916666D02*
X84573366Y-88950000D01*
X84573366Y-88950000D02*
X84540033Y-88916666D01*
X84540033Y-88916666D02*
X84606700Y-88916666D01*
X85240033Y-89249999D02*
X84773366Y-89249999D01*
X84840033Y-89249999D02*
X84806700Y-89283333D01*
X84806700Y-89283333D02*
X84773366Y-89349999D01*
X84773366Y-89349999D02*
X84773366Y-89449999D01*
X84773366Y-89449999D02*
X84806700Y-89516666D01*
X84806700Y-89516666D02*
X84873366Y-89549999D01*
X84873366Y-89549999D02*
X85240033Y-89549999D01*
X84873366Y-89549999D02*
X84806700Y-89583333D01*
X84806700Y-89583333D02*
X84773366Y-89649999D01*
X84773366Y-89649999D02*
X84773366Y-89749999D01*
X84773366Y-89749999D02*
X84806700Y-89816666D01*
X84806700Y-89816666D02*
X84873366Y-89849999D01*
X84873366Y-89849999D02*
X85240033Y-89849999D01*
D11*
%TO.C,JRX0*%
X111742000Y-80980000D02*
X111742000Y-81580000D01*
X112442000Y-82280000D02*
X113842000Y-82280000D01*
X113842000Y-80280000D02*
X112442000Y-80280000D01*
X114542000Y-81580000D02*
X114542000Y-80980000D01*
X111742000Y-80980000D02*
G75*
G02*
X112442000Y-80280000I699999J1D01*
G01*
X112442000Y-82280000D02*
G75*
G02*
X111742000Y-81580000I-1J699999D01*
G01*
X113842000Y-80280000D02*
G75*
G02*
X114542000Y-80980000I0J-700000D01*
G01*
X114542000Y-81580000D02*
G75*
G02*
X113842000Y-82280000I-700000J0D01*
G01*
%TO.C,JPS0*%
X101870000Y-86945000D02*
X101870000Y-88345000D01*
X102570000Y-89045000D02*
X103170000Y-89045000D01*
X103170000Y-86245000D02*
X102570000Y-86245000D01*
X103870000Y-88345000D02*
X103870000Y-86945000D01*
X101870000Y-86945000D02*
G75*
G02*
X102570000Y-86245000I700000J0D01*
G01*
X102570000Y-89045000D02*
G75*
G02*
X101870000Y-88345000I-1J699999D01*
G01*
X103170000Y-86245000D02*
G75*
G02*
X103870000Y-86945000I0J-700000D01*
G01*
X103870000Y-88345000D02*
G75*
G02*
X103170000Y-89045000I-699999J-1D01*
G01*
%TO.C,U5*%
X65852000Y-124760000D02*
X67092000Y-124760000D01*
X65852000Y-126000000D02*
X65852000Y-124760000D01*
X66092000Y-125000000D02*
X77813000Y-125000000D01*
X66092000Y-133620000D02*
X66092000Y-125000000D01*
X66092000Y-133620000D02*
X77813000Y-133620000D01*
X77813000Y-133620000D02*
X77813000Y-125000000D01*
%TO.C,JP3*%
X83880000Y-85320000D02*
X83880000Y-86720000D01*
X84580000Y-87420000D02*
X85180000Y-87420000D01*
X85180000Y-84620000D02*
X84580000Y-84620000D01*
X85880000Y-86720000D02*
X85880000Y-85320000D01*
X83880000Y-85320000D02*
G75*
G02*
X84580000Y-84620000I699999J1D01*
G01*
X84580000Y-87420000D02*
G75*
G02*
X83880000Y-86720000I0J700000D01*
G01*
X85180000Y-84620000D02*
G75*
G02*
X85880000Y-85320000I1J-699999D01*
G01*
X85880000Y-86720000D02*
G75*
G02*
X85180000Y-87420000I-700000J0D01*
G01*
%TO.C,J14*%
X61629400Y-88000600D02*
X61629400Y-88860600D01*
X62999400Y-86520600D02*
X67449400Y-86520600D01*
X68849400Y-86520600D02*
X71149400Y-86520600D01*
X72549400Y-86520600D02*
X73269400Y-86520600D01*
X73269400Y-86520600D02*
X73269400Y-89200600D01*
X73269400Y-91500600D02*
X73269400Y-95170600D01*
X73269400Y-97470600D02*
X73269400Y-98700600D01*
X73269400Y-98700600D02*
X63449400Y-98700600D01*
%TD*%
M02*
