M48
INCH,TZ
T1C0.0157
T2C0.0295
T3C0.0315
T4C0.0394
T5C0.1260
%
G90
G05
T1
X24060Y-39160
X25100Y-37900
X25615Y-33613
X25615Y-34353
X26500Y-31850
X26500Y-35500
X26500Y-36600
X27100Y-34750
X27400Y-39040
X27835Y-35553
X27835Y-37953
X27900Y-39600
X28451Y-32611
X28855Y-33031
X28971Y-36971
X28971Y-39031
X28991Y-36251
X28991Y-36591
X29250Y-40500
X29500Y-40000
X29740Y-36900
X29750Y-40250
X29771Y-39031
X29900Y-37440
X30000Y-39750
X30171Y-39031
X30371Y-36511
X30371Y-37051
X30591Y-39031
X30640Y-37380
X30651Y-36271
X30651Y-36791
X30655Y-34271
X30655Y-34671
X30671Y-33871
X30671Y-35071
X31250Y-31750
X31400Y-40500
X32400Y-36500
X32800Y-32900
X33100Y-36000
X33111Y-38488
X33111Y-40288
X34200Y-48900
X35241Y-40358
X35311Y-36288
X35800Y-36700
X36250Y-38300
X36700Y-41300
X36711Y-40388
X37711Y-40388
X38711Y-40388
X39400Y-34100
X40200Y-32000
X40923Y-33142
X40923Y-35892
X40950Y-37400
X42400Y-33150
X42400Y-37400
X42423Y-34642
X45700Y-49400
X45700Y-50600
T2
X32000Y-42963
X32000Y-43750
X32000Y-44537
X32000Y-45325
T3
X33991Y-33364
X33991Y-34364
X33991Y-35364
X36491Y-33364
X36491Y-36364
X36715Y-42520
X36715Y-45520
X37491Y-33364
X37491Y-36364
X37715Y-42520
X37715Y-45520
X38491Y-33364
X38491Y-36364
X38715Y-42520
X38715Y-45520
X39491Y-33364
X39491Y-36364
X39715Y-42520
X39715Y-45520
T4
X24500Y-41000
X24500Y-44000
X24500Y-45000
X24500Y-48000
X24506Y-40000
X24506Y-42000
X24506Y-43000
X24506Y-46000
X24506Y-47000
X25500Y-41000
X25500Y-44000
X25500Y-45000
X25500Y-48000
X25506Y-40000
X25506Y-42000
X25506Y-43000
X25506Y-46000
X25506Y-47000
X26500Y-41000
X26500Y-44000
X26500Y-45000
X26500Y-48000
X26506Y-40000
X26506Y-42000
X26506Y-43000
X26506Y-46000
X26506Y-47000
X27348Y-50024
X27400Y-31000
X28348Y-50024
X28400Y-31000
X29348Y-50024
X29400Y-31000
X30400Y-31000
X31000Y-50000
X31400Y-31000
X32000Y-50000
X32400Y-31000
X33000Y-50000
X33400Y-31000
X34000Y-50000
X34400Y-31000
X35000Y-50000
X35400Y-31000
X36000Y-50000
X36400Y-31000
X37000Y-50000
X38000Y-31000
X38000Y-50000
X39000Y-31000
X40000Y-31000
X40000Y-50000
X41000Y-31000
X41000Y-50000
X42000Y-31000
X42000Y-50000
X43000Y-31000
X43000Y-50000
X44000Y-31000
X44000Y-50000
X44011Y-33024
X44011Y-34024
X44011Y-35024
X44011Y-39024
X44011Y-40024
X44011Y-41024
X44011Y-42024
X44011Y-43024
X44011Y-44024
X44011Y-45024
X44011Y-46024
X45000Y-31000
X45000Y-50000
X45011Y-33024
X45011Y-34024
X45011Y-35024
X45011Y-39024
X45011Y-40024
X45011Y-41024
X45011Y-42024
X45011Y-43024
X45011Y-44024
X45011Y-45024
X45011Y-46024
X46011Y-33024
X46011Y-34024
X46011Y-35024
X46011Y-39024
X46011Y-40024
X46011Y-41024
X46011Y-42024
X46011Y-43024
X46011Y-44024
X46011Y-45024
X46011Y-46024
T5
X25500Y-50000
X26000Y-31000
X46000Y-37000
X46000Y-48000
T0
M30
